<?xml version="1.0" encoding="UTF-8" standalone="no"?>
<svg
   version="1.1"
   width="640"
   height="480"
   viewBox="0 0 640 480"
   xml:space="preserve"
   id="svg225"
   sodipodi:docname="OreSat_Logo_2.svg"
   inkscape:version="1.1.2 (b8e25be8, 2022-02-05)"
   xmlns:inkscape="http://www.inkscape.org/namespaces/inkscape"
   xmlns:sodipodi="http://sodipodi.sourceforge.net/DTD/sodipodi-0.dtd"
   xmlns="http://www.w3.org/2000/svg"
   xmlns:svg="http://www.w3.org/2000/svg"><sodipodi:namedview
   id="namedview227"
   pagecolor="#ffffff"
   bordercolor="#666666"
   borderopacity="1.0"
   inkscape:pageshadow="2"
   inkscape:pageopacity="0.0"
   inkscape:pagecheckerboard="true"
   showgrid="false"
   inkscape:zoom="7.087258"
   inkscape:cx="123.67265"
   inkscape:cy="51.853622"
   inkscape:window-width="1680"
   inkscape:window-height="997"
   inkscape:window-x="59"
   inkscape:window-y="25"
   inkscape:window-maximized="0"
   inkscape:current-layer="layer7" />
<desc
   id="desc145">Created with Fabric.js 3.6.3</desc>
<defs
   id="defs147"><inkscape:path-effect
   effect="powerstroke"
   id="path-effect5798"
   is_visible="true"
   lpeversion="1"
   offset_points="0.10487521,4.0030576"
   not_jump="true"
   sort_points="true"
   interpolator_type="CentripetalCatmullRom"
   interpolator_beta="0.75"
   start_linecap_type="round"
   linejoin_type="spiro"
   miter_limit="4"
   scale_width="1"
   end_linecap_type="round" /><inkscape:path-effect
   effect="simplify"
   id="path-effect5796"
   is_visible="true"
   lpeversion="1"
   steps="1"
   threshold="0.6"
   smooth_angles="0"
   helper_size="0"
   simplify_individual_paths="false"
   simplify_just_coalesce="false"
   step="1" />



		
		
		
		
		
		
		
		
		
		
		
		
		
		
		

<clipPath
   id="clipPath2642">
	<path
   transform="translate(-663.45,-637.23)"
   id="path2640"
   d="M 470.49,358.51 A 11,11 0 0 1 480,352 h 4.5 a 18.85,18.85 0 0 1 11.62,4.62 18.91,18.91 0 0 0 11.63,4.62 h 1.17 c 3.85,0 9.05,1.75 11.54,3.88 2.49,2.13 4.54,7 4.54,10.88 v 18.33 c 0,1.68 3,4 6.69,5.09 l 11.6,3.58 a 32.27,32.27 0 0 0 13.55,0.59 l 5.3,-1.11 a 54.83,54.83 0 0 0 12.35,-4.48 31,31 0 0 1 12.5,-3 h 15 a 31,31 0 0 1 12.5,3 c 3,1.65 8.39,1.75 11.93,0.24 l 1.13,-0.49 a 24.44,24.44 0 0 1 13.23,-1.06 l 2.42,0.61 a 23.48,23.48 0 0 0 13.16,-1.2 l 13.25,-6 c 3.51,-1.59 8.4,-2.27 10.88,-1.5 2.48,0.77 7.32,0 10.76,-1.73 l 29.48,-14.74 A 35.14,35.14 0 0 1 734,369 h 82 a 23.37,23.37 0 0 1 12.48,4.35 l 1,0.79 c 3,2.4 8.09,6.12 11.28,8.28 l 2.44,1.65 a 22.87,22.87 0 0 1 7.8,10.43 20.67,20.67 0 0 1 -1,12.83 l -11,23.34 A 37.11,37.11 0 0 0 836,444 v 3 a 21.36,21.36 0 0 1 -4.65,12.23 l -6.7,7.53 a 28.62,28.62 0 0 0 -5.8,12.14 l -0.7,4.19 A 34.9,34.9 0 0 0 819,496.5 c 1.1,3.57 4.34,6.5 7.2,6.5 2.86,0 6,1.91 7,4.25 1,2.34 0.42,7.09 -1.25,10.56 l -0.9,1.88 A 36.59,36.59 0 0 0 828,533 v 135 c 0,2.2 -3.06,3.25 -6.8,2.33 l -31.4,-7.67 a 45,45 0 0 0 -13.75,-0.78 l -57.11,7.24 A 135.31,135.31 0 0 1 705,670 H 483 a 61.94,61.94 0 0 1 -13.75,-1.87 l -15.5,-4.27 a 34.11,34.11 0 0 1 -11.88,-6.63 l -3.74,-3.47 a 22.44,22.44 0 0 1 -6,-11.71 L 427.86,608 a 37.87,37.87 0 0 1 1.25,-13.61 l 18,-56.66 c 1.17,-3.67 3.38,-9.56 4.92,-13.09 l 8.62,-19.86 a 45.15,45.15 0 0 0 3.1,-13.41 l 1.38,-31 A 20.64,20.64 0 0 0 460.93,448 l -1.4,-1.64 a 13.25,13.25 0 0 1 -2.12,-11.9 l 2.16,-5.87 A 67.49,67.49 0 0 0 462.72,415 l 4.54,-43 a 63.2,63.2 0 0 1 3.23,-13.49 z"
   stroke-linecap="round" />
</clipPath>


<clipPath
   id="clipPath2666">
	<path
   transform="translate(-622.1,-566.22)"
   id="path2664"
   d="M 470.49,358.51 A 11,11 0 0 1 480,352 h 4.5 a 18.85,18.85 0 0 1 11.62,4.62 18.91,18.91 0 0 0 11.63,4.62 h 1.17 c 3.85,0 9.05,1.75 11.54,3.88 2.49,2.13 4.54,7 4.54,10.88 v 18.33 c 0,1.68 3,4 6.69,5.09 l 11.6,3.58 a 32.27,32.27 0 0 0 13.55,0.59 l 5.3,-1.11 a 54.83,54.83 0 0 0 12.35,-4.48 31,31 0 0 1 12.5,-3 h 15 a 31,31 0 0 1 12.5,3 c 3,1.65 8.39,1.75 11.93,0.24 l 1.13,-0.49 a 24.44,24.44 0 0 1 13.23,-1.06 l 2.42,0.61 a 23.48,23.48 0 0 0 13.16,-1.2 l 13.25,-6 c 3.51,-1.59 8.4,-2.27 10.88,-1.5 2.48,0.77 7.32,0 10.76,-1.73 l 29.48,-14.74 A 35.14,35.14 0 0 1 734,369 h 82 a 23.37,23.37 0 0 1 12.48,4.35 l 1,0.79 c 3,2.4 8.09,6.12 11.28,8.28 l 2.44,1.65 a 22.87,22.87 0 0 1 7.8,10.43 20.67,20.67 0 0 1 -1,12.83 l -11,23.34 A 37.11,37.11 0 0 0 836,444 v 3 a 21.36,21.36 0 0 1 -4.65,12.23 l -6.7,7.53 a 28.62,28.62 0 0 0 -5.8,12.14 l -0.7,4.19 A 34.9,34.9 0 0 0 819,496.5 c 1.1,3.57 4.34,6.5 7.2,6.5 2.86,0 6,1.91 7,4.25 1,2.34 0.42,7.09 -1.25,10.56 l -0.9,1.88 A 36.59,36.59 0 0 0 828,533 v 135 c 0,2.2 -3.06,3.25 -6.8,2.33 l -31.4,-7.67 a 45,45 0 0 0 -13.75,-0.78 l -57.11,7.24 A 135.31,135.31 0 0 1 705,670 H 483 a 61.94,61.94 0 0 1 -13.75,-1.87 l -15.5,-4.27 a 34.11,34.11 0 0 1 -11.88,-6.63 l -3.74,-3.47 a 22.44,22.44 0 0 1 -6,-11.71 L 427.86,608 a 37.87,37.87 0 0 1 1.25,-13.61 l 18,-56.66 c 1.17,-3.67 3.38,-9.56 4.92,-13.09 l 8.62,-19.86 a 45.15,45.15 0 0 0 3.1,-13.41 l 1.38,-31 A 20.64,20.64 0 0 0 460.93,448 l -1.4,-1.64 a 13.25,13.25 0 0 1 -2.12,-11.9 l 2.16,-5.87 A 67.49,67.49 0 0 0 462.72,415 l 4.54,-43 a 63.2,63.2 0 0 1 3.23,-13.49 z"
   stroke-linecap="round" />
</clipPath>










<clipPath
   id="clipPath2650">
	<path
   transform="translate(-713.46,-587.89)"
   id="path2648"
   d="M 470.49,358.51 A 11,11 0 0 1 480,352 h 4.5 a 18.85,18.85 0 0 1 11.62,4.62 18.91,18.91 0 0 0 11.63,4.62 h 1.17 c 3.85,0 9.05,1.75 11.54,3.88 2.49,2.13 4.54,7 4.54,10.88 v 18.33 c 0,1.68 3,4 6.69,5.09 l 11.6,3.58 a 32.27,32.27 0 0 0 13.55,0.59 l 5.3,-1.11 a 54.83,54.83 0 0 0 12.35,-4.48 31,31 0 0 1 12.5,-3 h 15 a 31,31 0 0 1 12.5,3 c 3,1.65 8.39,1.75 11.93,0.24 l 1.13,-0.49 a 24.44,24.44 0 0 1 13.23,-1.06 l 2.42,0.61 a 23.48,23.48 0 0 0 13.16,-1.2 l 13.25,-6 c 3.51,-1.59 8.4,-2.27 10.88,-1.5 2.48,0.77 7.32,0 10.76,-1.73 l 29.48,-14.74 A 35.14,35.14 0 0 1 734,369 h 82 a 23.37,23.37 0 0 1 12.48,4.35 l 1,0.79 c 3,2.4 8.09,6.12 11.28,8.28 l 2.44,1.65 a 22.87,22.87 0 0 1 7.8,10.43 20.67,20.67 0 0 1 -1,12.83 l -11,23.34 A 37.11,37.11 0 0 0 836,444 v 3 a 21.36,21.36 0 0 1 -4.65,12.23 l -6.7,7.53 a 28.62,28.62 0 0 0 -5.8,12.14 l -0.7,4.19 A 34.9,34.9 0 0 0 819,496.5 c 1.1,3.57 4.34,6.5 7.2,6.5 2.86,0 6,1.91 7,4.25 1,2.34 0.42,7.09 -1.25,10.56 l -0.9,1.88 A 36.59,36.59 0 0 0 828,533 v 135 c 0,2.2 -3.06,3.25 -6.8,2.33 l -31.4,-7.67 a 45,45 0 0 0 -13.75,-0.78 l -57.11,7.24 A 135.31,135.31 0 0 1 705,670 H 483 a 61.94,61.94 0 0 1 -13.75,-1.87 l -15.5,-4.27 a 34.11,34.11 0 0 1 -11.88,-6.63 l -3.74,-3.47 a 22.44,22.44 0 0 1 -6,-11.71 L 427.86,608 a 37.87,37.87 0 0 1 1.25,-13.61 l 18,-56.66 c 1.17,-3.67 3.38,-9.56 4.92,-13.09 l 8.62,-19.86 a 45.15,45.15 0 0 0 3.1,-13.41 l 1.38,-31 A 20.64,20.64 0 0 0 460.93,448 l -1.4,-1.64 a 13.25,13.25 0 0 1 -2.12,-11.9 l 2.16,-5.87 A 67.49,67.49 0 0 0 462.72,415 l 4.54,-43 a 63.2,63.2 0 0 1 3.23,-13.49 z"
   stroke-linecap="round" />
</clipPath>










<clipPath
   id="clipPath2658">
	<path
   transform="translate(-625.04,-730.28)"
   id="path2656"
   clip-path="url(#undefined)"
   d="M 470.49,358.51 A 11,11 0 0 1 480,352 h 4.5 a 18.85,18.85 0 0 1 11.62,4.62 18.91,18.91 0 0 0 11.63,4.62 h 1.17 c 3.85,0 9.05,1.75 11.54,3.88 2.49,2.13 4.54,7 4.54,10.88 v 18.33 c 0,1.68 3,4 6.69,5.09 l 11.6,3.58 a 32.27,32.27 0 0 0 13.55,0.59 l 5.3,-1.11 a 54.83,54.83 0 0 0 12.35,-4.48 31,31 0 0 1 12.5,-3 h 15 a 31,31 0 0 1 12.5,3 c 3,1.65 8.39,1.75 11.93,0.24 l 1.13,-0.49 a 24.44,24.44 0 0 1 13.23,-1.06 l 2.42,0.61 a 23.48,23.48 0 0 0 13.16,-1.2 l 13.25,-6 c 3.51,-1.59 8.4,-2.27 10.88,-1.5 2.48,0.77 7.32,0 10.76,-1.73 l 29.48,-14.74 A 35.14,35.14 0 0 1 734,369 h 82 a 23.37,23.37 0 0 1 12.48,4.35 l 1,0.79 c 3,2.4 8.09,6.12 11.28,8.28 l 2.44,1.65 a 22.87,22.87 0 0 1 7.8,10.43 20.67,20.67 0 0 1 -1,12.83 l -11,23.34 A 37.11,37.11 0 0 0 836,444 v 3 a 21.36,21.36 0 0 1 -4.65,12.23 l -6.7,7.53 a 28.62,28.62 0 0 0 -5.8,12.14 l -0.7,4.19 A 34.9,34.9 0 0 0 819,496.5 c 1.1,3.57 4.34,6.5 7.2,6.5 2.86,0 6,1.91 7,4.25 1,2.34 0.42,7.09 -1.25,10.56 l -0.9,1.88 A 36.59,36.59 0 0 0 828,533 v 135 c 0,2.2 -3.06,3.25 -6.8,2.33 l -31.4,-7.67 a 45,45 0 0 0 -13.75,-0.78 l -57.11,7.24 A 135.31,135.31 0 0 1 705,670 H 483 a 61.94,61.94 0 0 1 -13.75,-1.87 l -15.5,-4.27 a 34.11,34.11 0 0 1 -11.88,-6.63 l -3.74,-3.47 a 22.44,22.44 0 0 1 -6,-11.71 L 427.86,608 a 37.87,37.87 0 0 1 1.25,-13.61 l 18,-56.66 a 73.78,73.78 0 0 0 2.7,-13.65 l 1.58,-19 c 0.32,-3.83 0.72,-10.12 0.89,-14 l 1.38,-31 c 0.17,-3.85 0.53,-9.69 0.81,-13 a 57.81,57.81 0 0 1 2.92,-12.57 l 2.16,-5.87 A 67.49,67.49 0 0 0 462.72,415 l 4.54,-43 a 63.2,63.2 0 0 1 3.23,-13.49 z"
   stroke-linecap="round" />
</clipPath>












<clipPath
   id="clipPath3472">
	<path
   transform="translate(-625.04,-730.28)"
   id="path3470"
   clip-path="url(#undefined)"
   d="M 470.49,358.51 A 11,11 0 0 1 480,352 h 4.5 a 18.85,18.85 0 0 1 11.62,4.62 18.91,18.91 0 0 0 11.63,4.62 h 1.17 c 3.85,0 9.05,1.75 11.54,3.88 2.49,2.13 4.54,7 4.54,10.88 v 18.33 c 0,1.68 3,4 6.69,5.09 l 11.6,3.58 a 32.27,32.27 0 0 0 13.55,0.59 l 5.3,-1.11 a 54.83,54.83 0 0 0 12.35,-4.48 31,31 0 0 1 12.5,-3 h 15 a 31,31 0 0 1 12.5,3 c 3,1.65 8.39,1.75 11.93,0.24 l 1.13,-0.49 a 24.44,24.44 0 0 1 13.23,-1.06 l 2.42,0.61 a 23.48,23.48 0 0 0 13.16,-1.2 l 13.25,-6 c 3.51,-1.59 8.4,-2.27 10.88,-1.5 2.48,0.77 7.32,0 10.76,-1.73 l 29.48,-14.74 A 35.14,35.14 0 0 1 734,369 h 82 a 23.37,23.37 0 0 1 12.48,4.35 l 1,0.79 c 3,2.4 8.09,6.12 11.28,8.28 l 2.44,1.65 a 22.87,22.87 0 0 1 7.8,10.43 20.67,20.67 0 0 1 -1,12.83 l -11,23.34 A 37.11,37.11 0 0 0 836,444 v 3 a 21.36,21.36 0 0 1 -4.65,12.23 l -6.7,7.53 a 28.62,28.62 0 0 0 -5.8,12.14 l -0.7,4.19 A 34.9,34.9 0 0 0 819,496.5 c 1.1,3.57 4.34,6.5 7.2,6.5 2.86,0 6,1.91 7,4.25 1,2.34 0.42,7.09 -1.25,10.56 l -0.9,1.88 A 36.59,36.59 0 0 0 828,533 v 135 c 0,2.2 -3.06,3.25 -6.8,2.33 l -31.4,-7.67 a 45,45 0 0 0 -13.75,-0.78 l -57.11,7.24 A 135.31,135.31 0 0 1 705,670 H 483 a 61.94,61.94 0 0 1 -13.75,-1.87 l -15.5,-4.27 a 34.11,34.11 0 0 1 -11.88,-6.63 l -3.74,-3.47 a 22.44,22.44 0 0 1 -6,-11.71 L 427.86,608 a 37.87,37.87 0 0 1 1.25,-13.61 l 18,-56.66 a 73.78,73.78 0 0 0 2.7,-13.65 l 1.58,-19 c 0.32,-3.83 0.72,-10.12 0.89,-14 l 1.38,-31 c 0.17,-3.85 0.53,-9.69 0.81,-13 a 57.81,57.81 0 0 1 2.92,-12.57 l 2.16,-5.87 A 67.49,67.49 0 0 0 462.72,415 l 4.54,-43 a 63.2,63.2 0 0 1 3.23,-13.49 z"
   stroke-linecap="round" />
</clipPath>


<clipPath
   id="clipPath7066">
	<path
   transform="translate(-625.04,-730.28)"
   id="path7064"
   clip-path="url(#undefined)"
   d="M 470.49,358.51 A 11,11 0 0 1 480,352 h 4.5 a 18.85,18.85 0 0 1 11.62,4.62 18.91,18.91 0 0 0 11.63,4.62 h 1.17 c 3.85,0 9.05,1.75 11.54,3.88 2.49,2.13 4.54,7 4.54,10.88 v 18.33 c 0,1.68 3,4 6.69,5.09 l 11.6,3.58 a 32.27,32.27 0 0 0 13.55,0.59 l 5.3,-1.11 a 54.83,54.83 0 0 0 12.35,-4.48 31,31 0 0 1 12.5,-3 h 15 a 31,31 0 0 1 12.5,3 c 3,1.65 8.39,1.75 11.93,0.24 l 1.13,-0.49 a 24.44,24.44 0 0 1 13.23,-1.06 l 2.42,0.61 a 23.48,23.48 0 0 0 13.16,-1.2 l 13.25,-6 c 3.51,-1.59 8.4,-2.27 10.88,-1.5 2.48,0.77 7.32,0 10.76,-1.73 l 29.48,-14.74 A 35.14,35.14 0 0 1 734,369 h 82 a 23.37,23.37 0 0 1 12.48,4.35 l 1,0.79 c 3,2.4 8.09,6.12 11.28,8.28 l 2.44,1.65 a 22.87,22.87 0 0 1 7.8,10.43 20.67,20.67 0 0 1 -1,12.83 l -11,23.34 A 37.11,37.11 0 0 0 836,444 v 3 a 21.36,21.36 0 0 1 -4.65,12.23 l -6.7,7.53 a 28.62,28.62 0 0 0 -5.8,12.14 l -0.7,4.19 A 34.9,34.9 0 0 0 819,496.5 c 1.1,3.57 4.34,6.5 7.2,6.5 2.86,0 6,1.91 7,4.25 1,2.34 0.42,7.09 -1.25,10.56 l -0.9,1.88 A 36.59,36.59 0 0 0 828,533 v 135 c 0,2.2 -3.06,3.25 -6.8,2.33 l -31.4,-7.67 a 45,45 0 0 0 -13.75,-0.78 l -57.11,7.24 A 135.31,135.31 0 0 1 705,670 H 483 a 61.94,61.94 0 0 1 -13.75,-1.87 l -15.5,-4.27 a 34.11,34.11 0 0 1 -11.88,-6.63 l -3.74,-3.47 a 22.44,22.44 0 0 1 -6,-11.71 L 427.86,608 a 37.87,37.87 0 0 1 1.25,-13.61 l 18,-56.66 a 73.78,73.78 0 0 0 2.7,-13.65 l 1.58,-19 c 0.32,-3.83 0.72,-10.12 0.89,-14 l 1.38,-31 c 0.17,-3.85 0.53,-9.69 0.81,-13 a 57.81,57.81 0 0 1 2.92,-12.57 l 2.16,-5.87 A 67.49,67.49 0 0 0 462.72,415 l 4.54,-43 a 63.2,63.2 0 0 1 3.23,-13.49 z"
   stroke-linecap="round" />
</clipPath>



</defs>

<g
   inkscape:groupmode="layer"
   id="layer4"
   inkscape:label="tmp"
   style="display:none"><g
     transform="matrix(0.24768432,0,0,0.24768432,132.64381,42.088812)"
     id="Layer_1">
<polygon
   style="opacity:1;fill:#94d2ba;fill-rule:nonzero;stroke:none;stroke-width:1;stroke-linecap:butt;stroke-linejoin:miter;stroke-miterlimit:4;stroke-dasharray:none;stroke-dashoffset:0"
   points="-204.21,135.15 -210.12,87.8 -188.16,18.74 -185.46,-13.81 -183.49,-58.2 -182.5,-70.04 -175.6,-88.78 -169.68,-145.01 -164.75,-157.84 -146.5,-157.84 -137.37,-148.71 -122.4,-148.71 -113.45,-141.07 -113.45,-119.09 -113.45,-113.06 -88.79,-105.55 -70.04,-109.5 -59.19,-115.42 -30.59,-115.42 -19.73,-109.5 -5.92,-115.42 9.86,-111.47 35.51,-123.1 44.39,-120.35 85.82,-141.07 180.52,-141.07 192.32,-131.7 206.17,-122.32 210.12,-109.5 193.35,-73.99 193.35,-57.22 177.56,-39.46 174.6,-21.7 178.55,-8.88 188.81,-8.88 192.32,-0.49 185.45,13.81 185.45,149.94 185.45,157.84 141.06,146.99 71.02,155.86 -161.79,155.86 -190.4,147.97 "
   id="polygon149" />
</g><g
     transform="matrix(0.24768432,0,0,0.24768432,138.45448,73.106319)"
     id="g156"
     clip-path="url(#CLIPPATH_6)">
<clipPath
   id="CLIPPATH_6">
	<path
   transform="translate(-663.45,-637.23)"
   id="clip-path"
   d="M 470.49,358.51 A 11,11 0 0 1 480,352 h 4.5 a 18.85,18.85 0 0 1 11.62,4.62 18.91,18.91 0 0 0 11.63,4.62 h 1.17 c 3.85,0 9.05,1.75 11.54,3.88 2.49,2.13 4.54,7 4.54,10.88 v 18.33 c 0,1.68 3,4 6.69,5.09 l 11.6,3.58 a 32.27,32.27 0 0 0 13.55,0.59 l 5.3,-1.11 a 54.83,54.83 0 0 0 12.35,-4.48 31,31 0 0 1 12.5,-3 h 15 a 31,31 0 0 1 12.5,3 c 3,1.65 8.39,1.75 11.93,0.24 l 1.13,-0.49 a 24.44,24.44 0 0 1 13.23,-1.06 l 2.42,0.61 a 23.48,23.48 0 0 0 13.16,-1.2 l 13.25,-6 c 3.51,-1.59 8.4,-2.27 10.88,-1.5 2.48,0.77 7.32,0 10.76,-1.73 l 29.48,-14.74 A 35.14,35.14 0 0 1 734,369 h 82 a 23.37,23.37 0 0 1 12.48,4.35 l 1,0.79 c 3,2.4 8.09,6.12 11.28,8.28 l 2.44,1.65 a 22.87,22.87 0 0 1 7.8,10.43 20.67,20.67 0 0 1 -1,12.83 l -11,23.34 A 37.11,37.11 0 0 0 836,444 v 3 a 21.36,21.36 0 0 1 -4.65,12.23 l -6.7,7.53 a 28.62,28.62 0 0 0 -5.8,12.14 l -0.7,4.19 A 34.9,34.9 0 0 0 819,496.5 c 1.1,3.57 4.34,6.5 7.2,6.5 2.86,0 6,1.91 7,4.25 1,2.34 0.42,7.09 -1.25,10.56 l -0.9,1.88 A 36.59,36.59 0 0 0 828,533 v 135 c 0,2.2 -3.06,3.25 -6.8,2.33 l -31.4,-7.67 a 45,45 0 0 0 -13.75,-0.78 l -57.11,7.24 A 135.31,135.31 0 0 1 705,670 H 483 a 61.94,61.94 0 0 1 -13.75,-1.87 l -15.5,-4.27 a 34.11,34.11 0 0 1 -11.88,-6.63 l -3.74,-3.47 a 22.44,22.44 0 0 1 -6,-11.71 L 427.86,608 a 37.87,37.87 0 0 1 1.25,-13.61 l 18,-56.66 c 1.17,-3.67 3.38,-9.56 4.92,-13.09 l 8.62,-19.86 a 45.15,45.15 0 0 0 3.1,-13.41 l 1.38,-31 A 20.64,20.64 0 0 0 460.93,448 l -1.4,-1.64 a 13.25,13.25 0 0 1 -2.12,-11.9 l 2.16,-5.87 A 67.49,67.49 0 0 0 462.72,415 l 4.54,-43 a 63.2,63.2 0 0 1 3.23,-13.49 z"
   stroke-linecap="round" />
</clipPath>
<path
   style="opacity:1;fill:none;fill-rule:nonzero;stroke:#ffffff;stroke-width:5;stroke-linecap:round;stroke-linejoin:round;stroke-miterlimit:4;stroke-dasharray:24, 24;stroke-dashoffset:0"
   d="M 663.45,637.23"
   stroke-linecap="round"
   id="path154"
   transform="translate(-663.45,-637.23)" />
</g><g
     transform="matrix(0.24768432,0,0,0.24768432,150.8387,60.885575)"
     id="g163"
     clip-path="url(#CLIPPATH_7)">
<clipPath
   id="CLIPPATH_7">
	<path
   transform="translate(-713.46,-587.89)"
   id="path158"
   d="M 470.49,358.51 A 11,11 0 0 1 480,352 h 4.5 a 18.85,18.85 0 0 1 11.62,4.62 18.91,18.91 0 0 0 11.63,4.62 h 1.17 c 3.85,0 9.05,1.75 11.54,3.88 2.49,2.13 4.54,7 4.54,10.88 v 18.33 c 0,1.68 3,4 6.69,5.09 l 11.6,3.58 a 32.27,32.27 0 0 0 13.55,0.59 l 5.3,-1.11 a 54.83,54.83 0 0 0 12.35,-4.48 31,31 0 0 1 12.5,-3 h 15 a 31,31 0 0 1 12.5,3 c 3,1.65 8.39,1.75 11.93,0.24 l 1.13,-0.49 a 24.44,24.44 0 0 1 13.23,-1.06 l 2.42,0.61 a 23.48,23.48 0 0 0 13.16,-1.2 l 13.25,-6 c 3.51,-1.59 8.4,-2.27 10.88,-1.5 2.48,0.77 7.32,0 10.76,-1.73 l 29.48,-14.74 A 35.14,35.14 0 0 1 734,369 h 82 a 23.37,23.37 0 0 1 12.48,4.35 l 1,0.79 c 3,2.4 8.09,6.12 11.28,8.28 l 2.44,1.65 a 22.87,22.87 0 0 1 7.8,10.43 20.67,20.67 0 0 1 -1,12.83 l -11,23.34 A 37.11,37.11 0 0 0 836,444 v 3 a 21.36,21.36 0 0 1 -4.65,12.23 l -6.7,7.53 a 28.62,28.62 0 0 0 -5.8,12.14 l -0.7,4.19 A 34.9,34.9 0 0 0 819,496.5 c 1.1,3.57 4.34,6.5 7.2,6.5 2.86,0 6,1.91 7,4.25 1,2.34 0.42,7.09 -1.25,10.56 l -0.9,1.88 A 36.59,36.59 0 0 0 828,533 v 135 c 0,2.2 -3.06,3.25 -6.8,2.33 l -31.4,-7.67 a 45,45 0 0 0 -13.75,-0.78 l -57.11,7.24 A 135.31,135.31 0 0 1 705,670 H 483 a 61.94,61.94 0 0 1 -13.75,-1.87 l -15.5,-4.27 a 34.11,34.11 0 0 1 -11.88,-6.63 l -3.74,-3.47 a 22.44,22.44 0 0 1 -6,-11.71 L 427.86,608 a 37.87,37.87 0 0 1 1.25,-13.61 l 18,-56.66 c 1.17,-3.67 3.38,-9.56 4.92,-13.09 l 8.62,-19.86 a 45.15,45.15 0 0 0 3.1,-13.41 l 1.38,-31 A 20.64,20.64 0 0 0 460.93,448 l -1.4,-1.64 a 13.25,13.25 0 0 1 -2.12,-11.9 l 2.16,-5.87 A 67.49,67.49 0 0 0 462.72,415 l 4.54,-43 a 63.2,63.2 0 0 1 3.23,-13.49 z"
   stroke-linecap="round" />
</clipPath>
<path
   style="opacity:1;fill:none;fill-rule:nonzero;stroke:#ffffff;stroke-width:5;stroke-linecap:round;stroke-linejoin:round;stroke-miterlimit:4;stroke-dasharray:24, 24;stroke-dashoffset:0"
   d="M 630.84,655 C 734.19,611.69 807.5,551.6 794.59,520.79"
   stroke-linecap="round"
   id="path161"
   transform="translate(-713.45,-587.89)" />
</g><g
     transform="matrix(0.24768432,0,0,0.24768432,128.94093,96.150869)"
     id="g169"
     clip-path="url(#CLIPPATH_8)">
<clipPath
   id="CLIPPATH_8">
	<path
   transform="translate(-625.04,-730.28)"
   id="clip-path-3"
   clip-path="url(#undefined)"
   d="M 470.49,358.51 A 11,11 0 0 1 480,352 h 4.5 a 18.85,18.85 0 0 1 11.62,4.62 18.91,18.91 0 0 0 11.63,4.62 h 1.17 c 3.85,0 9.05,1.75 11.54,3.88 2.49,2.13 4.54,7 4.54,10.88 v 18.33 c 0,1.68 3,4 6.69,5.09 l 11.6,3.58 a 32.27,32.27 0 0 0 13.55,0.59 l 5.3,-1.11 a 54.83,54.83 0 0 0 12.35,-4.48 31,31 0 0 1 12.5,-3 h 15 a 31,31 0 0 1 12.5,3 c 3,1.65 8.39,1.75 11.93,0.24 l 1.13,-0.49 a 24.44,24.44 0 0 1 13.23,-1.06 l 2.42,0.61 a 23.48,23.48 0 0 0 13.16,-1.2 l 13.25,-6 c 3.51,-1.59 8.4,-2.27 10.88,-1.5 2.48,0.77 7.32,0 10.76,-1.73 l 29.48,-14.74 A 35.14,35.14 0 0 1 734,369 h 82 a 23.37,23.37 0 0 1 12.48,4.35 l 1,0.79 c 3,2.4 8.09,6.12 11.28,8.28 l 2.44,1.65 a 22.87,22.87 0 0 1 7.8,10.43 20.67,20.67 0 0 1 -1,12.83 l -11,23.34 A 37.11,37.11 0 0 0 836,444 v 3 a 21.36,21.36 0 0 1 -4.65,12.23 l -6.7,7.53 a 28.62,28.62 0 0 0 -5.8,12.14 l -0.7,4.19 A 34.9,34.9 0 0 0 819,496.5 c 1.1,3.57 4.34,6.5 7.2,6.5 2.86,0 6,1.91 7,4.25 1,2.34 0.42,7.09 -1.25,10.56 l -0.9,1.88 A 36.59,36.59 0 0 0 828,533 v 135 c 0,2.2 -3.06,3.25 -6.8,2.33 l -31.4,-7.67 a 45,45 0 0 0 -13.75,-0.78 l -57.11,7.24 A 135.31,135.31 0 0 1 705,670 H 483 a 61.94,61.94 0 0 1 -13.75,-1.87 l -15.5,-4.27 a 34.11,34.11 0 0 1 -11.88,-6.63 l -3.74,-3.47 a 22.44,22.44 0 0 1 -6,-11.71 L 427.86,608 a 37.87,37.87 0 0 1 1.25,-13.61 l 18,-56.66 a 73.78,73.78 0 0 0 2.7,-13.65 l 1.58,-19 c 0.32,-3.83 0.72,-10.12 0.89,-14 l 1.38,-31 c 0.17,-3.85 0.53,-9.69 0.81,-13 a 57.81,57.81 0 0 1 2.92,-12.57 l 2.16,-5.87 A 67.49,67.49 0 0 0 462.72,415 l 4.54,-43 a 63.2,63.2 0 0 1 3.23,-13.49 z"
   stroke-linecap="round" />
</clipPath>
<ellipse
   style="opacity:1;fill:#265b55;fill-rule:nonzero;stroke:none;stroke-width:1;stroke-linecap:butt;stroke-linejoin:miter;stroke-miterlimit:4;stroke-dasharray:none;stroke-dashoffset:0"
   cx="0"
   cy="0"
   rx="285"
   ry="212"
   id="ellipse167" />
</g><g
     transform="matrix(0.24768432,0,0,0.24768432,80.65982,87.469533)"
     id="g176"
     clip-path="url(#CLIPPATH_9)">
<clipPath
   id="CLIPPATH_9">
	<path
   transform="translate(-430.11,-695.22)"
   id="path171"
   d="M 470.49,358.51 A 11,11 0 0 1 480,352 h 4.5 a 18.85,18.85 0 0 1 11.62,4.62 18.91,18.91 0 0 0 11.63,4.62 h 1.17 c 3.85,0 9.05,1.75 11.54,3.88 2.49,2.13 4.54,7 4.54,10.88 v 18.33 c 0,1.68 3,4 6.69,5.09 l 11.6,3.58 a 32.27,32.27 0 0 0 13.55,0.59 l 5.3,-1.11 a 54.83,54.83 0 0 0 12.35,-4.48 31,31 0 0 1 12.5,-3 h 15 a 31,31 0 0 1 12.5,3 c 3,1.65 8.39,1.75 11.93,0.24 l 1.13,-0.49 a 24.44,24.44 0 0 1 13.23,-1.06 l 2.42,0.61 a 23.48,23.48 0 0 0 13.16,-1.2 l 13.25,-6 c 3.51,-1.59 8.4,-2.27 10.88,-1.5 2.48,0.77 7.32,0 10.76,-1.73 l 29.48,-14.74 A 35.14,35.14 0 0 1 734,369 h 82 a 23.37,23.37 0 0 1 12.48,4.35 l 1,0.79 c 3,2.4 8.09,6.12 11.28,8.28 l 2.44,1.65 a 22.87,22.87 0 0 1 7.8,10.43 20.67,20.67 0 0 1 -1,12.83 l -11,23.34 A 37.11,37.11 0 0 0 836,444 v 3 a 21.36,21.36 0 0 1 -4.65,12.23 l -6.7,7.53 a 28.62,28.62 0 0 0 -5.8,12.14 l -0.7,4.19 A 34.9,34.9 0 0 0 819,496.5 c 1.1,3.57 4.34,6.5 7.2,6.5 2.86,0 6,1.91 7,4.25 1,2.34 0.42,7.09 -1.25,10.56 l -0.9,1.88 A 36.59,36.59 0 0 0 828,533 v 135 c 0,2.2 -3.06,3.25 -6.8,2.33 l -31.4,-7.67 a 45,45 0 0 0 -13.75,-0.78 l -57.11,7.24 A 135.31,135.31 0 0 1 705,670 H 483 a 61.94,61.94 0 0 1 -13.75,-1.87 l -15.5,-4.27 a 34.11,34.11 0 0 1 -11.88,-6.63 l -3.74,-3.47 a 22.44,22.44 0 0 1 -6,-11.71 L 427.86,608 a 37.87,37.87 0 0 1 1.25,-13.61 l 18,-56.66 c 1.17,-3.67 3.38,-9.56 4.92,-13.09 l 8.62,-19.86 a 45.15,45.15 0 0 0 3.1,-13.41 l 1.38,-31 A 20.64,20.64 0 0 0 460.93,448 l -1.4,-1.64 a 13.25,13.25 0 0 1 -2.12,-11.9 l 2.16,-5.87 A 67.49,67.49 0 0 0 462.72,415 l 4.54,-43 a 63.2,63.2 0 0 1 3.23,-13.49 z"
   stroke-linecap="round" />
</clipPath>
<path
   style="opacity:1;fill:none;fill-rule:nonzero;stroke:#ffffff;stroke-width:5;stroke-linecap:round;stroke-linejoin:round;stroke-miterlimit:4;stroke-dasharray:24, 24;stroke-dashoffset:0"
   d="M 430.11,695.22"
   stroke-linecap="round"
   id="path174"
   transform="translate(-430.11,-695.22)" />
</g><g
     transform="matrix(0.24768432,0,0,0.24768432,128.21273,55.515779)"
     id="g183"
     clip-path="url(#CLIPPATH_10)">
<clipPath
   id="CLIPPATH_10">
	<path
   transform="translate(-622.1,-566.22)"
   id="path178"
   d="M 470.49,358.51 A 11,11 0 0 1 480,352 h 4.5 a 18.85,18.85 0 0 1 11.62,4.62 18.91,18.91 0 0 0 11.63,4.62 h 1.17 c 3.85,0 9.05,1.75 11.54,3.88 2.49,2.13 4.54,7 4.54,10.88 v 18.33 c 0,1.68 3,4 6.69,5.09 l 11.6,3.58 a 32.27,32.27 0 0 0 13.55,0.59 l 5.3,-1.11 a 54.83,54.83 0 0 0 12.35,-4.48 31,31 0 0 1 12.5,-3 h 15 a 31,31 0 0 1 12.5,3 c 3,1.65 8.39,1.75 11.93,0.24 l 1.13,-0.49 a 24.44,24.44 0 0 1 13.23,-1.06 l 2.42,0.61 a 23.48,23.48 0 0 0 13.16,-1.2 l 13.25,-6 c 3.51,-1.59 8.4,-2.27 10.88,-1.5 2.48,0.77 7.32,0 10.76,-1.73 l 29.48,-14.74 A 35.14,35.14 0 0 1 734,369 h 82 a 23.37,23.37 0 0 1 12.48,4.35 l 1,0.79 c 3,2.4 8.09,6.12 11.28,8.28 l 2.44,1.65 a 22.87,22.87 0 0 1 7.8,10.43 20.67,20.67 0 0 1 -1,12.83 l -11,23.34 A 37.11,37.11 0 0 0 836,444 v 3 a 21.36,21.36 0 0 1 -4.65,12.23 l -6.7,7.53 a 28.62,28.62 0 0 0 -5.8,12.14 l -0.7,4.19 A 34.9,34.9 0 0 0 819,496.5 c 1.1,3.57 4.34,6.5 7.2,6.5 2.86,0 6,1.91 7,4.25 1,2.34 0.42,7.09 -1.25,10.56 l -0.9,1.88 A 36.59,36.59 0 0 0 828,533 v 135 c 0,2.2 -3.06,3.25 -6.8,2.33 l -31.4,-7.67 a 45,45 0 0 0 -13.75,-0.78 l -57.11,7.24 A 135.31,135.31 0 0 1 705,670 H 483 a 61.94,61.94 0 0 1 -13.75,-1.87 l -15.5,-4.27 a 34.11,34.11 0 0 1 -11.88,-6.63 l -3.74,-3.47 a 22.44,22.44 0 0 1 -6,-11.71 L 427.86,608 a 37.87,37.87 0 0 1 1.25,-13.61 l 18,-56.66 c 1.17,-3.67 3.38,-9.56 4.92,-13.09 l 8.62,-19.86 a 45.15,45.15 0 0 0 3.1,-13.41 l 1.38,-31 A 20.64,20.64 0 0 0 460.93,448 l -1.4,-1.64 a 13.25,13.25 0 0 1 -2.12,-11.9 l 2.16,-5.87 A 67.49,67.49 0 0 0 462.72,415 l 4.54,-43 a 63.2,63.2 0 0 1 3.23,-13.49 z"
   stroke-linecap="round" />
</clipPath>
<path
   style="opacity:1;fill:none;fill-rule:nonzero;stroke:#ffffff;stroke-width:5;stroke-linecap:round;stroke-linejoin:round;stroke-miterlimit:4;stroke-dasharray:24, 24;stroke-dashoffset:0"
   d="m 790.05,507.87 c -15.43,-29.64 -108.51,-11.73 -207.9,40 -55.43,28.85 -101.11,62.12 -128,91"
   stroke-linecap="round"
   id="path181"
   transform="translate(-622.1,-566.22)" />
</g><g
     transform="matrix(0.24768432,0,0,0.24768432,132.5695,41.940201)"
     id="g187">
<path
   style="opacity:1;fill:none;fill-rule:nonzero;stroke:#255b55;stroke-width:20;stroke-linecap:butt;stroke-linejoin:miter;stroke-miterlimit:10;stroke-dasharray:none;stroke-dashoffset:0"
   d="M 470.83,357.61 A 9.44,9.44 0 0 1 479,352 h 6.5 a 16.7,16.7 0 0 1 10.24,4.24 l 0.77,0.76 a 16.64,16.64 0 0 0 10.24,4.24 h 3.17 a 18.88,18.88 0 0 1 10.54,3.88 14.8,14.8 0 0 1 4.54,9.88 v 19.33 c 0,1.68 2.58,3.84 5.74,4.8 l 13.52,4.12 a 27.73,27.73 0 0 0 11.61,0.51 l 7.26,-1.53 a 49.21,49.21 0 0 0 11.14,-4.11 l 0.46,-0.25 A 28,28 0 0 1 586,395 h 17 a 28,28 0 0 1 11.27,2.87 l 0.46,0.25 a 14,14 0 0 0 10.78,0.51 l 3,-1.27 a 20.88,20.88 0 0 1 11.34,-0.91 l 4.36,1.09 a 20.12,20.12 0 0 0 11.28,-1 l 15.07,-6.84 c 3,-1.36 7.49,-1.85 10,-1.08 2.51,0.77 6.91,0.19 9.86,-1.29 L 721.69,371.7 A 30.19,30.19 0 0 1 733,369 h 84 a 20.05,20.05 0 0 1 10.7,3.73 l 2.56,2 c 2.59,2.06 6.94,5.25 9.67,7.1 l 4.1,2.77 a 19.93,19.93 0 0 1 6.73,9.1 l 0.47,1.53 a 17.93,17.93 0 0 1 -0.79,11.16 l -11.88,25.15 A 31.9,31.9 0 0 0 836,443 v 5 a 18.34,18.34 0 0 1 -4,10.48 l -8,9 a 24.61,24.61 0 0 0 -5,10.4 l -1,6.17 a 30.31,30.31 0 0 0 0.78,11.65 l 0.47,1.53 c 1,3.16 4.11,5.74 7,5.74 2.89,0 6,1.91 7,4.25 1,2.34 0.61,6.68 -0.81,9.65 l -1.77,3.69 A 31.38,31.38 0 0 0 828,532 v 136 c 0,2.2 -2.62,3.35 -5.83,2.57 l -33.34,-8.15 a 39.17,39.17 0 0 0 -11.78,-0.67 l -59.1,7.49 a 113.59,113.59 0 0 1 -12,0.76 H 482 a 53.38,53.38 0 0 1 -11.79,-1.6 l -17.43,-4.81 a 29.21,29.21 0 0 1 -10.18,-5.68 l -5.2,-4.83 a 19.21,19.21 0 0 1 -5.15,-10 L 427.73,607 a 32.58,32.58 0 0 1 1.08,-11.67 l 18.63,-58.57 c 1,-3.14 2.89,-8.19 4.21,-11.22 l 9.42,-21.68 a 39,39 0 0 0 2.66,-11.5 l 1.47,-33 a 93.62,93.62 0 0 0 -0.4,-12 L 462.65,428 a 67,67 0 0 1 0,-11.93 L 467.36,371 a 55.35,55.35 0 0 1 2.78,-11.56 z"
   stroke-linecap="round"
   id="path185"
   transform="translate(-639.69,-511.41)" />
</g><g
     transform="matrix(0.24768432,0,0,0.24768432,132.80232,42.343926)"
     id="g191">
<path
   style="opacity:1;fill:#ffffff;fill-rule:nonzero;stroke:none;stroke-width:1;stroke-linecap:butt;stroke-linejoin:miter;stroke-miterlimit:4;stroke-dasharray:none;stroke-dashoffset:0"
   d="m 593.75,568.6 a 4.35,4.35 0 0 1 -3.89,-2.86 l -20.07,-64.48 a 4.77,4.77 0 0 1 1.45,-4.75 l 46.5,-37.3 a 9.6,9.6 0 0 1 5.34,-1.81 l 61.67,1.28 a 4.69,4.69 0 0 1 4,2.9 l 22.69,64.22 a 4.25,4.25 0 0 1 -1.43,4.58 l -50.5,36.55 a 10.75,10.75 0 0 1 -5.43,1.75 z"
   stroke-linecap="round"
   id="path189"
   transform="translate(-640.63,-513.04)" />
</g><g
     transform="matrix(0.23530011,-0.07925898,0.07925898,0.23530011,130.73168,37.11531)"
     id="g195">
<rect
   style="opacity:1;fill:#ffffff;fill-rule:nonzero;stroke:none;stroke-width:1;stroke-linecap:butt;stroke-linejoin:miter;stroke-miterlimit:4;stroke-dasharray:none;stroke-dashoffset:0"
   x="-4.1950002"
   y="-47.535"
   rx="3"
   ry="3"
   width="8.3900003"
   height="95.07"
   id="rect193" />
</g><g
     transform="matrix(0.24768432,0,0,0.24768432,129.89451,34.081177)"
     id="g199">
<path
   style="opacity:1;fill:#549d88;fill-rule:nonzero;stroke:none;stroke-width:1;stroke-linecap:butt;stroke-linejoin:miter;stroke-miterlimit:4;stroke-dasharray:none;stroke-dashoffset:0"
   d="m 631.39,461.7 a 26.28,26.28 0 0 0 -14.33,4.7 l -34.23,26.43 c -3.49,2.69 -2.74,4.86 1.66,4.82 l 42.83,-0.34 a 28.63,28.63 0 0 0 14.41,-4.86 l 33.17,-24.77 c 3.53,-2.63 2.81,-4.87 -1.59,-5 z"
   stroke-linecap="round"
   id="path197"
   transform="translate(-628.89,-479.68)" />
</g><g
     transform="matrix(0.24768432,0,0,0.24768432,140.66878,42.856633)"
     id="g203">
<path
   style="opacity:1;fill:#549d88;fill-rule:nonzero;stroke:none;stroke-width:1;stroke-linecap:butt;stroke-linejoin:miter;stroke-miterlimit:4;stroke-dasharray:none;stroke-dashoffset:0"
   d="m 688.07,477.6 c -1.44,-4.16 -5.55,-5.48 -9.14,-2.93 L 646,498.07 a 11.35,11.35 0 0 0 -3.91,12.2 l 14.66,42.34 c 1.44,4.16 5.55,5.48 9.13,2.93 l 32.91,-23.41 a 11.35,11.35 0 0 0 3.9,-12.19 z"
   stroke-linecap="round"
   id="path201"
   transform="translate(-672.39,-515.11)" />
</g><g
     transform="matrix(0.24768432,0,0,0.24768432,126.30556,47.562635)"
     id="g207">
<path
   style="opacity:1;fill:#549d88;fill-rule:nonzero;stroke:none;stroke-width:1;stroke-linecap:butt;stroke-linejoin:miter;stroke-miterlimit:4;stroke-dasharray:none;stroke-dashoffset:0"
   d="m 649.4,554.79 c 1.34,4.19 -1.17,7.71 -5.57,7.81 l -40.36,0.94 A 11.35,11.35 0 0 1 593,556.11 l -13.6,-42.69 c -1.33,-4.2 1.17,-7.71 5.57,-7.81 l 40.37,-0.95 a 11.35,11.35 0 0 1 10.42,7.44 z"
   stroke-linecap="round"
   id="path205"
   transform="translate(-614.4,-534.1)" />
</g><g
     transform="matrix(0.23530011,-0.07925898,0.07925898,0.23530011,133.89709,46.643726)"
     id="g211">
<rect
   style="opacity:1;fill:#ffffff;fill-rule:nonzero;stroke:none;stroke-width:1;stroke-linecap:butt;stroke-linejoin:miter;stroke-miterlimit:4;stroke-dasharray:none;stroke-dashoffset:0"
   x="-4.1950002"
   y="-47.535"
   rx="3"
   ry="3"
   width="8.3900003"
   height="95.07"
   id="rect209" />
</g><g
     transform="matrix(0.23530011,-0.07925898,0.07925898,0.23530011,118.34747,47.06479)"
     id="g215">
<rect
   style="opacity:1;fill:#ffffff;fill-rule:nonzero;stroke:none;stroke-width:1;stroke-linecap:butt;stroke-linejoin:miter;stroke-miterlimit:4;stroke-dasharray:none;stroke-dashoffset:0"
   x="-4.1950002"
   y="-47.535"
   rx="3"
   ry="3"
   width="8.3900003"
   height="95.07"
   id="rect213" />
</g><g
     transform="matrix(0.23530011,-0.07925898,0.07925898,0.23530011,146.93767,37.568573)"
     id="g219">
<rect
   style="opacity:1;fill:#ffffff;fill-rule:nonzero;stroke:none;stroke-width:1;stroke-linecap:butt;stroke-linejoin:miter;stroke-miterlimit:4;stroke-dasharray:none;stroke-dashoffset:0"
   x="-4.1950002"
   y="-47.535"
   rx="3"
   ry="3"
   width="8.3900003"
   height="95.07"
   id="rect217" />
</g></g><g
   inkscape:groupmode="layer"
   id="layer7"
   inkscape:label="F.Mask"
   style="display:inline"><path
     id="ellipse3474"
     style="display:inline;fill:#c87137;fill-rule:nonzero;stroke:none;stroke-width:0.247684;stroke-linecap:butt;stroke-linejoin:miter;stroke-miterlimit:4;stroke-dasharray:none;stroke-dashoffset:0"
     d="M 128.94141 43.642578 A 70.590032 52.509076 0 0 0 118.51953 44.3125 L 121.83789 54.164062 A 2.8112171 2.8112171 0 0 0 123.59766 54.853516 L 133.59375 54.621094 C 134.44329 54.601786 135.00175 54.065772 135.05273 53.339844 L 131.82227 43.748047 A 70.590032 52.509076 0 0 0 128.94141 43.642578 z M 134.05078 43.837891 L 136.97461 52.519531 C 137.42486 53.244058 138.28905 53.417841 139.05664 52.871094 L 147.20703 47.072266 A 2.8112171 2.8112171 0 0 0 148.16602 45.673828 A 70.590032 52.509076 0 0 0 134.05078 43.837891 z M 116.40625 44.564453 A 70.590032 52.509076 0 0 0 82.167969 56.972656 L 80.337891 62.726562 A 8.0695552 8.0695552 0 0 0 80.070312 65.617188 L 81.189453 74.552734 A 4.7580158 4.7580158 0 0 0 82.464844 77.029297 L 83.753906 78.226562 A 7.234859 7.234859 0 0 0 86.275391 79.632812 L 90.591797 80.824219 A 13.221389 13.221389 0 0 0 93.511719 81.220703 L 148.98047 81.220703 A 28.134462 28.134462 0 0 0 151.95312 81.033203 L 166.5918 79.177734 A 9.7017949 9.7017949 0 0 1 169.50977 79.34375 L 177.76758 81.361328 C 178.56265 81.554522 179.21094 81.269515 179.21094 80.724609 L 179.21094 59.298828 A 70.590032 52.509076 0 0 0 150.98633 46.322266 L 151.45508 47.714844 C 151.58681 48.105913 151.3774 48.526475 150.98633 48.658203 L 150.42383 48.847656 C 150.03276 48.979385 149.6122 48.771928 149.48047 48.380859 L 149.10742 47.275391 L 137.93359 55.363281 L 138.41406 56.791016 C 138.54579 57.182084 138.33638 57.602647 137.94531 57.734375 L 137.38281 57.923828 C 136.99174 58.055557 136.57118 57.846147 136.43945 57.455078 L 135.99219 56.125 L 122.49414 56.107422 L 122.86523 57.210938 C 122.99696 57.602006 122.78755 58.022568 122.39648 58.154297 L 121.83398 58.34375 C 121.44292 58.475478 121.02235 58.268022 120.89062 57.876953 L 116.40625 44.564453 z M 114.62109 52.46875 A 0.6192108 0.6192108 0 0 1 114.99023 52.765625 A 0.6192108 0.6192108 0 0 1 114.74609 53.605469 C 113.01521 54.555467 111.30123 55.534473 109.60742 56.546875 A 0.6192108 0.6192108 0 0 1 108.75781 56.333984 A 0.6192108 0.6192108 0 0 1 108.9707 55.484375 C 110.67853 54.463586 112.40722 53.476276 114.15039 52.519531 A 0.6192108 0.6192108 0 0 1 114.62109 52.46875 z M 104.37695 58.5625 A 0.6192108 0.6192108 0 0 1 104.76758 58.830078 A 0.6192108 0.6192108 0 0 1 104.58984 59.6875 C 102.94119 60.769819 101.31807 61.889034 99.724609 63.048828 A 0.6192108 0.6192108 0 0 1 98.859375 62.912109 A 0.6192108 0.6192108 0 0 1 98.996094 62.046875 C 100.60676 60.874558 102.24599 59.744849 103.91016 58.652344 A 0.6192108 0.6192108 0 0 1 104.37695 58.5625 z M 94.710938 65.554688 A 0.6192108 0.6192108 0 0 1 95.128906 65.78125 A 0.6192108 0.6192108 0 0 1 95.039062 66.650391 C 93.511201 67.893467 92.019966 69.180025 90.570312 70.511719 A 0.6192108 0.6192108 0 0 1 89.695312 70.474609 A 0.6192108 0.6192108 0 0 1 89.732422 69.601562 C 91.201234 68.252268 92.711678 66.94935 94.257812 65.691406 A 0.6192108 0.6192108 0 0 1 94.710938 65.554688 z " /><path
     style="color:#000000;display:inline;fill:#c87137;stroke-width:0.247684;stroke-miterlimit:10;-inkscape-stroke:none"
     d="m 92.708385,-0.0198839 -0.06095,0.0029025 c -1.813137,0.08906846 -3.432772,1.2012647 -4.167099,2.8614313 l -0.02806,0.063372 -0.0242,0.064824 -0.178506,0.472632 -0.0073,0.019834 c -0.391532,1.094382 -0.663844,2.2277441 -0.812667,3.3805046 l -0.0039,0.029993 -1.171664,11.2115855 -0.0015,0.01838 c -0.100978,1.129713 -0.100978,2.266271 0,3.395984 l 0.0025,0.02612 0.53165,4.789208 v 0.0029 c 0.08602,0.880832 0.115782,1.766393 0.08853,2.650995 -1e-5,2.48e-4 1e-5,7.43e-4 0,9.91e-4 l -0.359915,8.076347 c -0.05557,0.717997 -0.218834,1.423771 -0.484243,2.093222 l -2.307043,5.30925 c -1.83e-4,4.95e-4 -2.48e-4,9.9e-4 -4.95e-4,0.0015 l -4.96e-4,9.9e-4 c -0.383465,0.880508 -0.84276,2.109139 -1.131027,3.014299 v 4.95e-4 l -4.627633,14.548551 -0.01161,0.0416 c -0.343921,1.227719 -0.462528,2.507687 -0.349757,3.777669 l 0.0044,0.04451 1.132962,9.046766 0.01209,0.06579 c 0.25623,1.420566 0.931731,2.732476 1.939388,3.76606 l 0.04305,0.04402 1.368069,1.270833 0.03628,0.03096 c 0.989837,0.850491 2.141254,1.49292 3.384857,1.888593 l 0.04547,0.01451 4.390591,1.211815 0.02709,0.0068 c 1.134602,0.285563 2.297906,0.443068 3.46758,0.470214 l 0.02854,9.91e-4 h 55.510313 l 0.013,-4.96e-4 c 1.08082,-0.01112 2.16034,-0.07932 3.23393,-0.204631 l 0.0121,-0.0015 14.5829,-1.847955 c 0.719,-0.06699 1.44353,-0.02607 2.15031,0.121905 l 8.19438,2.003244 0.002,4.95e-4 c 0.81917,0.199049 1.68286,0.223506 2.60262,-0.181409 0.91977,-0.404916 1.90311,-1.606233 1.90311,-2.861915 V 47.123828 c 0.0292,-0.657362 0.18002,-1.303612 0.44603,-1.905525 l 0.41071,-0.855769 4.9e-4,-0.0015 c 0.68062,-1.423549 1.01784,-2.620993 0.24382,-4.432195 -0.69822,-1.633822 -1.91608,-2.347002 -3.44291,-2.493292 0.0473,0.04479 0.0209,0.119439 0.0585,0.242364 l -0.0755,-0.244298 c -0.18553,-0.01721 -0.35662,-0.06095 -0.55149,-0.06095 0.3675,0 0.49445,0.01441 0.55004,0.05612 l -0.009,-0.02999 c -0.16434,-0.622187 -0.20802,-1.269877 -0.1282,-1.908427 l 0.21963,-1.355492 c 0.1212,-0.548576 0.36749,-1.061199 0.72128,-1.497715 l 1.96358,-2.208841 0.0397,-0.04934 c 0.91653,-1.144081 1.45225,-2.54752 1.5311,-4.011324 l 0.004,-0.06628 v -1.23455 c 0.0248,-0.66079 0.17027,-1.311057 0.4291,-1.919555 l 2.93834,-6.22065 0.0247,-0.06144 c 0.55813,-1.365712 0.66494,-2.874733 0.30477,-4.30545 l -0.0155,-0.06192 -0.15335,-0.500206 -0.0218,-0.05902 c -0.48972,-1.346299 -1.35912,-2.5223224 -2.50297,-3.3848578 l -0.0518,-0.038701 -1.06572,-0.7203163 -0.003,-0.00193 c -0.59357,-0.4023894 -1.68147,-1.2007007 -2.2398,-1.6447787 l -0.009,-0.00629 -0.68259,-0.5335855 -0.0416,-0.029993 C 179.4166,4.7443843 178.03704,4.263634 176.60763,4.1936205 l -0.0605,-0.0029 h -20.91627 l -0.0503,0.00193 c -1.28899,0.0523 -2.55569,0.3545297 -3.7293,0.8901156 l -0.0397,0.018383 -7.78609,3.8918367 -0.001,4.954e-4 c -0.0802,0.040222 -1.0928,0.015854 -0.60518,0.1654452 -1.69513,-0.5200219 -2.84039,-0.2484437 -4.22611,0.3797506 h -5e-4 l -3.63157,1.648649 c -0.43739,0.167776 -0.91193,0.2097 -1.37194,0.12094 l -1.03815,-0.259295 -0.0595,-0.01209 c -1.38864,-0.275478 -2.82709,-0.160086 -4.15403,0.333309 l -0.0513,0.01935 -0.68791,0.290761 c -0.24174,0.08388 -0.5031,0.07167 -0.73579,-0.03483 l -0.0489,-0.02661 -0.0435,-0.02177 c -1.18131,-0.583149 -2.47198,-0.911718 -3.78831,-0.964614 l -0.0498,-0.0019 h -4.3098 l -0.0498,0.0019 c -1.31634,0.0529 -2.60701,0.381465 -3.78832,0.964614 l -0.0435,0.02177 -0.11272,0.06144 c -0.69381,0.355547 -1.42805,0.625909 -2.18659,0.805941 l -1.65735,0.349274 c -0.6031,0.09993 -1.22014,0.07253 -1.81216,-0.07982 l -2.93158,-0.893018 V 8.0859725 l -0.004,-0.067726 c -0.085,-1.5556599 -0.75917,-3.022598 -1.88424,-4.1003366 l -0.0977,-0.093849 -0.10739,-0.082239 c -1.15096,-0.8836027 -2.54428,-1.3965887 -3.99343,-1.470142 l -0.0629,-0.0029 H 99.758682 C 99.392887,2.245884 99.046837,2.1029031 98.772299,1.8600014 L 98.612656,1.7022961 98.568635,1.662628 C 97.447841,0.65796896 96.016716,0.06523454 94.513773,-0.01649759 l -0.06724,-0.0033863 z m 0.273807,4.9536865 h 1.279057 c 0.36661,0.023822 0.71363,0.1672469 0.989288,0.4102272 l 0.156737,0.1548027 0.04305,0.038701 c 1.121267,1.0076522 2.555273,1.6011105 4.060668,1.6810605 l 0.06579,0.00387 h 0.741608 c 0.38922,0.022765 0.75631,0.161244 1.07975,0.3758803 0.16222,0.1927871 0.27095,0.4230347 0.28784,0.6767781 v 4.6663336 c 0,1.475962 0.74589,2.093555 1.30469,2.561018 0.55881,0.467461 1.16729,0.782935 1.8736,0.997509 l 3.39501,1.03476 0.0489,0.01258 c 1.27738,0.33299 2.61097,0.391433 3.91263,0.171734 l 0.0493,-0.0082 1.87746,-0.395714 0.03,-0.0068 c 1.15202,-0.272784 2.2669,-0.684092 3.32004,-1.224876 l 0.0256,-0.01355 0.0658,-0.03531 c 0.55238,-0.270622 1.15409,-0.423852 1.76862,-0.450379 h 4.03793 c 0.61433,0.02652 1.21592,0.179444 1.76814,0.449895 l 0.10062,0.05466 0.0614,0.02903 c 1.43459,0.680554 3.08489,0.7588 4.57732,0.216724 l 0.0605,-0.02225 0.71355,-0.301865 c 0.45916,-0.168029 0.95422,-0.207972 1.43434,-0.115618 l 1.03476,0.25881 0.0585,0.01161 c 1.40072,0.279349 2.85237,0.15085 4.18209,-0.370559 l 0.0605,-0.0237 3.79074,-1.720729 c 0.10038,-0.04551 1.17981,-0.0167 0.72805,-0.155286 1.72972,0.530633 2.8961,0.219703 4.27593,-0.472149 l 0.003,-0.0015 7.67483,-3.8362043 c 0.58199,-0.2637855 1.2091,-0.4129826 1.84747,-0.440704 h 20.61295 c 0.46931,0.0259 0.92098,0.1829565 1.30421,0.4552166 l 0.54471,0.4257077 c 9.9e-4,7.67e-4 0.002,0.0017 0.003,0.0024 0.72391,0.575602 1.78531,1.353936 2.5436,1.867791 l 0.001,9.66e-4 0.92301,0.623565 c 0.36891,0.281848 0.64993,0.661096 0.81175,1.096196 l 0.0518,0.168349 c 0.0963,0.396362 0.0668,0.811635 -0.0842,1.190529 l -2.91223,6.165501 -0.0179,0.04112 c -0.50591,1.18049 -0.78802,2.444767 -0.83254,3.728326 l -0.001,0.04306 v 1.163923 c -0.026,0.419917 -0.17871,0.820506 -0.43925,1.15086 l -1.94181,2.184655 -0.0329,0.04015 c -0.8594,1.052379 -1.45631,2.294439 -1.74153,3.622867 l -0.0135,0.06144 -0.26414,1.631231 -0.005,0.0416 c -0.16388,1.283708 -0.0767,2.587251 0.25687,3.837655 l 0.0121,0.04451 0.13303,0.433447 0.003,0.0097 c 0.50958,1.610262 1.61026,2.83255 3.37131,3.095088 l -0.43054,0.898339 -0.0145,0.03338 c -0.52329,1.179468 -0.81933,2.447295 -0.87221,3.736551 l -0.002,0.05079 v 31.570077 l -6.67538,-1.631717 -0.0382,-0.0082 c -1.20334,-0.253971 -2.43816,-0.323909 -3.66254,-0.208016 l -0.0392,0.0034 -14.65305,1.857149 c -7.4e-4,9.4e-5 -0.002,-9.4e-5 -0.002,0 -0.89906,0.10486 -1.80297,0.162414 -2.70808,0.171735 H 93.563188 C 92.766543,78.724803 91.97483,78.617122 91.201961,78.423019 L 87.011645,77.266351 C 86.412497,77.073578 85.85758,76.764183 85.378962,76.355435 l -1.150377,-1.069107 c -0.306611,-0.319469 -0.512774,-0.72014 -0.595025,-1.155215 l -1.096196,-8.749275 c -0.05713,-0.664299 0.0044,-1.333218 0.182861,-1.975669 l 4.591834,-14.435352 4.95e-4,-9.91e-4 c 0.207,-0.6498 0.682878,-1.920636 0.953003,-2.540698 l 4.95e-4,-9.91e-4 2.34913,-5.406003 0.01402,-0.03531 c 0.45589,-1.143995 0.734951,-2.350376 0.827711,-3.578362 l 0.0029,-0.03822 0.366204,-8.22873 4.95e-4,-0.01694 c 0.03387,-1.097779 -0.0025,-2.196472 -0.10933,-3.289558 l -0.0015,-0.01645 -0.529232,-4.763085 c -0.07418,-0.833083 -0.07418,-1.671335 0,-2.504418 L 92.344095,7.4729961 c 0.103322,-0.7964319 0.291319,-1.5793358 0.561644,-2.3355858 4.96e-4,-0.00111 4.96e-4,-0.00228 9.91e-4,-0.00339 z M 178.44586,42.300755 c 0.11144,0.0074 0.21559,0.02564 0.33186,0.02564 -0.2093,0 -0.27412,0.02922 -0.33186,-0.02564 z"
     id="path3478" /><path
     style="display:inline;fill:#c87137;fill-rule:nonzero;stroke:none;stroke-width:0.247684;stroke-linecap:butt;stroke-linejoin:miter;stroke-miterlimit:4;stroke-dasharray:none;stroke-dashoffset:0"
     d="m 130.51372,29.627813 a 6.509144,6.509144 0 0 0 -3.54932,1.164117 l -8.47823,6.546296 c -0.86442,0.666271 -0.67866,1.203746 0.41116,1.193839 l 10.60832,-0.08421 a 7.0912021,7.0912021 0 0 0 3.56913,-1.203746 l 8.21569,-6.13514 c 0.87432,-0.65141 0.69599,-1.206223 -0.39382,-1.238422 z"
     stroke-linecap="round"
     id="path7353" /><path
     style="display:inline;fill:#c87137;fill-rule:nonzero;stroke:none;stroke-width:0.247684;stroke-linecap:butt;stroke-linejoin:miter;stroke-miterlimit:4;stroke-dasharray:none;stroke-dashoffset:0"
     d="m 144.55247,33.565994 c -0.35667,-1.030367 -1.37465,-1.35731 -2.26384,-0.725715 l -8.15624,5.795813 a 2.8112171,2.8112171 0 0 0 -0.96845,3.021749 l 3.63106,10.486954 c 0.35666,1.030367 1.37464,1.35731 2.26135,0.725715 l 8.15129,-5.79829 a 2.8112171,2.8112171 0 0 0 0.96597,-3.019272 z"
     stroke-linecap="round"
     id="path7355" /><path
     style="display:inline;fill:#c87137;fill-rule:nonzero;stroke:none;stroke-width:0.247684;stroke-linecap:butt;stroke-linejoin:miter;stroke-miterlimit:4;stroke-dasharray:none;stroke-dashoffset:0"
     d="m 134.97452,52.687224 c 0.33189,1.037797 -0.2898,1.909646 -1.37961,1.934414 l -9.99654,0.232824 a 2.8112171,2.8112171 0 0 1 -2.59325,-1.840295 l -3.36851,-10.573644 c -0.32942,-1.040274 0.28979,-1.909646 1.3796,-1.934414 l 9.99902,-0.2353 a 2.8112171,2.8112171 0 0 1 2.58087,1.842771 z"
     stroke-linecap="round"
     id="path7357" /><path
     style="display:inline;fill:none;fill-rule:nonzero;stroke:#ffffff;stroke-width:1.23842;stroke-linecap:round;stroke-linejoin:round;stroke-miterlimit:4;stroke-dasharray:5.94442, 5.94442;stroke-dashoffset:0"
     d="M 138.45448,73.106319"
     stroke-linecap="round"
     id="path8312" /></g><g
   inkscape:groupmode="layer"
   id="layer5"
   inkscape:label="F.SilkS"
   style="display:inline"><path
     id="path2672"
     style="fill:#ffffff;fill-rule:nonzero;stroke:none;stroke-width:0.247684;stroke-linecap:butt;stroke-linejoin:miter;stroke-miterlimit:4;stroke-dasharray:none;stroke-dashoffset:0"
     d="m 128.45523,28.562984 a 2.3777695,2.3777695 0 0 0 -1.32259,0.447959 l -11.51732,9.238819 a 1.1814542,1.1814542 0 0 0 -0.35895,1.1765 l 4.9711,15.970802 a 1.0774268,1.0774268 0 0 0 0.96365,0.708223 l 14.94233,0.01984 a 2.6626065,2.6626065 0 0 0 1.34533,-0.433448 l 12.50806,-9.053055 a 1.0526584,1.0526584 0 0 0 0.35411,-1.134414 l -5.61982,-15.905978 a 1.1616395,1.1616395 0 0 0 -0.99074,-0.718381 z m 2.05839,1.064753 10.38291,0.242847 c 1.08981,0.0322 1.26811,0.587011 0.39378,1.238421 l -8.21567,6.135024 a 7.0912021,7.0912021 0 0 1 -3.56917,1.20359 l -10.60834,0.08466 c -1.08981,0.0099 -1.27561,-0.527645 -0.41119,-1.193915 l 8.47835,-6.54622 a 6.509144,6.509144 0 0 1 3.54933,-1.164406 z m 12.78816,2.892876 c 0.54667,0.03214 1.0276,0.401422 1.25051,1.045401 l 3.62142,10.486914 a 2.8112171,2.8112171 0 0 1 -0.96607,3.019139 l -8.15133,5.798327 c -0.88671,0.631595 -1.90442,0.304728 -2.26108,-0.725639 l -3.63109,-10.486914 a 2.8112171,2.8112171 0 0 1 0.96848,-3.021556 l 8.15617,-5.795909 c 0.33344,-0.236849 0.68499,-0.339055 1.01299,-0.319763 z m -14.28636,7.750292 a 2.8112171,2.8112171 0 0 1 2.58085,1.842635 l 3.37809,10.57351 c 0.3319,1.037798 -0.28987,1.90978 -1.37968,1.934549 l -9.99638,0.232689 a 2.8112171,2.8112171 0 0 1 -2.59295,-1.840218 l -3.36889,-10.573507 c -0.32942,-1.040274 0.28987,-1.909782 1.37968,-1.934551 z" /><path
     style="fill:none;fill-rule:nonzero;stroke:#ffffff;stroke-width:1.23842;stroke-linecap:round;stroke-linejoin:round;stroke-miterlimit:4;stroke-dasharray:5.94442, 5.94442;stroke-dashoffset:0"
     d="M 138.45448,73.106319"
     stroke-linecap="round"
     id="path2644" /><path
     id="path2652"
     style="color:#000000;fill:#ffffff;stroke-width:0.247684;stroke-linecap:round;stroke-linejoin:round;stroke-dasharray:5.94442, 5.94442;-inkscape-stroke:none"
     d="m 171.24657,45.163154 a 0.6192108,0.6192108 0 0 0 -0.57567,0.660331 c 0.0248,0.362422 0.006,0.733004 -0.0469,1.103453 -0.096,0.663703 -0.30122,1.322598 -0.57132,1.964543 -0.30668,0.726483 -0.69354,1.426947 -1.12812,2.104832 a 0.6192108,0.6192108 0 0 0 0.18721,0.855286 0.6192108,0.6192108 0 0 0 0.85529,-0.186732 c 0.46347,-0.722948 0.88637,-1.484328 1.22729,-2.292046 a 0.61927273,0.61927273 0 0 0 0,-4.95e-4 0.61927273,0.61927273 0 0 0 0,-4.96e-4 c 0.30059,-0.714415 0.54051,-1.472525 0.65549,-2.267859 a 0.61927273,0.61927273 0 0 0 0,-4.96e-4 c 0.0642,-0.445963 0.0881,-0.903666 0.0566,-1.364683 a 0.6192108,0.6192108 0 0 0 -0.65984,-0.575673 z" /><path
     id="path2668"
     style="color:#000000;fill:#ffffff;stroke-width:0.247684;stroke-linecap:round;stroke-linejoin:bevel;stroke-dasharray:5.94442, 5.94442;-inkscape-stroke:none"
     d="m 158.99805,36.9375 c -1.99753,0.139094 -3.98621,0.378181 -5.95899,0.705078 a 0.6192108,0.6192108 0 0 0 -0.50976,0.712891 0.6192108,0.6192108 0 0 0 0.71289,0.509765 c 1.93671,-0.320923 3.88584,-0.55716 5.84179,-0.693359 a 0.6192108,0.6192108 0 0 0 0.57618,-0.660156 0.6192108,0.6192108 0 0 0 -0.66211,-0.574219 z m 6.0957,0.388672 a 0.6192108,0.6192108 0 0 0 -0.73828,0.470703 0.6192108,0.6192108 0 0 0 0.47265,0.738281 c 0.55852,0.122904 1.10143,0.285429 1.61719,0.5 0.61767,0.256611 1.19694,0.591569 1.69336,1.011719 v 0.002 c 0.44921,0.378687 0.83696,0.832564 1.14258,1.335938 a 0.6192108,0.6192108 0 0 0 0.85156,0.207031 0.6192108,0.6192108 0 0 0 0.20703,-0.849609 c -0.37479,-0.617309 -0.84718,-1.174068 -1.40039,-1.640626 h -0.002 c -0.60914,-0.515345 -1.29798,-0.912799 -2.01562,-1.210937 -0.59625,-0.248056 -1.21113,-0.428682 -1.82813,-0.564453 z M 114.62109,52.46875 a 0.6192108,0.6192108 0 0 0 -0.4707,0.05078 c -1.74317,0.956745 -3.47186,1.944055 -5.17969,2.964844 a 0.6192108,0.6192108 0 0 0 -0.21289,0.849609 0.6192108,0.6192108 0 0 0 0.84961,0.212891 c 1.69381,-1.012402 3.40779,-1.991408 5.13867,-2.941406 a 0.6192108,0.6192108 0 0 0 0.24414,-0.839844 0.6192108,0.6192108 0 0 0 -0.36914,-0.296874 z m -10.24414,6.09375 a 0.6192108,0.6192108 0 0 0 -0.46679,0.08984 c -1.66417,1.092505 -3.3034,2.222214 -4.914066,3.394531 a 0.6192108,0.6192108 0 0 0 -0.136719,0.865234 0.6192108,0.6192108 0 0 0 0.865234,0.136719 c 1.593461,-1.159794 3.216581,-2.279009 4.865231,-3.361328 a 0.6192108,0.6192108 0 0 0 0.17774,-0.857422 0.6192108,0.6192108 0 0 0 -0.39063,-0.267578 z m -9.666012,6.992188 a 0.6192108,0.6192108 0 0 0 -0.453126,0.136718 c -1.546137,1.257944 -3.056578,2.560861 -4.52539,3.910156 a 0.6192108,0.6192108 0 0 0 -0.03711,0.873047 0.6192108,0.6192108 0 0 0 0.875,0.03711 c 1.449654,-1.331694 2.940889,-2.618252 4.46875,-3.861328 a 0.6192108,0.6192108 0 0 0 0.08984,-0.869141 0.6192108,0.6192108 0 0 0 -0.417968,-0.226562 z" /><path
     id="rect2676"
     style="fill:#ffffff;fill-rule:nonzero;stroke:none;stroke-width:0.248291;stroke-linecap:butt;stroke-linejoin:miter;stroke-miterlimit:4;stroke-dasharray:none;stroke-dashoffset:0"
     d="m 127.53899,25.798304 c -0.0965,-0.0072 -0.19587,0.0043 -0.29364,0.03725 l -0.56261,0.189635 c -0.39107,0.131728 -0.59952,0.552259 -0.46779,0.943328 l 1.19827,3.557559 a 6.509144,6.509144 0 0 1 1.94519,-0.751761 l -1.16925,-3.470481 c -0.0988,-0.293303 -0.36064,-0.48405 -0.65017,-0.505529 z m 4.52314,12.003015 a 7.0912021,7.0912021 0 0 1 -2.00372,0.577607 l 3.21602,9.547941 c 0.13173,0.391069 0.55275,0.600006 0.94382,0.468277 l 0.56212,-0.189632 c 0.39107,-0.131728 0.60001,-0.552745 0.46828,-0.943813 z" /><rect
     style="fill:#ffffff;fill-rule:nonzero;stroke:none;stroke-width:0.248291;stroke-linecap:butt;stroke-linejoin:miter;stroke-miterlimit:4;stroke-dasharray:none;stroke-dashoffset:0"
     x="110.96059"
     y="75.143364"
     rx="0.7448712"
     ry="0.7448712"
     width="2.0831566"
     height="23.604969"
     id="rect2692"
     transform="rotate(-18.615692)" /><rect
     style="fill:#ffffff;fill-rule:nonzero;stroke:none;stroke-width:0.248291;stroke-linecap:butt;stroke-linejoin:miter;stroke-miterlimit:4;stroke-dasharray:none;stroke-dashoffset:0"
     x="96.090103"
     y="70.578667"
     rx="0.7448712"
     ry="0.7448712"
     width="2.0831566"
     height="23.604969"
     id="rect2696"
     transform="rotate(-18.615692)" /><rect
     style="fill:#ffffff;fill-rule:nonzero;stroke:none;stroke-width:0.248291;stroke-linecap:butt;stroke-linejoin:miter;stroke-miterlimit:4;stroke-dasharray:none;stroke-dashoffset:0"
     x="126.21586"
     y="70.705818"
     rx="0.7448712"
     ry="0.7448712"
     width="2.0831566"
     height="23.604969"
     id="rect2700"
     transform="rotate(-18.615692)" /></g><g
   inkscape:groupmode="layer"
   id="layer6"
   inkscape:label="F.Cu"
   style="display:inline"><path
     id="polygon7277"
     style="display:inline;fill:#ffd42a;fill-rule:nonzero;stroke:none;stroke-width:0.247684;stroke-linecap:butt;stroke-linejoin:miter;stroke-miterlimit:4;stroke-dasharray:none;stroke-dashoffset:0"
     d="m 92.982192,4.9338026 -0.07547,0.2002758 c -4.95e-4,0.00111 -4.95e-4,0.00228 -9.91e-4,0.00339 -0.270325,0.75625 -0.458322,1.5391539 -0.561644,2.3355858 L 91.186456,18.551118 c -0.07418,0.833083 -0.07418,1.671335 0,2.504418 l 0.529232,4.763086 0.0015,0.01645 c 0.106854,1.093085 0.143204,2.191778 0.109331,3.289557 l -4.96e-4,0.01694 -0.366204,8.228729 -0.0029,0.03822 c -0.09276,1.227987 -0.371821,2.434368 -0.827711,3.578362 l -0.01402,0.03531 -2.34913,5.406002 -4.95e-4,9.91e-4 c -0.270125,0.620063 -0.746003,1.890899 -0.953003,2.540699 l -4.95e-4,9.91e-4 -1.935034,6.083746 a 70.590032,52.509076 0 0 1 43.563909,-11.412883 70.590032,52.509076 0 0 1 47.79339,13.98739 V 46.989342 l 0.002,-0.0508 c 0.0529,-1.289256 0.34892,-2.557085 0.87221,-3.736548 l 0.0145,-0.03338 0.43054,-0.898339 c -1.76106,-0.262538 -2.86173,-1.484825 -3.37131,-3.095088 l -0.003,-0.0097 -0.13303,-0.433447 -0.0121,-0.04451 c -0.33354,-1.250404 -0.42075,-2.553947 -0.25687,-3.837655 l 0.005,-0.0416 0.26413,-1.631231 0.0136,-0.06144 c 0.28522,-1.328428 0.88213,-2.570488 1.74153,-3.622866 l 0.0329,-0.04015 1.94181,-2.184655 c 0.26053,-0.330353 0.41327,-0.730943 0.43925,-1.15086 V 24.95315 l 0.001,-0.04306 c 0.0445,-1.283558 0.32664,-2.547835 0.83255,-3.728326 l 0.0179,-0.04112 2.91222,-6.165501 c 0.15102,-0.378895 0.18049,-0.794167 0.0842,-1.19053 l -0.0518,-0.168348 c -0.16182,-0.435101 -0.44285,-0.814349 -0.81175,-1.096196 l -0.92301,-0.623565 -0.001,-9.66e-4 c -0.75828,-0.513856 -1.81969,-1.292189 -2.5436,-1.867791 -9.9e-4,-7.68e-4 -0.002,-0.0017 -0.003,-0.0024 l -0.5447,-0.4257112 c -0.38323,-0.2722601 -0.83491,-0.429317 -1.30422,-0.4552166 h -20.61294 c -0.63838,0.027721 -1.26548,0.1769185 -1.84748,0.440704 l -7.67482,3.8362048 -0.003,0.0015 c -1.37983,0.691852 -2.54622,1.002781 -4.27594,0.472148 0.45176,0.138588 -0.62768,0.10978 -0.72806,0.155287 l -3.79073,1.720728 -0.0605,0.0237 c -1.32973,0.521409 -2.78137,0.649907 -4.18209,0.370559 l -0.0585,-0.01161 -1.03477,-0.258811 c -0.48012,-0.09235 -0.97517,-0.05241 -1.43434,0.115618 l -0.71354,0.301866 -0.0605,0.02225 c -1.49244,0.542076 -3.14273,0.463829 -4.57732,-0.216724 l -0.0615,-0.02902 -0.10062,-0.05466 c -0.55222,-0.270451 -1.15381,-0.423377 -1.76814,-0.449896 h -4.03793 c -0.61453,0.02653 -1.21624,0.179758 -1.76862,0.450379 l -0.0658,0.03531 -0.0256,0.01355 c -1.05314,0.540784 -2.16802,0.952091 -3.32004,1.224876 l -0.03,0.0068 -1.87746,0.395714 -0.0493,0.0082 c -1.30166,0.219699 -2.63525,0.161256 -3.91263,-0.171734 l -0.0489,-0.01258 -3.39501,-1.034759 c -0.70631,-0.214574 -1.31479,-0.530048 -1.8736,-0.99751 -0.5588,-0.467462 -1.30469,-1.085056 -1.30469,-2.561017 V 8.2751221 C 101.66908,8.0213786 101.56036,7.791131 101.39814,7.598344 101.0747,7.3837077 100.70761,7.2452284 100.31839,7.2224637 h -0.741603 l -0.06579,-0.00387 C 98.005602,7.1386424 96.571596,6.545184 95.450329,5.5375319 L 95.407274,5.4988312 95.250537,5.3440285 C 94.974879,5.1010482 94.627861,4.9576236 94.261251,4.9338014 Z M 178.44586,42.300755 c 0.0577,0.05486 0.12256,0.02564 0.33186,0.02564 -0.11627,0 -0.22042,-0.01825 -0.33186,-0.02564 z" /><path
     style="fill:#ffd42a;fill-rule:nonzero;stroke:none;stroke-width:0.247684;stroke-linecap:butt;stroke-linejoin:miter;stroke-miterlimit:4;stroke-dasharray:none;stroke-dashoffset:0"
     d="m 130.51372,29.627813 a 6.509144,6.509144 0 0 0 -3.54932,1.164117 l -8.47823,6.546296 c -0.86442,0.666271 -0.67866,1.203746 0.41116,1.193839 l 10.60832,-0.08421 a 7.0912021,7.0912021 0 0 0 3.56913,-1.203746 l 8.21569,-6.13514 c 0.87432,-0.65141 0.69599,-1.206223 -0.39382,-1.238422 z"
     stroke-linecap="round"
     id="path3482" /><path
     style="fill:#ffd42a;fill-rule:nonzero;stroke:none;stroke-width:0.247684;stroke-linecap:butt;stroke-linejoin:miter;stroke-miterlimit:4;stroke-dasharray:none;stroke-dashoffset:0"
     d="m 144.55247,33.565994 c -0.35667,-1.030367 -1.37465,-1.35731 -2.26384,-0.725715 l -8.15624,5.795813 a 2.8112171,2.8112171 0 0 0 -0.96845,3.021749 l 3.63106,10.486954 c 0.35666,1.030367 1.37464,1.35731 2.26135,0.725715 l 8.15129,-5.79829 a 2.8112171,2.8112171 0 0 0 0.96597,-3.019272 z"
     stroke-linecap="round"
     id="path3486" /><path
     style="fill:#ffd42a;fill-rule:nonzero;stroke:none;stroke-width:0.247684;stroke-linecap:butt;stroke-linejoin:miter;stroke-miterlimit:4;stroke-dasharray:none;stroke-dashoffset:0"
     d="m 134.97452,52.687224 c 0.33189,1.037797 -0.2898,1.909646 -1.37961,1.934414 l -9.99654,0.232824 a 2.8112171,2.8112171 0 0 1 -2.59325,-1.840295 l -3.36851,-10.573644 c -0.32942,-1.040274 0.28979,-1.909646 1.3796,-1.934414 l 9.99902,-0.2353 a 2.8112171,2.8112171 0 0 1 2.58087,1.842771 z"
     stroke-linecap="round"
     id="path3490" /></g></svg>
