<?xml version="1.0" encoding="UTF-8" standalone="no"?>
<!-- Created with Inkscape (http://www.inkscape.org/) -->

<svg
   width="52mm"
   height="37mm"
   id="svg2"
   version="1.1"
   inkscape:version="1.1.2 (b8e25be8, 2022-02-05)"
   sodipodi:docname="PSAS_Logo.svg"
   xmlns:inkscape="http://www.inkscape.org/namespaces/inkscape"
   xmlns:sodipodi="http://sodipodi.sourceforge.net/DTD/sodipodi-0.dtd"
   xmlns="http://www.w3.org/2000/svg"
   xmlns:svg="http://www.w3.org/2000/svg"
   xmlns:rdf="http://www.w3.org/1999/02/22-rdf-syntax-ns#"
   xmlns:cc="http://creativecommons.org/ns#"
   xmlns:dc="http://purl.org/dc/elements/1.1/">
  <sodipodi:namedview
     id="base"
     pagecolor="#ffffff"
     bordercolor="#666666"
     borderopacity="1.0"
     inkscape:pageopacity="0.0"
     inkscape:pageshadow="2"
     inkscape:zoom="6.9470402"
     inkscape:cx="42.680047"
     inkscape:cy="37.64193"
     inkscape:document-units="mm"
     inkscape:current-layer="layer3"
     showgrid="true"
     units="mm"
     borderlayer="true"
     inkscape:showpageshadow="false"
     showguides="false"
     inkscape:guide-bbox="true"
     guidecolor="#ff0096"
     guideopacity="0.23529412"
     inkscape:window-width="1428"
     inkscape:window-height="997"
     inkscape:window-x="0"
     inkscape:window-y="25"
     inkscape:window-maximized="0"
     inkscape:pagecheckerboard="0">
    <inkscape:grid
       type="xygrid"
       id="grid2985"
       empspacing="2"
       visible="true"
       enabled="true"
       snapvisiblegridlinesonly="true"
       units="mm"
       spacingx="35.433071"
       spacingy="35.433071"
       color="#f000ff"
       opacity="0.03921569"
       empcolor="#f000ff"
       empopacity="0.11764706"
       originx="0"
       originy="0" />
    <sodipodi:guide
       position="35.433071,389.76378"
       orientation="354.33073,0"
       id="guide2989" />
    <sodipodi:guide
       position="35.433071,35.433044"
       orientation="0,354.33072"
       id="guide2991" />
    <sodipodi:guide
       position="389.76379,35.433044"
       orientation="-354.33073,0"
       id="guide2993" />
    <sodipodi:guide
       position="0,389.76378"
       orientation="0,-354.33072"
       id="guide2995" />
    <inkscape:grid
       type="xygrid"
       id="grid2997"
       empspacing="5"
       visible="true"
       enabled="false"
       snapvisiblegridlinesonly="true"
       units="mm"
       spacingx="3.5433071"
       spacingy="3.5433071"
       color="#f000ff"
       opacity="0.00392157"
       empcolor="#f000ff"
       empopacity="0.00392157"
       dotted="true"
       originx="0"
       originy="0" />
    <sodipodi:guide
       orientation="1,0"
       position="212.59843,212.59843"
       id="guide3003" />
    <inkscape:grid
       type="axonomgrid"
       id="grid3005"
       units="mm"
       empspacing="5"
       visible="true"
       enabled="false"
       snapvisiblegridlinesonly="true"
       spacingy="8.6603mm"
       color="#b400ff"
       opacity="0.1254902"
       empcolor="#b401ff"
       empopacity="0.11764706" />
    <sodipodi:guide
       orientation="0,1"
       position="212.59843,212.59843"
       id="guide3195" />
    <sodipodi:guide
       position="19.986869,431.35631"
       orientation="1,0"
       id="guide662" />
    <sodipodi:guide
       position="3.2682931,405.20997"
       orientation="0,-1"
       id="guide693" />
  </sodipodi:namedview>
  <defs
     id="defs4" />
  <metadata
     id="metadata7">
    <rdf:RDF>
      <cc:Work
         rdf:about="">
        <dc:format>image/svg+xml</dc:format>
        <dc:type
           rdf:resource="http://purl.org/dc/dcmitype/StillImage" />
      </cc:Work>
    </rdf:RDF>
  </metadata>
  <g
     inkscape:label="Layer 1"
     inkscape:groupmode="layer"
     id="layer1"
     transform="translate(0,-627.16561)"
     style="display:none">
    <path
       style="fill:#363f09;fill-opacity:1;stroke:none;stroke-width:0.278053"
       d="m 90.419256,671.62041 c 0,24.48566 -19.849554,44.33525 -44.335193,44.33525 -24.485661,0 -44.335212,-19.84959 -44.335212,-44.33525 0,-24.48565 19.849551,-44.3352 44.335212,-44.3352 24.485639,0 44.335193,19.84955 44.335193,44.3352 z"
       id="path3887" />
    <path
       style="fill:#ffffff;fill-opacity:1;stroke:none;stroke-width:0.269083"
       d="m 44.565709,632.05243 c -0.489864,0.94699 -0.489864,0.94699 0.478031,1.90043 6.520426,0 12.844136,8.76013 15.976236,21.93571 0,0 -0.403042,0 0.231029,-0.009 -3.254193,-14.28804 -9.281366,-23.82488 -16.685313,-23.82488 z"
       id="path4673-3"
       inkscape:connector-curvature="0"
       sodipodi:nodetypes="ccccsc" />
    <path
       style="fill:#6a7f10;fill-opacity:1;stroke:none;stroke-width:0.269083"
       d="m 46.084063,653.98235 c -15.375573,0 -30.034788,3.0606 -43.4065298,8.60227 -0.6042398,2.91769 -0.9249745,5.9427 -0.9249745,9.03953 0,24.48566 19.8458453,44.33151 44.3315043,44.33151 24.485648,0 44.339897,-19.84585 44.339897,-44.33151 0,-3.09625 -0.32093,-6.12228 -0.924978,-9.03953 -13.373662,-5.54353 -28.036624,-8.60227 -43.414919,-8.60227 z"
       id="path3889"
       inkscape:connector-curvature="0" />
    <g
       style="font-style:normal;font-variant:normal;font-weight:900;font-stretch:normal;font-size:78px;line-height:125%;font-family:Orbitron;-inkscape-font-specification:'Orbitron Heavy';text-align:center;letter-spacing:9px;word-spacing:0px;writing-mode:lr-tb;text-anchor:middle;fill:#ffffff;fill-opacity:1;stroke:none"
       id="text3825"
       transform="matrix(0.26908349,0,0,0.26908349,-11.122662,444.74614)">
      <path
         d="m 74.957462,871.17401 v 43.67908 h 12.09 v -18.018 c 0.078,0.078 0.234,0.078 0.234,0.078 0,-0.312 -0.078,-0.468 -0.234,-0.468 l 32.447998,-0.078 c 6.396,0 11.622,-5.22601 11.622,-11.544 v -14.508 c 0,-6.318 -5.226,-11.544 -11.622,-11.544 H 86.772276 c -6.793433,-0.10386 -12.170503,5.42576 -11.814814,12.40292 z m 12.09,-0.31292 h 31.823998 v 13.338 H 87.047462 v -13.338"
         id="path3817"
         inkscape:connector-curvature="0"
         sodipodi:nodetypes="cccccccsssccccccc" />
      <path
         d="m 201.42668,870.23709 c 0,-6.396 -5.22601,-11.544 -11.544,-11.544 h -33.072 c -6.39599,0 -11.544,5.148 -11.544,11.544 v 11.076 c 0,6.39599 5.14801,11.544 11.544,11.544 h 32.37 v 9.828 h -31.824 v -4.602 h -12.09 v 5.226 c 0,6.39599 5.14801,11.544 11.544,11.544 h 33.072 c 6.31799,0 11.544,-5.14801 11.544,-11.544 v -11.076 c 0,-6.396 -5.22601,-11.544 -11.544,-11.544 h -32.526 v -9.828 h 31.824 v 4.602 h 12.246 v -5.226"
         id="path3819"
         inkscape:connector-curvature="0" />
      <path
         d="m 230.4934,858.69309 c -6.39599,0 -11.544,5.148 -11.544,11.544 v 44.616 h 12.09 v -18.096 h 31.824 v 18.096 h 12.246 v -44.616 c 0,-6.396 -5.22601,-11.544 -11.622,-11.544 h -32.994 m 0.546,25.896 v -13.728 h 31.824 v 13.728 h -31.824"
         id="path3821"
         inkscape:connector-curvature="0" />
      <path
         d="m 348.76652,870.23709 c 0,-6.396 -5.226,-11.544 -11.544,-11.544 h -33.072 c -6.39599,0 -11.544,5.148 -11.544,11.544 v 11.076 c 0,6.39599 5.14801,11.544 11.544,11.544 h 32.37 v 9.828 h -31.824 v -4.602 h -12.09 v 5.226 c 0,6.39599 5.14801,11.544 11.544,11.544 h 33.072 c 6.318,0 11.544,-5.14801 11.544,-11.544 v -11.076 c 0,-6.396 -5.226,-11.544 -11.544,-11.544 h -32.526 v -9.828 h 31.824 v 4.602 h 12.246 v -5.226"
         id="path3823"
         inkscape:connector-curvature="0" />
    </g>
    <path
       style="fill:#ffffff;fill-opacity:1;stroke:none;stroke-width:0.269083"
       d="m 44.565709,632.05243 c -9.085031,0 -18.03183,14.6208 -20.142743,34.3667 -0.09923,0.92821 -0.473898,1.89006 -0.792455,2.8177 0.112533,0.1887 1.049059,0.60082 1.842009,0.61947 1.146171,0.0267 1.841295,-0.32311 2.123212,-0.61947 -0.179402,-0.41213 -0.244906,-1.9174 -0.13394,-2.85731 2.217188,-18.78159 9.447663,-32.42666 17.581957,-32.42666 0.489864,-0.94694 0.489864,-0.94694 -0.478031,-1.90043 z"
       id="path4673"
       inkscape:connector-curvature="0"
       sodipodi:nodetypes="cscscsccc" />
  </g>
  <g
     inkscape:groupmode="layer"
     id="layer3"
     inkscape:label="F.Mask"
     style="display:inline">
    <path
       style="fill:#c87137;fill-opacity:1;stroke:none;stroke-width:0.269083"
       d="m 44.565709,4.88684 c -0.489864,0.9469571 -0.489864,0.9469571 0.478031,1.9004032 6.520426,0 12.844136,8.7601378 15.976236,21.9357318 0,0 -0.403042,0 0.231029,-0.01135 C 57.99683,14.423655 51.969657,4.8868311 44.565709,4.8868311 Z"
       id="path512"
       inkscape:connector-curvature="0"
       sodipodi:nodetypes="ccccsc" />
    <g
       style="font-style:normal;font-variant:normal;font-weight:900;font-stretch:normal;font-size:78px;line-height:125%;font-family:Orbitron;-inkscape-font-specification:'Orbitron Heavy';text-align:center;letter-spacing:9px;word-spacing:0px;writing-mode:lr-tb;text-anchor:middle;fill:#c87137;fill-opacity:1;stroke:none"
       id="g522"
       transform="matrix(0.26908349,0,0,0.26908349,-11.122662,-182.41946)">
      <path
         d="m 74.957462,871.17401 v 43.67908 h 12.09 v -18.018 c 0.078,0.078 0.234,0.078 0.234,0.078 0,-0.312 -0.078,-0.468 -0.234,-0.468 l 32.447998,-0.078 c 6.396,0 11.622,-5.22601 11.622,-11.544 v -14.508 c 0,-6.318 -5.226,-11.544 -11.622,-11.544 H 86.772276 c -6.793433,-0.10386 -12.170503,5.42576 -11.814814,12.40292 z m 12.09,-0.31292 h 31.823998 v 13.338 H 87.047462 v -13.338"
         id="path514"
         inkscape:connector-curvature="0"
         sodipodi:nodetypes="cccccccsssccccccc"
         style="fill:#c87137" />
      <path
         d="m 201.42668,870.23709 c 0,-6.396 -5.22601,-11.544 -11.544,-11.544 h -33.072 c -6.39599,0 -11.544,5.148 -11.544,11.544 v 11.076 c 0,6.39599 5.14801,11.544 11.544,11.544 h 32.37 v 9.828 h -31.824 v -4.602 h -12.09 v 5.226 c 0,6.39599 5.14801,11.544 11.544,11.544 h 33.072 c 6.31799,0 11.544,-5.14801 11.544,-11.544 v -11.076 c 0,-6.396 -5.22601,-11.544 -11.544,-11.544 h -32.526 v -9.828 h 31.824 v 4.602 h 12.246 v -5.226"
         id="path516"
         inkscape:connector-curvature="0"
         style="fill:#c87137" />
      <path
         d="m 230.4934,858.69309 c -6.39599,0 -11.544,5.148 -11.544,11.544 v 44.616 h 12.09 v -18.096 h 31.824 v 18.096 h 12.246 v -44.616 c 0,-6.396 -5.22601,-11.544 -11.622,-11.544 h -32.994 m 0.546,25.896 v -13.728 h 31.824 v 13.728 h -31.824"
         id="path518"
         inkscape:connector-curvature="0"
         style="fill:#c87137" />
      <path
         d="m 348.76652,870.23709 c 0,-6.396 -5.226,-11.544 -11.544,-11.544 h -33.072 c -6.39599,0 -11.544,5.148 -11.544,11.544 v 11.076 c 0,6.39599 5.14801,11.544 11.544,11.544 h 32.37 v 9.828 h -31.824 v -4.602 h -12.09 v 5.226 c 0,6.39599 5.14801,11.544 11.544,11.544 h 33.072 c 6.318,0 11.544,-5.14801 11.544,-11.544 v -11.076 c 0,-6.396 -5.226,-11.544 -11.544,-11.544 h -32.526 v -9.828 h 31.824 v 4.602 h 12.246 v -5.226"
         id="path520"
         inkscape:connector-curvature="0"
         style="fill:#c87137" />
    </g>
    <path
       style="fill:#c87137;fill-opacity:1;stroke:none;stroke-width:0.269083"
       d="m 44.565709,4.88684 c -9.085031,0 -18.03183,14.62078 -20.142743,34.366678 -0.09923,0.928229 -0.473898,1.890091 -0.792455,2.817697 0.112533,0.188526 1.049059,0.600833 1.842009,0.619467 1.146171,0.0269 1.841295,-0.323197 2.123212,-0.619467 C 27.41633,41.658931 27.350824,40.15384 27.461792,39.213919 29.67898,20.432327 36.909455,6.7872432 45.043749,6.7872432 45.533613,5.8402861 45.533613,5.8402861 44.565718,4.8868311 Z"
       id="path524"
       inkscape:connector-curvature="0"
       sodipodi:nodetypes="cscscsccc" />
    <path
       id="path533"
       style="fill:#c87137;fill-opacity:1;stroke:none;stroke-width:0.269083"
       d="M 46.083984 26.816406 C 30.708411 26.816406 16.049476 29.878277 2.6777344 35.419922 C 2.0734946 38.337637 1.7519531 41.362178 1.7519531 44.458984 C 1.7519531 51.792293 3.54359 58.702455 6.6953125 64.794922 L 9.046875 63.5 L 9.046875 63.751953 L 12.300781 63.751953 L 12.300781 61.708984 L 17.609375 58.785156 L 21.03125 58.777344 C 22.752308 58.777344 24.158203 57.371942 24.158203 55.671875 L 24.158203 55.179688 L 27.966797 53.082031 L 27.966797 54.726562 C 27.966797 56.447619 29.351211 57.833984 31.072266 57.833984 L 33.134766 57.833984 L 31.21875 59.642578 L 31.21875 59.240234 L 27.966797 59.240234 L 27.966797 60.646484 C 27.966797 61.24597 28.137895 61.801744 28.429688 62.275391 L 14.429688 75.484375 C 22.475322 83.692097 33.681158 88.791016 46.083984 88.791016 C 70.569632 88.791016 90.423828 68.944648 90.423828 44.458984 C 90.423828 41.362726 90.102095 38.337152 89.498047 35.419922 C 83.035892 32.741294 76.270942 30.648885 69.271484 29.195312 C 64.593406 32.599895 60.000106 35.938925 54.871094 39.6875 L 55.029297 43.75 L 50.742188 46.84375 L 47.244141 45.263672 C 47.243511 45.264122 47.150391 45.330078 47.150391 45.330078 L 46.839844 44.902344 L 42.037109 49.433594 C 41.485744 48.941161 40.760247 48.640625 39.970703 48.640625 L 36.033203 48.640625 L 45.695312 43.320312 L 45.384766 42.892578 C 45.384766 42.892578 45.468212 42.834251 45.46875 42.833984 L 45.023438 39.007812 L 49.287109 35.871094 L 53.113281 37.275391 C 57.440468 34.130847 60.84624 31.638509 65.246094 28.433594 C 59.016357 27.373941 52.615803 26.816406 46.083984 26.816406 z M 31.21875 51.914062 L 39.408203 51.914062 L 36.605469 54.558594 L 31.21875 54.558594 L 31.21875 51.914062 z " />
  </g>
  <g
     inkscape:groupmode="layer"
     id="layer2"
     inkscape:label="F.SilkS"
     style="display:inline">
    <path
       id="path3404-64"
       style="fill:#ffff00;fill-opacity:1;stroke:none;stroke-width:0.269083"
       d="m 88.765625,13.140625 -0.160156,0.04297 c 0,0 -7.817556,3.829742 -13.949219,8.392578 -2.704344,2.012395 -13.859675,10.115811 -21.542969,15.699219 l -3.826172,-1.404297 -4.263671,3.136718 0.445312,3.826172 c -5.38e-4,2.67e-4 -0.08398,0.05859 -0.08398,0.05859 l 0.310546,0.427734 -9.662109,5.320313 h 3.9375 c 0.789544,0 1.515041,0.300536 2.066406,0.792969 l 4.802735,-4.53125 0.310547,0.427734 c 0,0 0.09312,-0.06596 0.09375,-0.06641 L 50.742188,46.84375 55.029297,43.75 54.871094,39.6875 C 62.540658,34.082145 73.662048,25.955393 76.404297,23.998047 82.625226,19.557699 88.65625,13.285156 88.65625,13.285156 Z M 31.21875,51.914062 v 2.644532 h 5.386719 l 2.802734,-2.644532 z m -3.251953,1.167969 -3.808594,2.097657 v 0.492187 c 0,1.700067 -1.405895,3.105469 -3.126953,3.105469 l -3.421875,0.0078 -5.308594,2.923828 v 2.042969 H 9.046875 V 63.5 L -0.48632812,68.75 8.671875,71.515625 8.5039062,81.076172 28.429688,62.275391 C 28.137895,61.801744 27.966797,61.24597 27.966797,60.646484 v -1.40625 h 3.251953 v 0.402344 l 1.916016,-1.808594 h -2.0625 c -1.721055,0 -3.105469,-1.386366 -3.105469,-3.107422 z" />
  </g>
  <g
     inkscape:groupmode="layer"
     id="layer4"
     inkscape:label="F.Cu"
     style="display:inline">
    <path
       id="path537"
       style="fill:#ffcc00;fill-opacity:1;stroke:none;stroke-width:0.278051"
       d="m 46.083858,0.11939401 c -24.485662,0 -44.3351864,19.84952299 -44.3351864,44.33518599 0,9.182123 2.7917634,17.712319 7.5721788,24.788258 C 4.5422295,62.168087 1.7523509,53.639703 1.7523509,44.458777 c 0,-3.096803 0.3207342,-6.121803 0.9249745,-9.039518 13.3717426,-5.541645 28.0309576,-8.602263 43.4065326,-8.602263 15.376875,0 30.038579,3.058136 43.411239,8.600686 C 85.321463,15.266182 67.472405,0.11939401 46.083858,0.11939401 Z M 89.510336,35.483376 c 0.05025,0.244461 0.08777,0.493492 0.134006,0.739452 -0.0462,-0.245996 -0.08376,-0.494911 -0.134006,-0.739452 z M 9.3229533,69.245463 c 0.7961947,1.178336 1.6471717,2.316892 2.5499857,3.410849 -0.902714,-1.094011 -1.753911,-2.232442 -2.5499857,-3.410849 z m 2.5520877,3.412949 c 0.714923,0.866173 1.470714,1.696216 2.248319,2.505315 -0.777549,-0.809139 -1.533466,-1.639097 -2.248319,-2.505315 z" />
    <path
       style="fill:#ffcc00;fill-opacity:1;stroke:none;stroke-width:0.269083"
       d="m 44.565709,4.88684 c -0.489864,0.9469571 -0.489864,0.9469571 0.478031,1.9004032 6.520426,0 12.844136,8.7601378 15.976236,21.9357318 0,0 -0.403042,0 0.231029,-0.01135 C 57.99683,14.423655 51.969657,4.8868311 44.565709,4.8868311 Z"
       id="path539"
       inkscape:connector-curvature="0"
       sodipodi:nodetypes="ccccsc" />
    <path
       style="fill:#ffcc00;fill-opacity:1;stroke:none;stroke-width:0.269083"
       d="m 44.565709,4.88684 c -9.085031,0 -18.03183,14.62078 -20.142743,34.366678 -0.09923,0.928229 -0.473898,1.890091 -0.792455,2.817697 0.112533,0.188526 1.049059,0.600833 1.842009,0.619467 1.146171,0.0269 1.841295,-0.323197 2.123212,-0.619467 C 27.41633,41.658931 27.350824,40.15384 27.461792,39.213919 29.67898,20.432327 36.909455,6.7872432 45.043749,6.7872432 45.533613,5.8402861 45.533613,5.8402861 44.565718,4.8868311 Z"
       id="path543"
       inkscape:connector-curvature="0"
       sodipodi:nodetypes="cscscsccc" />
    <path
       d="m 9.0471535,51.999083 v 11.753319 h 3.2532195 v -4.848346 c 0.02099,0.02099 0.06297,0.02099 0.06297,0.02099 0,-0.08395 -0.02099,-0.125931 -0.06297,-0.125931 l 8.73122,-0.02099 c 1.721058,0 3.127289,-1.406233 3.127289,-3.1063 v -3.903863 c 0,-1.70007 -1.406231,-3.1063 -3.127289,-3.1063 h -8.805268 c -1.828001,-0.02795 -3.2748816,1.459982 -3.1791715,3.337421 z m 3.2532195,-0.0842 h 8.563312 v 3.589036 h -8.563312 v -3.589036"
       id="path550"
       inkscape:connector-curvature="0"
       sodipodi:nodetypes="cccccccsssccccccc"
       style="font-style:normal;font-variant:normal;font-weight:900;font-stretch:normal;font-size:78px;line-height:125%;font-family:Orbitron;-inkscape-font-specification:'Orbitron Heavy';text-align:center;letter-spacing:9px;word-spacing:0px;writing-mode:lr-tb;text-anchor:middle;fill:#ffcc00;fill-opacity:1;stroke:none;stroke-width:0.269083" />
    <path
       d="m 43.077932,51.746973 c 0,-1.721058 -1.406233,-3.1063 -3.1063,-3.1063 h -8.899129 c -1.721055,0 -3.1063,1.385242 -3.1063,3.1063 v 2.980369 c 0,1.721055 1.385245,3.1063 3.1063,3.1063 h 8.710233 v 2.644552 h -8.563313 v -1.238322 h -3.25322 v 1.40623 c 0,1.721056 1.385245,3.1063 3.1063,3.1063 h 8.899129 c 1.700067,0 3.1063,-1.385244 3.1063,-3.1063 v -2.980368 c 0,-1.721058 -1.406233,-3.1063 -3.1063,-3.1063 h -8.752209 v -2.644553 h 8.563313 v 1.238323 h 3.295196 v -1.406231"
       id="path552"
       inkscape:connector-curvature="0"
       style="font-style:normal;font-variant:normal;font-weight:900;font-stretch:normal;font-size:78px;line-height:125%;font-family:Orbitron;-inkscape-font-specification:'Orbitron Heavy';text-align:center;letter-spacing:9px;word-spacing:0px;writing-mode:lr-tb;text-anchor:middle;fill:#ffcc00;fill-opacity:1;stroke:none;stroke-width:0.269083" />
    <path
       d="m 50.899306,48.640673 c -1.721055,0 -3.106299,1.385242 -3.106299,3.1063 v 12.005429 h 3.253219 v -4.869335 h 8.563313 v 4.869335 h 3.295196 V 51.746973 c 0,-1.721058 -1.406233,-3.1063 -3.127288,-3.1063 h -8.878141 m 0.14692,6.968187 v -3.693979 h 8.563313 v 3.693979 h -8.563313"
       id="path554"
       inkscape:connector-curvature="0"
       style="font-style:normal;font-variant:normal;font-weight:900;font-stretch:normal;font-size:78px;line-height:125%;font-family:Orbitron;-inkscape-font-specification:'Orbitron Heavy';text-align:center;letter-spacing:9px;word-spacing:0px;writing-mode:lr-tb;text-anchor:middle;fill:#ffcc00;fill-opacity:1;stroke:none;stroke-width:0.269083" />
    <path
       d="m 82.72465,51.746973 c 0,-1.721058 -1.40623,-3.1063 -3.106299,-3.1063 h -8.89913 c -1.721055,0 -3.106299,1.385242 -3.106299,3.1063 v 2.980369 c 0,1.721055 1.385244,3.1063 3.106299,3.1063 h 8.710233 v 2.644552 h -8.563313 v -1.238322 h -3.253219 v 1.40623 c 0,1.721056 1.385244,3.1063 3.106299,3.1063 h 8.89913 c 1.700069,0 3.106299,-1.385244 3.106299,-3.1063 v -2.980368 c 0,-1.721058 -1.40623,-3.1063 -3.106299,-3.1063 h -8.75221 v -2.644553 h 8.563313 v 1.238323 h 3.295196 v -1.406231"
       id="path556"
       inkscape:connector-curvature="0"
       style="font-style:normal;font-variant:normal;font-weight:900;font-stretch:normal;font-size:78px;line-height:125%;font-family:Orbitron;-inkscape-font-specification:'Orbitron Heavy';text-align:center;letter-spacing:9px;word-spacing:0px;writing-mode:lr-tb;text-anchor:middle;fill:#ffcc00;fill-opacity:1;stroke:none;stroke-width:0.269083" />
  </g>
</svg>
