ISO-10303-21;
HEADER;
FILE_DESCRIPTION (( 'STEP AP214' ),
    '1' );
FILE_NAME ('NCU18WB473D60RB.STEP',
    '2020-07-30T19:24:48',
    ( '' ),
    ( '' ),
    'SwSTEP 2.0',
    'SolidWorks 2017',
    '' );
FILE_SCHEMA (( 'AUTOMOTIVE_DESIGN' ));
ENDSEC;

DATA;
#1 = CARTESIAN_POINT ( 'NONE',  ( 0.8000000000000000400, 0.03999999999999999400, -0.3999999999999998000 ) ) ;
#2 = ORIENTED_EDGE ( 'NONE', *, *, #765, .T. ) ;
#3 = ADVANCED_FACE ( 'NONE', ( #339 ), #18, .T. ) ;
#4 = EDGE_CURVE ( 'NONE', #125, #636, #536, .T. ) ;
#5 = VERTEX_POINT ( 'NONE', #788 ) ;
#6 = CARTESIAN_POINT ( 'NONE',  ( -0.7600000000000000100, 0.9100000000000000300, -0.3999999999999998000 ) ) ;
#7 = AXIS2_PLACEMENT_3D ( 'NONE', #543, #59, #841 ) ;
#8 = DIRECTION ( 'NONE',  ( 1.355252715606880300E-016, 0.0000000000000000000, -1.000000000000000000 ) ) ;
#9 = ADVANCED_FACE ( 'NONE', ( #689 ), #766, .T. ) ;
#10 = CARTESIAN_POINT ( 'NONE',  ( -0.7599999999999999000, 0.9100000000000000300, 2.059984127722458700E-016 ) ) ;
#11 = AXIS2_PLACEMENT_3D ( 'NONE', #255, #758, #970 ) ;
#12 = FACE_OUTER_BOUND ( 'NONE', #631, .T. ) ;
#13 = ORIENTED_EDGE ( 'NONE', *, *, #949, .F. ) ;
#14 = DIRECTION ( 'NONE',  ( 0.0000000000000000000, 0.0000000000000000000, 1.000000000000000000 ) ) ;
#15 = LINE ( 'NONE', #768, #943 ) ;
#16 = ORIENTED_EDGE ( 'NONE', *, *, #181, .F. ) ;
#17 = CIRCLE ( 'NONE', #93, 0.03999999999999999400 ) ;
#18 = SPHERICAL_SURFACE ( 'NONE', #858, 0.04000000000000000100 ) ;
#19 = DIRECTION ( 'NONE',  ( -8.673617379884036700E-017, 0.0000000000000000000, -1.000000000000000000 ) ) ;
#20 = ORIENTED_EDGE ( 'NONE', *, *, #409, .F. ) ;
#21 = EDGE_CURVE ( 'NONE', #1191, #996, #980, .T. ) ;
#22 = DIRECTION ( 'NONE',  ( 0.0000000000000000000, 0.0000000000000000000, -1.000000000000000000 ) ) ;
#23 = CARTESIAN_POINT ( 'NONE',  ( -0.3999999999999999700, 0.9366666666666666500, -0.3599999999999999300 ) ) ;
#24 = EDGE_CURVE ( 'NONE', #1164, #189, #1037, .T. ) ;
#25 = AXIS2_PLACEMENT_3D ( 'NONE', #524, #145, #422 ) ;
#26 = DIRECTION ( 'NONE',  ( 0.0000000000000000000, -0.0000000000000000000, 1.000000000000000000 ) ) ;
#27 = ADVANCED_FACE ( 'NONE', ( #704 ), #417, .F. ) ;
#28 = EDGE_LOOP ( 'NONE', ( #55, #1111, #13, #1098 ) ) ;
#29 = ORIENTED_EDGE ( 'NONE', *, *, #698, .T. ) ;
#30 = FACE_OUTER_BOUND ( 'NONE', #490, .T. ) ;
#31 = CYLINDRICAL_SURFACE ( 'NONE', #240, 0.03999999999999999400 ) ;
#32 = DIRECTION ( 'NONE',  ( 1.000000000000000000, -0.0000000000000000000, 0.0000000000000000000 ) ) ;
#33 = DIRECTION ( 'NONE',  ( 0.0000000000000000000, -1.000000000000000000, 0.0000000000000000000 ) ) ;
#34 = ORIENTED_EDGE ( 'NONE', *, *, #1120, .T. ) ;
#35 = DIRECTION ( 'NONE',  ( 2.032879073410321100E-016, 0.0000000000000000000, -1.000000000000000000 ) ) ;
#36 = EDGE_CURVE ( 'NONE', #109, #1129, #429, .T. ) ;
#37 = AXIS2_PLACEMENT_3D ( 'NONE', #10, #221, #1003 ) ;
#38 = DIRECTION ( 'NONE',  ( 1.000000000000000000, 0.0000000000000000000, 2.710505431213758100E-016 ) ) ;
#39 = FACE_OUTER_BOUND ( 'NONE', #493, .T. ) ;
#40 = EDGE_CURVE ( 'NONE', #142, #315, #611, .T. ) ;
#41 = COLOUR_RGB ( '',0.7921568627450980000, 0.8196078431372548800, 0.9333333333333333500 ) ;
#42 =( GEOMETRIC_REPRESENTATION_CONTEXT ( 3 ) GLOBAL_UNCERTAINTY_ASSIGNED_CONTEXT ( ( #1114 ) ) GLOBAL_UNIT_ASSIGNED_CONTEXT ( ( #562, #752, #1165 ) ) REPRESENTATION_CONTEXT ( 'NONE', 'WORKASPACE' ) );
#43 = DIRECTION ( 'NONE',  ( 1.000000000000000000, 0.0000000000000000000, -1.355252715606880300E-016 ) ) ;
#44 = VECTOR ( 'NONE', #783, 1000.000000000000000 ) ;
#45 = ORIENTED_EDGE ( 'NONE', *, *, #586, .F. ) ;
#46 = CARTESIAN_POINT ( 'NONE',  ( -0.7599999999999997900, 0.9499999999999999600, 0.4000000000000000800 ) ) ;
#47 = DIRECTION ( 'NONE',  ( -1.000000000000000000, -0.0000000000000000000, 8.673617379884036700E-017 ) ) ;
#48 =( LENGTH_UNIT ( ) NAMED_UNIT ( * ) SI_UNIT ( .MILLI., .METRE. ) );
#49 = CARTESIAN_POINT ( 'NONE',  ( -0.7599999999999999000, 0.0000000000000000000, 2.059984127722458700E-016 ) ) ;
#50 = SHAPE_DEFINITION_REPRESENTATION ( #625, #832 ) ;
#51 = CARTESIAN_POINT ( 'NONE',  ( -0.7600000000000000100, 0.9499999999999999600, -0.3599999999999998200 ) ) ;
#52 = ORIENTED_EDGE ( 'NONE', *, *, #1269, .T. ) ;
#53 = EDGE_CURVE ( 'NONE', #1230, #618, #1052, .T. ) ;
#54 = DIRECTION ( 'NONE',  ( -1.000000000000000000, -0.0000000000000000000, 8.673617379884036700E-017 ) ) ;
#55 = ORIENTED_EDGE ( 'NONE', *, *, #1011, .F. ) ;
#56 = CYLINDRICAL_SURFACE ( 'NONE', #928, 0.02666666666666670000 ) ;
#57 = VERTEX_POINT ( 'NONE', #23 ) ;
#58 = DIRECTION ( 'NONE',  ( -1.000000000000000000, -0.0000000000000000000, -0.0000000000000000000 ) ) ;
#59 = DIRECTION ( 'NONE',  ( -1.000000000000000000, 0.0000000000000000000, 0.0000000000000000000 ) ) ;
#60 = CARTESIAN_POINT ( 'NONE',  ( 0.4000000000132786200, 0.01333333333333333200, -0.3599999999999998200 ) ) ;
#61 = EDGE_LOOP ( 'NONE', ( #1135, #790, #749 ) ) ;
#62 = PRODUCT_CONTEXT ( 'NONE', #653, 'mechanical' ) ;
#63 = CARTESIAN_POINT ( 'NONE',  ( 0.7599999999999997900, 0.9499999999999999600, 0.3600000000000001000 ) ) ;
#64 = DIRECTION ( 'NONE',  ( -1.000000000000000000, 0.0000000000000000000, 0.0000000000000000000 ) ) ;
#65 = EDGE_CURVE ( 'NONE', #476, #800, #312, .T. ) ;
#66 = DIRECTION ( 'NONE',  ( 0.0000000000000000000, 0.0000000000000000000, 1.000000000000000000 ) ) ;
#67 = AXIS2_PLACEMENT_3D ( 'NONE', #738, #178, #464 ) ;
#68 = DIRECTION ( 'NONE',  ( 1.000000000000000000, 0.0000000000000000000, 0.0000000000000000000 ) ) ;
#69 = CYLINDRICAL_SURFACE ( 'NONE', #391, 0.02666666666666670000 ) ;
#70 = ORIENTED_EDGE ( 'NONE', *, *, #4, .F. ) ;
#71 = CARTESIAN_POINT ( 'NONE',  ( 0.3999999999999999700, 0.9100000000000000300, -0.3599999999999998800 ) ) ;
#72 = CIRCLE ( 'NONE', #461, 0.03999999999999999400 ) ;
#73 = CARTESIAN_POINT ( 'NONE',  ( -0.7599999999999997900, 0.04000000000000000100, 0.3600000000000001000 ) ) ;
#74 = VERTEX_POINT ( 'NONE', #703 ) ;
#75 = ORIENTED_EDGE ( 'NONE', *, *, #53, .F. ) ;
#76 =( NAMED_UNIT ( * ) PLANE_ANGLE_UNIT ( ) SI_UNIT ( $, .RADIAN. ) );
#77 = CARTESIAN_POINT ( 'NONE',  ( 0.3999999999999999700, 0.03999999999999999400, -0.3599999999999998800 ) ) ;
#78 = ORIENTED_EDGE ( 'NONE', *, *, #657, .T. ) ;
#79 = ORIENTED_EDGE ( 'NONE', *, *, #735, .T. ) ;
#80 = CARTESIAN_POINT ( 'NONE',  ( -0.8000000000000000400, 0.9100000000000000300, -0.3999999999999998000 ) ) ;
#81 = DIRECTION ( 'NONE',  ( 0.0000000000000000000, -0.0000000000000000000, 1.000000000000000000 ) ) ;
#82 = DIRECTION ( 'NONE',  ( 0.0000000000000000000, -0.0000000000000000000, -1.000000000000000000 ) ) ;
#83 = EDGE_CURVE ( 'NONE', #1237, #142, #203, .T. ) ;
#84 = EDGE_CURVE ( 'NONE', #118, #1239, #1219, .T. ) ;
#85 = CARTESIAN_POINT ( 'NONE',  ( 0.4000000000132786200, 0.9366666666666666500, -0.3600000000000000400 ) ) ;
#86 = ORIENTED_EDGE ( 'NONE', *, *, #433, .F. ) ;
#87 = VECTOR ( 'NONE', #929, 1000.000000000000000 ) ;
#88 = LINE ( 'NONE', #256, #900 ) ;
#89 = ADVANCED_FACE ( 'NONE', ( #139 ), #1017, .T. ) ;
#90 = VECTOR ( 'NONE', #502, 1000.000000000000000 ) ;
#91 = CARTESIAN_POINT ( 'NONE',  ( 0.7999999999999998200, 0.03999999999999999400, 0.3600000000000001000 ) ) ;
#92 = ORIENTED_EDGE ( 'NONE', *, *, #1120, .F. ) ;
#93 = AXIS2_PLACEMENT_3D ( 'NONE', #337, #144, #239 ) ;
#94 = MANIFOLD_SOLID_BREP ( 'Boss-Extrude2', #687 ) ;
#95 = CARTESIAN_POINT ( 'NONE',  ( -0.3999999999999998000, 0.9499999999999999600, 0.3600000000000001000 ) ) ;
#96 = CARTESIAN_POINT ( 'NONE',  ( -0.3999999999999999700, 0.9100000000000000300, -0.3999999999999998600 ) ) ;
#97 = ADVANCED_FACE ( 'NONE', ( #801 ), #1195, .T. ) ;
#98 = EDGE_CURVE ( 'NONE', #670, #125, #17, .T. ) ;
#99 = EDGE_LOOP ( 'NONE', ( #580, #786, #920, #161 ) ) ;
#100 = AXIS2_PLACEMENT_3D ( 'NONE', #1194, #497, #215 ) ;
#101 = DIRECTION ( 'NONE',  ( 0.0000000000000000000, 1.000000000000000000, 0.0000000000000000000 ) ) ;
#102 = ORIENTED_EDGE ( 'NONE', *, *, #242, .T. ) ;
#103 = DIRECTION ( 'NONE',  ( 0.0000000000000000000, 0.0000000000000000000, 1.000000000000000000 ) ) ;
#104 = LINE ( 'NONE', #886, #1046 ) ;
#105 = CIRCLE ( 'NONE', #940, 0.03999999999999999400 ) ;
#106 = FACE_OUTER_BOUND ( 'NONE', #484, .T. ) ;
#107 = ORIENTED_EDGE ( 'NONE', *, *, #843, .T. ) ;
#108 = ORIENTED_EDGE ( 'NONE', *, *, #427, .F. ) ;
#109 = VERTEX_POINT ( 'NONE', #834 ) ;
#110 = EDGE_CURVE ( 'NONE', #372, #457, #324, .T. ) ;
#111 = EDGE_LOOP ( 'NONE', ( #228, #705, #948, #411 ) ) ;
#112 = CARTESIAN_POINT ( 'NONE',  ( -0.3999999999999999700, 0.9499999999999999600, -0.3999999999999998600 ) ) ;
#113 = AXIS2_PLACEMENT_3D ( 'NONE', #693, #101, #993 ) ;
#114 = DIRECTION ( 'NONE',  ( 0.0000000000000000000, 1.000000000000000000, 0.0000000000000000000 ) ) ;
#115 = ADVANCED_FACE ( 'NONE', ( #1087 ), #1026, .T. ) ;
#116 = CIRCLE ( 'NONE', #1148, 0.03999999999999999400 ) ;
#117 = ORIENTED_EDGE ( 'NONE', *, *, #131, .F. ) ;
#118 = VERTEX_POINT ( 'NONE', #150 ) ;
#119 = SPHERICAL_SURFACE ( 'NONE', #661, 0.04000000000000000100 ) ;
#120 = DIRECTION ( 'NONE',  ( 0.0000000000000000000, 0.0000000000000000000, 1.000000000000000000 ) ) ;
#121 = ORIENTED_EDGE ( 'NONE', *, *, #478, .T. ) ;
#122 = LINE ( 'NONE', #1231, #990 ) ;
#123 = VERTEX_POINT ( 'NONE', #1127 ) ;
#124 = DIRECTION ( 'NONE',  ( -1.000000000000000000, 0.0000000000000000000, 0.0000000000000000000 ) ) ;
#125 = VERTEX_POINT ( 'NONE', #831 ) ;
#126 = EDGE_CURVE ( 'NONE', #1089, #123, #813, .T. ) ;
#127 = CARTESIAN_POINT ( 'NONE',  ( 500000.0000000000600, 0.01333333333333333200, -0.3600000000433678500 ) ) ;
#128 = AXIS2_PLACEMENT_3D ( 'NONE', #371, #1247, #270 ) ;
#129 = DIRECTION ( 'NONE',  ( 0.0000000000000000000, -0.0000000000000000000, -1.000000000000000000 ) ) ;
#130 = ORIENTED_EDGE ( 'NONE', *, *, #373, .T. ) ;
#131 = EDGE_CURVE ( 'NONE', #1180, #716, #172, .T. ) ;
#132 = ORIENTED_EDGE ( 'NONE', *, *, #1078, .T. ) ;
#133 = CARTESIAN_POINT ( 'NONE',  ( 0.7999999999999998200, 0.9100000000000000300, 0.3600000000000001000 ) ) ;
#134 = CYLINDRICAL_SURFACE ( 'NONE', #263, 0.03999999999999999400 ) ;
#135 = EDGE_LOOP ( 'NONE', ( #163, #252, #1072, #865, #1214, #538, #107, #307 ) ) ;
#136 = AXIS2_PLACEMENT_3D ( 'NONE', #942, #1040, #1136 ) ;
#137 = LINE ( 'NONE', #1014, #667 ) ;
#138 = EDGE_LOOP ( 'NONE', ( #78, #1069, #897 ) ) ;
#139 = FACE_OUTER_BOUND ( 'NONE', #1013, .T. ) ;
#140 = VERTEX_POINT ( 'NONE', #724 ) ;
#141 = FILL_AREA_STYLE ('',( #1025 ) ) ;
#142 = VERTEX_POINT ( 'NONE', #133 ) ;
#143 = CARTESIAN_POINT ( 'NONE',  ( 0.0000000000000000000, 0.9499999999999999600, 0.0000000000000000000 ) ) ;
#144 = DIRECTION ( 'NONE',  ( -0.0000000000000000000, 0.0000000000000000000, -1.000000000000000000 ) ) ;
#145 = DIRECTION ( 'NONE',  ( -1.000000000000000000, 0.0000000000000000000, 0.0000000000000000000 ) ) ;
#146 = DIRECTION ( 'NONE',  ( 0.0000000000000000000, -1.000000000000000000, 0.0000000000000000000 ) ) ;
#147 = EDGE_CURVE ( 'NONE', #340, #125, #1071, .T. ) ;
#148 = VECTOR ( 'NONE', #35, 1000.000000000000000 ) ;
#149 = UNCERTAINTY_MEASURE_WITH_UNIT (LENGTH_MEASURE( 1.000000000000000100E-005 ), #774, 'distance_accuracy_value', 'NONE');
#150 = CARTESIAN_POINT ( 'NONE',  ( -0.7599999999999997900, 0.03999999999999999400, 0.4000000000000000800 ) ) ;
#151 = CYLINDRICAL_SURFACE ( 'NONE', #332, 0.03999999999999999400 ) ;
#152 = AXIS2_PLACEMENT_3D ( 'NONE', #198, #773, #873 ) ;
#153 = ORIENTED_EDGE ( 'NONE', *, *, #1011, .T. ) ;
#154 = DIRECTION ( 'NONE',  ( 0.0000000000000000000, 0.0000000000000000000, 1.000000000000000000 ) ) ;
#155 = CARTESIAN_POINT ( 'NONE',  ( -4.878909776184767500E-017, 0.0000000000000000000, -0.3599999999999999300 ) ) ;
#156 = CARTESIAN_POINT ( 'NONE',  ( -0.3999999999999999700, 0.03999999999999999400, -0.3866666666666665500 ) ) ;
#157 = DIRECTION ( 'NONE',  ( -1.000000000000000000, -0.0000000000000000000, 8.673617379884036700E-017 ) ) ;
#158 = AXIS2_PLACEMENT_3D ( 'NONE', #456, #1168, #1262 ) ;
#159 = CARTESIAN_POINT ( 'NONE',  ( -0.3999999999999998600, 0.9100000000000000300, 0.3866666666666666600 ) ) ;
#160 = DIRECTION ( 'NONE',  ( 1.000000000000000000, 0.0000000000000000000, 2.032879073410321100E-016 ) ) ;
#161 = ORIENTED_EDGE ( 'NONE', *, *, #973, .F. ) ;
#162 = DIRECTION ( 'NONE',  ( 0.0000000000000000000, 0.0000000000000000000, -1.000000000000000000 ) ) ;
#163 = ORIENTED_EDGE ( 'NONE', *, *, #910, .F. ) ;
#164 = ORIENTED_EDGE ( 'NONE', *, *, #1228, .F. ) ;
#165 = FACE_OUTER_BOUND ( 'NONE', #359, .T. ) ;
#166 = ORIENTED_EDGE ( 'NONE', *, *, #435, .T. ) ;
#167 = CIRCLE ( 'NONE', #11, 0.03999999999999999400 ) ;
#168 =( LENGTH_UNIT ( ) NAMED_UNIT ( * ) SI_UNIT ( .MILLI., .METRE. ) );
#169 = EDGE_LOOP ( 'NONE', ( #650, #29, #1125, #219 ) ) ;
#170 = CARTESIAN_POINT ( 'NONE',  ( 0.7600000000000000100, 0.9100000000000000300, -0.3599999999999998200 ) ) ;
#171 = AXIS2_PLACEMENT_3D ( 'NONE', #77, #1051, #447 ) ;
#172 = CIRCLE ( 'NONE', #136, 0.03999999999999999400 ) ;
#173 = DIRECTION ( 'NONE',  ( 1.000000000000000000, -0.0000000000000000000, 0.0000000000000000000 ) ) ;
#174 = ORIENTED_EDGE ( 'NONE', *, *, #762, .T. ) ;
#175 = ORIENTED_EDGE ( 'NONE', *, *, #1035, .F. ) ;
#176 = CARTESIAN_POINT ( 'NONE',  ( -0.3999999999999999700, 0.03999999999999999400, -0.3599999999999998800 ) ) ;
#177 = EDGE_LOOP ( 'NONE', ( #249, #132, #1134, #808 ) ) ;
#178 = DIRECTION ( 'NONE',  ( 0.0000000000000000000, -1.000000000000000000, 0.0000000000000000000 ) ) ;
#179 = CARTESIAN_POINT ( 'NONE',  ( -0.7999999999999998200, 0.03999999999999999400, 0.4000000000000000800 ) ) ;
#180 = MANIFOLD_SOLID_BREP ( 'Fillet1', #365 ) ;
#181 = EDGE_CURVE ( 'NONE', #189, #1221, #1131, .T. ) ;
#182 = CARTESIAN_POINT ( 'NONE',  ( 0.7599999999999997900, 0.9100000000000000300, 0.3600000000000001000 ) ) ;
#183 = DIRECTION ( 'NONE',  ( 0.0000000000000000000, 0.0000000000000000000, -1.000000000000000000 ) ) ;
#184 = DIRECTION ( 'NONE',  ( -1.000000000000000000, -0.0000000000000000000, 8.673617379884036700E-017 ) ) ;
#185 = DIRECTION ( 'NONE',  ( -0.0000000000000000000, -1.000000000000000000, -0.0000000000000000000 ) ) ;
#186 = VECTOR ( 'NONE', #388, 1000.000000000000000 ) ;
#187 = FACE_OUTER_BOUND ( 'NONE', #1091, .T. ) ;
#188 = VECTOR ( 'NONE', #1203, 1000.000000000000000 ) ;
#189 = VERTEX_POINT ( 'NONE', #932 ) ;
#190 = DIRECTION ( 'NONE',  ( 2.710505431213761600E-016, -0.0000000000000000000, -1.000000000000000000 ) ) ;
#191 = DIRECTION ( 'NONE',  ( 1.000000000000000000, 0.0000000000000000000, 0.0000000000000000000 ) ) ;
#192 = EDGE_CURVE ( 'NONE', #748, #1180, #881, .T. ) ;
#193 = DIRECTION ( 'NONE',  ( 0.0000000000000000000, 0.0000000000000000000, -1.000000000000000000 ) ) ;
#194 = AXIS2_PLACEMENT_3D ( 'NONE', #633, #1038, #1139 ) ;
#195 = CARTESIAN_POINT ( 'NONE',  ( -0.3999999999999999700, 0.9100000000000000300, -0.3599999999999999300 ) ) ;
#196 = PRESENTATION_LAYER_ASSIGNMENT (  '', '', ( #377 ) ) ;
#197 = ORIENTED_EDGE ( 'NONE', *, *, #84, .F. ) ;
#198 = CARTESIAN_POINT ( 'NONE',  ( -0.7599999999999997900, 0.9100000000000000300, 0.3600000000000001000 ) ) ;
#199 = VERTEX_POINT ( 'NONE', #1238 ) ;
#200 = LINE ( 'NONE', #969, #797 ) ;
#201 = VERTEX_POINT ( 'NONE', #1234 ) ;
#202 = VECTOR ( 'NONE', #319, 1000.000000000000000 ) ;
#203 = LINE ( 'NONE', #601, #90 ) ;
#204 = DIRECTION ( 'NONE',  ( -1.000000000000000000, -0.0000000000000000000, 8.673617379884036700E-017 ) ) ;
#205 = EDGE_CURVE ( 'NONE', #5, #393, #338, .T. ) ;
#206 = CARTESIAN_POINT ( 'NONE',  ( 0.7599999999999997900, 0.03999999999999999400, 0.4000000000000000800 ) ) ;
#207 = ORIENTED_EDGE ( 'NONE', *, *, #712, .T. ) ;
#208 = ORIENTED_EDGE ( 'NONE', *, *, #669, .F. ) ;
#209 = DIRECTION ( 'NONE',  ( -0.0000000000000000000, -0.0000000000000000000, 1.000000000000000000 ) ) ;
#210 = CARTESIAN_POINT ( 'NONE',  ( -0.8000000000000000400, 0.9499999999999999600, -0.3599999999999998200 ) ) ;
#211 = CARTESIAN_POINT ( 'NONE',  ( 0.4000000000132786200, 0.9100000000000000300, 0.3599999999999999300 ) ) ;
#212 = ADVANCED_FACE ( 'NONE', ( #295 ), #521, .T. ) ;
#213 = DIRECTION ( 'NONE',  ( -0.0000000000000000000, 1.000000000000000000, -0.0000000000000000000 ) ) ;
#214 = DIRECTION ( 'NONE',  ( 2.032879073410321100E-016, 0.0000000000000000000, 1.000000000000000000 ) ) ;
#215 = DIRECTION ( 'NONE',  ( 0.0000000000000000000, 0.0000000000000000000, 1.000000000000000000 ) ) ;
#216 = CARTESIAN_POINT ( 'NONE',  ( 0.0000000000000000000, 0.0000000000000000000, 0.3600000000000001000 ) ) ;
#217 = VECTOR ( 'NONE', #317, 1000.000000000000000 ) ;
#218 = LINE ( 'NONE', #355, #549 ) ;
#219 = ORIENTED_EDGE ( 'NONE', *, *, #110, .F. ) ;
#220 = EDGE_CURVE ( 'NONE', #875, #189, #782, .T. ) ;
#221 = DIRECTION ( 'NONE',  ( -2.710505431213761600E-016, 0.0000000000000000000, -1.000000000000000000 ) ) ;
#222 = ORIENTED_EDGE ( 'NONE', *, *, #40, .T. ) ;
#223 = CARTESIAN_POINT ( 'NONE',  ( 0.7599999999999997900, 0.9499999999999999600, 0.4000000000000000800 ) ) ;
#224 = AXIS2_PLACEMENT_3D ( 'NONE', #1079, #678, #887 ) ;
#225 = ORIENTED_EDGE ( 'NONE', *, *, #1169, .F. ) ;
#226 = DIRECTION ( 'NONE',  ( -0.0000000000000000000, 1.000000000000000000, -0.0000000000000000000 ) ) ;
#227 = DIRECTION ( 'NONE',  ( 0.0000000000000000000, 0.0000000000000000000, -1.000000000000000000 ) ) ;
#228 = ORIENTED_EDGE ( 'NONE', *, *, #553, .F. ) ;
#229 = ORIENTED_EDGE ( 'NONE', *, *, #24, .T. ) ;
#230 = ORIENTED_EDGE ( 'NONE', *, *, #723, .F. ) ;
#231 = DIRECTION ( 'NONE',  ( -1.000000000000000000, 0.0000000000000000000, 0.0000000000000000000 ) ) ;
#232 = EDGE_LOOP ( 'NONE', ( #567, #166, #483, #386 ) ) ;
#233 = CYLINDRICAL_SURFACE ( 'NONE', #37, 0.03999999999999999400 ) ;
#234 = DIRECTION ( 'NONE',  ( -1.000000000000000000, 0.0000000000000000000, -1.355252715606880300E-016 ) ) ;
#235 = PLANE ( 'NONE',  #482 ) ;
#236 = CIRCLE ( 'NONE', #353, 0.03999999999999999400 ) ;
#237 = VECTOR ( 'NONE', #458, 1000.000000000000000 ) ;
#238 = ORIENTED_EDGE ( 'NONE', *, *, #762, .F. ) ;
#239 = DIRECTION ( 'NONE',  ( 1.000000000000000000, 0.0000000000000000000, 0.0000000000000000000 ) ) ;
#240 = AXIS2_PLACEMENT_3D ( 'NONE', #1205, #597, #390 ) ;
#241 = CARTESIAN_POINT ( 'NONE',  ( 0.7999999999999998200, 0.03999999999999999400, 0.3600000000000001000 ) ) ;
#242 = EDGE_CURVE ( 'NONE', #618, #517, #564, .T. ) ;
#243 = DIRECTION ( 'NONE',  ( 0.0000000000000000000, 1.000000000000000000, 0.0000000000000000000 ) ) ;
#244 = DIRECTION ( 'NONE',  ( 0.0000000000000000000, 0.0000000000000000000, -1.000000000000000000 ) ) ;
#245 =( GEOMETRIC_REPRESENTATION_CONTEXT ( 3 ) GLOBAL_UNCERTAINTY_ASSIGNED_CONTEXT ( ( #1151 ) ) GLOBAL_UNIT_ASSIGNED_CONTEXT ( ( #168, #76, #756 ) ) REPRESENTATION_CONTEXT ( 'NONE', 'WORKASPACE' ) );
#246 = CIRCLE ( 'NONE', #820, 0.03999999999999999400 ) ;
#247 = PLANE ( 'NONE',  #1174 ) ;
#248 = SURFACE_STYLE_FILL_AREA ( #530 ) ;
#249 = ORIENTED_EDGE ( 'NONE', *, *, #1064, .T. ) ;
#250 = ORIENTED_EDGE ( 'NONE', *, *, #1133, .F. ) ;
#251 =( NAMED_UNIT ( * ) PLANE_ANGLE_UNIT ( ) SI_UNIT ( $, .RADIAN. ) );
#252 = ORIENTED_EDGE ( 'NONE', *, *, #1269, .F. ) ;
#253 = DIRECTION ( 'NONE',  ( 2.710505431213761600E-016, -0.0000000000000000000, 1.000000000000000000 ) ) ;
#254 = CARTESIAN_POINT ( 'NONE',  ( -4.878909776184767500E-017, 0.9100000000000000300, -0.3599999999999999300 ) ) ;
#255 = CARTESIAN_POINT ( 'NONE',  ( 0.7600000000000000100, 0.9100000000000000300, -0.3599999999999998200 ) ) ;
#256 = CARTESIAN_POINT ( 'NONE',  ( 0.4000000000132786200, 0.9100000000000000300, 0.3866666666666665500 ) ) ;
#257 = EDGE_CURVE ( 'NONE', #109, #315, #236, .T. ) ;
#258 = AXIS2_PLACEMENT_3D ( 'NONE', #683, #893, #994 ) ;
#259 = CYLINDRICAL_SURFACE ( 'NONE', #67, 0.03999999999999999400 ) ;
#260 = ORIENTED_EDGE ( 'NONE', *, *, #1212, .F. ) ;
#261 = CARTESIAN_POINT ( 'NONE',  ( -0.7999999999999998200, 0.9499999999999999600, 0.4000000000000000800 ) ) ;
#262 = VECTOR ( 'NONE', #710, 1000.000000000000000 ) ;
#263 = AXIS2_PLACEMENT_3D ( 'NONE', #750, #868, #662 ) ;
#264 = CARTESIAN_POINT ( 'NONE',  ( -0.3999999999999999700, 0.9499999999999999600, -0.3999999999999998600 ) ) ;
#265 = VECTOR ( 'NONE', #157, 1000.000000000000000 ) ;
#266 = CARTESIAN_POINT ( 'NONE',  ( -0.3999999999999999700, 0.0000000000000000000, -0.3599999999999998800 ) ) ;
#267 = DIRECTION ( 'NONE',  ( 0.0000000000000000000, 0.0000000000000000000, 1.000000000000000000 ) ) ;
#268 = ORIENTED_EDGE ( 'NONE', *, *, #553, .T. ) ;
#269 = CARTESIAN_POINT ( 'NONE',  ( 500000.0000000000600, 0.01333333333333333200, 0.3599999999566316800 ) ) ;
#270 = DIRECTION ( 'NONE',  ( 1.000000000000000000, 0.0000000000000000000, 0.0000000000000000000 ) ) ;
#271 = AXIS2_PLACEMENT_3D ( 'NONE', #814, #1208, #154 ) ;
#272 = CARTESIAN_POINT ( 'NONE',  ( 0.4000000000132786200, 0.01333333333333334300, 0.3599999999999997100 ) ) ;
#273 = DIRECTION ( 'NONE',  ( -1.000000000000000000, -0.0000000000000000000, -1.355252715606880300E-016 ) ) ;
#274 = LINE ( 'NONE', #275, #333 ) ;
#275 = CARTESIAN_POINT ( 'NONE',  ( 0.3999999999999998000, 0.9499999999999999600, 0.3600000000000001000 ) ) ;
#276 = FACE_OUTER_BOUND ( 'NONE', #138, .T. ) ;
#277 = CARTESIAN_POINT ( 'NONE',  ( -0.7600000000000000100, 0.03999999999999999400, -0.3999999999999998000 ) ) ;
#278 = ORIENTED_EDGE ( 'NONE', *, *, #494, .T. ) ;
#279 = LINE ( 'NONE', #1063, #1083 ) ;
#280 = ORIENTED_EDGE ( 'NONE', *, *, #987, .T. ) ;
#281 = ORIENTED_EDGE ( 'NONE', *, *, #579, .T. ) ;
#282 = DIRECTION ( 'NONE',  ( 0.0000000000000000000, 0.0000000000000000000, 1.000000000000000000 ) ) ;
#283 = CARTESIAN_POINT ( 'NONE',  ( -0.3999999999999999700, 0.03999999999999999400, -0.3599999999999999300 ) ) ;
#284 = EDGE_CURVE ( 'NONE', #118, #1144, #1279, .T. ) ;
#285 = PLANE ( 'NONE',  #848 ) ;
#286 = EDGE_CURVE ( 'NONE', #879, #1239, #978, .T. ) ;
#287 = ORIENTED_EDGE ( 'NONE', *, *, #494, .F. ) ;
#288 = PLANE ( 'NONE',  #1121 ) ;
#289 = ADVANCED_FACE ( 'NONE', ( #717 ), #56, .T. ) ;
#290 = AXIS2_PLACEMENT_3D ( 'NONE', #599, #512, #299 ) ;
#291 = ORIENTED_EDGE ( 'NONE', *, *, #220, .T. ) ;
#292 = CIRCLE ( 'NONE', #1100, 0.03999999999999999400 ) ;
#293 = FACE_OUTER_BOUND ( 'NONE', #907, .T. ) ;
#294 = ADVANCED_FACE ( 'NONE', ( #608 ), #740, .F. ) ;
#295 = FACE_OUTER_BOUND ( 'NONE', #891, .T. ) ;
#296 = CARTESIAN_POINT ( 'NONE',  ( 0.8000000000000000400, 0.9499999999999999600, -0.3999999999999998000 ) ) ;
#297 = ORIENTED_EDGE ( 'NONE', *, *, #910, .T. ) ;
#298 = CARTESIAN_POINT ( 'NONE',  ( 0.3999999999999999700, 0.0000000000000000000, -0.3599999999999998800 ) ) ;
#299 = DIRECTION ( 'NONE',  ( 0.0000000000000000000, 0.0000000000000000000, -1.000000000000000000 ) ) ;
#300 = EDGE_CURVE ( 'NONE', #380, #1005, #1243, .T. ) ;
#301 = CARTESIAN_POINT ( 'NONE',  ( -0.3999999999999998600, 0.01333333333333334300, 0.3599999999999998200 ) ) ;
#302 = AXIS2_PLACEMENT_3D ( 'NONE', #513, #714, #26 ) ;
#303 = CARTESIAN_POINT ( 'NONE',  ( 0.7599999999999997900, 0.04000000000000000100, 0.3600000000000001000 ) ) ;
#304 = CARTESIAN_POINT ( 'NONE',  ( 4.878909776184767500E-017, 0.9100000000000000300, -0.3599999999999999300 ) ) ;
#305 = CIRCLE ( 'NONE', #450, 0.03999999999999999400 ) ;
#306 = VECTOR ( 'NONE', #665, 1000.000000000000000 ) ;
#307 = ORIENTED_EDGE ( 'NONE', *, *, #542, .F. ) ;
#308 = CARTESIAN_POINT ( 'NONE',  ( -0.7599999999999997900, 0.0000000000000000000, 0.3600000000000001000 ) ) ;
#309 = VECTOR ( 'NONE', #1173, 1000.000000000000000 ) ;
#310 = EDGE_CURVE ( 'NONE', #1191, #140, #88, .T. ) ;
#311 = CARTESIAN_POINT ( 'NONE',  ( 0.7999999999999998200, 0.9100000000000000300, 0.4000000000000000800 ) ) ;
#312 = LINE ( 'NONE', #216, #1245 ) ;
#313 = VECTOR ( 'NONE', #33, 1000.000000000000000 ) ;
#314 = CARTESIAN_POINT ( 'NONE',  ( 0.7599999999999997900, 0.04000000000000000100, 0.3600000000000001000 ) ) ;
#315 = VERTEX_POINT ( 'NONE', #63 ) ;
#316 = CARTESIAN_POINT ( 'NONE',  ( 0.3999999999999998000, 0.9499999999999999600, 0.3599999999999998800 ) ) ;
#317 = DIRECTION ( 'NONE',  ( 0.0000000000000000000, -1.000000000000000000, 0.0000000000000000000 ) ) ;
#318 = DIRECTION ( 'NONE',  ( -2.032879073410321300E-016, -0.0000000000000000000, -1.000000000000000000 ) ) ;
#319 = DIRECTION ( 'NONE',  ( -0.0000000000000000000, 1.000000000000000000, 0.0000000000000000000 ) ) ;
#320 = ORIENTED_EDGE ( 'NONE', *, *, #1145, .T. ) ;
#321 = FACE_OUTER_BOUND ( 'NONE', #1081, .T. ) ;
#322 = SPHERICAL_SURFACE ( 'NONE', #194, 0.04000000000000000100 ) ;
#323 = EDGE_CURVE ( 'NONE', #803, #593, #350, .T. ) ;
#324 = LINE ( 'NONE', #726, #428 ) ;
#325 = ADVANCED_FACE ( 'NONE', ( #400 ), #1058, .F. ) ;
#326 = AXIS2_PLACEMENT_3D ( 'NONE', #707, #120, #514 ) ;
#327 = CARTESIAN_POINT ( 'NONE',  ( 0.7599999999999999000, 0.9100000000000000300, 2.059984127722458700E-016 ) ) ;
#328 = VERTEX_POINT ( 'NONE', #649 ) ;
#329 = AXIS2_PLACEMENT_3D ( 'NONE', #972, #974, #68 ) ;
#330 = EDGE_CURVE ( 'NONE', #1263, #748, #218, .T. ) ;
#331 = EDGE_LOOP ( 'NONE', ( #1217, #369, #208, #619, #260, #508, #1250, #250 ) ) ;
#332 = AXIS2_PLACEMENT_3D ( 'NONE', #1010, #922, #1113 ) ;
#333 = VECTOR ( 'NONE', #471, 1000.000000000000000 ) ;
#334 = ADVANCED_FACE ( 'NONE', ( #1193 ), #288, .F. ) ;
#335 = FACE_OUTER_BOUND ( 'NONE', #1034, .T. ) ;
#336 = ORIENTED_EDGE ( 'NONE', *, *, #503, .F. ) ;
#337 = CARTESIAN_POINT ( 'NONE',  ( -0.7599999999999997900, 0.9100000000000000300, 0.3600000000000001000 ) ) ;
#338 = CIRCLE ( 'NONE', #1027, 0.03999999999999999400 ) ;
#339 = FACE_OUTER_BOUND ( 'NONE', #61, .T. ) ;
#340 = VERTEX_POINT ( 'NONE', #465 ) ;
#341 = DIRECTION ( 'NONE',  ( 2.710505431213761600E-016, 0.0000000000000000000, -1.000000000000000000 ) ) ;
#342 = EDGE_CURVE ( 'NONE', #996, #1260, #1143, .T. ) ;
#343 = DIRECTION ( 'NONE',  ( -1.355252715606880300E-016, 0.0000000000000000000, -1.000000000000000000 ) ) ;
#344 = CARTESIAN_POINT ( 'NONE',  ( 0.4000000000132786200, 0.03999999999999999400, -0.3866666666666666600 ) ) ;
#345 = ORIENTED_EDGE ( 'NONE', *, *, #330, .F. ) ;
#346 = AXIS2_PLACEMENT_3D ( 'NONE', #112, #1106, #214 ) ;
#347 = LINE ( 'NONE', #419, #87 ) ;
#348 = CARTESIAN_POINT ( 'NONE',  ( 0.3999999999999999700, 0.0000000000000000000, -0.3999999999999998600 ) ) ;
#349 = ORIENTED_EDGE ( 'NONE', *, *, #1212, .T. ) ;
#350 = LINE ( 'NONE', #155, #1016 ) ;
#351 = DIRECTION ( 'NONE',  ( 0.0000000000000000000, 0.0000000000000000000, 1.000000000000000000 ) ) ;
#352 = DIRECTION ( 'NONE',  ( 0.0000000000000000000, -1.000000000000000000, 0.0000000000000000000 ) ) ;
#353 = AXIS2_PLACEMENT_3D ( 'NONE', #838, #847, #66 ) ;
#354 = CARTESIAN_POINT ( 'NONE',  ( 500000.0000000000600, 0.04000000000000043100, 0.3866666666232985200 ) ) ;
#355 = CARTESIAN_POINT ( 'NONE',  ( -0.7600000000000000100, 0.9499999999999999600, -0.3999999999999998000 ) ) ;
#356 = ORIENTED_EDGE ( 'NONE', *, *, #843, .F. ) ;
#357 = EDGE_LOOP ( 'NONE', ( #729, #453, #395, #638 ) ) ;
#358 = EDGE_CURVE ( 'NONE', #682, #1237, #576, .T. ) ;
#359 = EDGE_LOOP ( 'NONE', ( #108, #690, #1023, #606 ) ) ;
#360 = CARTESIAN_POINT ( 'NONE',  ( -0.3999999999999998600, 0.04000000000000043100, 0.3866666666666666600 ) ) ;
#361 = LINE ( 'NONE', #1080, #186 ) ;
#362 = DIRECTION ( 'NONE',  ( 0.0000000000000000000, 1.000000000000000000, 0.0000000000000000000 ) ) ;
#363 = PRESENTATION_LAYER_ASSIGNMENT (  '', '', ( #1024 ) ) ;
#364 = CYLINDRICAL_SURFACE ( 'NONE', #1166, 0.02666666666666664800 ) ;
#365 = CLOSED_SHELL ( 'NONE', ( #585, #294, #804, #772, #883, #515, #921, #9, #525, #999, #3, #903, #392, #511, #405, #663, #607, #212 ) ) ;
#366 = DIRECTION ( 'NONE',  ( -1.000000000000000000, 0.0000000000000000000, 0.0000000000000000000 ) ) ;
#367 = COLOUR_RGB ( '',0.2509803921568627400, 0.2509803921568627400, 0.2509803921568627400 ) ;
#368 = EDGE_LOOP ( 'NONE', ( #835, #222, #798 ) ) ;
#369 = ORIENTED_EDGE ( 'NONE', *, *, #1210, .F. ) ;
#370 = APPLICATION_CONTEXT ( 'automotive_design' ) ;
#371 = CARTESIAN_POINT ( 'NONE',  ( -0.7599999999999997900, 0.03999999999999999400, 0.3600000000000001000 ) ) ;
#372 = VERTEX_POINT ( 'NONE', #1092 ) ;
#373 = EDGE_CURVE ( 'NONE', #618, #1191, #1115, .T. ) ;
#374 = CARTESIAN_POINT ( 'NONE',  ( -0.7600000000000000100, 0.03999999999999999400, -0.3599999999999998200 ) ) ;
#375 = EDGE_CURVE ( 'NONE', #546, #328, #655, .T. ) ;
#376 = ADVANCED_FACE ( 'NONE', ( #1158 ), #744, .T. ) ;
#377 = STYLED_ITEM ( 'NONE', ( #855 ), #832 ) ;
#378 = DIRECTION ( 'NONE',  ( -1.000000000000000000, 0.0000000000000000000, 0.0000000000000000000 ) ) ;
#379 = CIRCLE ( 'NONE', #25, 0.03999999999999999400 ) ;
#380 = VERTEX_POINT ( 'NONE', #316 ) ;
#381 = ADVANCED_FACE ( 'NONE', ( #1085 ), #364, .T. ) ;
#382 = FACE_OUTER_BOUND ( 'NONE', #979, .T. ) ;
#383 = ORIENTED_EDGE ( 'NONE', *, *, #632, .F. ) ;
#384 =( NAMED_UNIT ( * ) PLANE_ANGLE_UNIT ( ) SI_UNIT ( $, .RADIAN. ) );
#385 = FACE_OUTER_BOUND ( 'NONE', #28, .T. ) ;
#386 = ORIENTED_EDGE ( 'NONE', *, *, #499, .F. ) ;
#387 = EDGE_CURVE ( 'NONE', #636, #792, #702, .T. ) ;
#388 = DIRECTION ( 'NONE',  ( -1.000000000000000000, -0.0000000000000000000, 8.673617379884036700E-017 ) ) ;
#389 = AXIS2_PLACEMENT_3D ( 'NONE', #455, #1159, #1045 ) ;
#390 = DIRECTION ( 'NONE',  ( 0.0000000000000000000, 0.0000000000000000000, 1.000000000000000000 ) ) ;
#391 = AXIS2_PLACEMENT_3D ( 'NONE', #950, #54, #844 ) ;
#392 = ADVANCED_FACE ( 'NONE', ( #293 ), #233, .T. ) ;
#393 = VERTEX_POINT ( 'NONE', #600 ) ;
#394 = DIRECTION ( 'NONE',  ( 1.000000000000000000, 0.0000000000000000000, 0.0000000000000000000 ) ) ;
#395 = ORIENTED_EDGE ( 'NONE', *, *, #257, .T. ) ;
#396 = FACE_OUTER_BOUND ( 'NONE', #232, .T. ) ;
#397 = LINE ( 'NONE', #763, #306 ) ;
#398 = EDGE_LOOP ( 'NONE', ( #448, #965, #421, #613 ) ) ;
#399 = EDGE_CURVE ( 'NONE', #1005, #109, #1229, .T. ) ;
#400 = FACE_OUTER_BOUND ( 'NONE', #398, .T. ) ;
#401 = CARTESIAN_POINT ( 'NONE',  ( 0.7600000000000000100, 0.04000000000000000100, -0.3599999999999998200 ) ) ;
#402 = PRESENTATION_LAYER_ASSIGNMENT (  '', '', ( #991 ) ) ;
#403 = DIRECTION ( 'NONE',  ( -1.000000000000000000, 0.0000000000000000000, -1.355252715606880300E-016 ) ) ;
#404 = EDGE_LOOP ( 'NONE', ( #1138, #732, #291, #652 ) ) ;
#405 = ADVANCED_FACE ( 'NONE', ( #385 ), #31, .T. ) ;
#406 = DIRECTION ( 'NONE',  ( 0.0000000000000000000, 0.0000000000000000000, 1.000000000000000000 ) ) ;
#407 = ADVANCED_FACE ( 'NONE', ( #1050 ), #839, .T. ) ;
#408 = CARTESIAN_POINT ( 'NONE',  ( 0.7599999999999997900, 0.03999999999999999400, 0.3600000000000001000 ) ) ;
#409 = EDGE_CURVE ( 'NONE', #803, #879, #454, .T. ) ;
#410 = DIRECTION ( 'NONE',  ( 0.0000000000000000000, 0.0000000000000000000, -1.000000000000000000 ) ) ;
#411 = ORIENTED_EDGE ( 'NONE', *, *, #911, .T. ) ;
#412 = CIRCLE ( 'NONE', #271, 0.03999999999999999400 ) ;
#413 = DIRECTION ( 'NONE',  ( 0.0000000000000000000, 1.000000000000000000, 0.0000000000000000000 ) ) ;
#414 = EDGE_LOOP ( 'NONE', ( #52, #908, #79, #1178 ) ) ;
#415 = DIRECTION ( 'NONE',  ( 0.0000000000000000000, 0.0000000000000000000, -1.000000000000000000 ) ) ;
#416 = AXIS2_PLACEMENT_3D ( 'NONE', #303, #1094, #492 ) ;
#417 = PLANE ( 'NONE',  #480 ) ;
#418 = AXIS2_PLACEMENT_3D ( 'NONE', #720, #734, #1226 ) ;
#419 = CARTESIAN_POINT ( 'NONE',  ( 0.3999999999999999700, 0.9499999999999999600, -0.3999999999999998600 ) ) ;
#420 = EDGE_LOOP ( 'NONE', ( #383, #936, #349, #1104 ) ) ;
#421 = ORIENTED_EDGE ( 'NONE', *, *, #342, .T. ) ;
#422 = DIRECTION ( 'NONE',  ( 0.0000000000000000000, 0.0000000000000000000, 1.000000000000000000 ) ) ;
#423 = VECTOR ( 'NONE', #569, 1000.000000000000000 ) ;
#424 = EDGE_LOOP ( 'NONE', ( #356, #560, #1132, #336 ) ) ;
#425 = FACE_OUTER_BOUND ( 'NONE', #1278, .T. ) ;
#426 = EDGE_LOOP ( 'NONE', ( #498, #70, #1240, #470 ) ) ;
#427 = EDGE_CURVE ( 'NONE', #854, #528, #1206, .T. ) ;
#428 = VECTOR ( 'NONE', #635, 1000.000000000000000 ) ;
#429 = LINE ( 'NONE', #223, #313 ) ;
#430 = CARTESIAN_POINT ( 'NONE',  ( 0.0000000000000000000, 0.9100000000000000300, 0.3600000000000001000 ) ) ;
#431 = ORIENTED_EDGE ( 'NONE', *, *, #1201, .T. ) ;
#432 = CARTESIAN_POINT ( 'NONE',  ( -0.7599999999999997900, 0.03999999999999999400, 0.3600000000000001000 ) ) ;
#433 = EDGE_CURVE ( 'NONE', #372, #1230, #780, .T. ) ;
#434 = DIRECTION ( 'NONE',  ( 0.0000000000000000000, -0.0000000000000000000, 1.000000000000000000 ) ) ;
#435 = EDGE_CURVE ( 'NONE', #621, #1089, #878, .T. ) ;
#436 = PRODUCT_RELATED_PRODUCT_CATEGORY ( 'part', '', ( #1055 ) ) ;
#437 = SURFACE_STYLE_USAGE ( .BOTH. , #1223 ) ;
#438 = VECTOR ( 'NONE', #584, 1000.000000000000000 ) ;
#439 = ORIENTED_EDGE ( 'NONE', *, *, #310, .T. ) ;
#440 = CARTESIAN_POINT ( 'NONE',  ( 0.7600000000000000100, 0.9499999999999999600, -0.3999999999999998000 ) ) ;
#441 = VECTOR ( 'NONE', #612, 1000.000000000000000 ) ;
#442 = CARTESIAN_POINT ( 'NONE',  ( 500000.0000000000600, 0.01333333333333334300, 0.3599999999566316800 ) ) ;
#443 = DIRECTION ( 'NONE',  ( 0.0000000000000000000, -1.000000000000000000, 0.0000000000000000000 ) ) ;
#444 = DIRECTION ( 'NONE',  ( 1.000000000000000000, -0.0000000000000000000, -1.355252715606880300E-016 ) ) ;
#445 = EDGE_CURVE ( 'NONE', #476, #593, #137, .T. ) ;
#446 = CARTESIAN_POINT ( 'NONE',  ( -0.7999999999999998200, 0.9100000000000000300, 0.4000000000000000800 ) ) ;
#447 = DIRECTION ( 'NONE',  ( 0.0000000000000000000, 0.0000000000000000000, 1.000000000000000000 ) ) ;
#448 = ORIENTED_EDGE ( 'NONE', *, *, #310, .F. ) ;
#449 = CARTESIAN_POINT ( 'NONE',  ( -0.3999999999999999700, 0.9100000000000000300, -0.3999999999999998600 ) ) ;
#450 = AXIS2_PLACEMENT_3D ( 'NONE', #721, #527, #628 ) ;
#451 = LINE ( 'NONE', #1070, #1097 ) ;
#452 = DIRECTION ( 'NONE',  ( 0.0000000000000000000, 1.000000000000000000, 0.0000000000000000000 ) ) ;
#453 = ORIENTED_EDGE ( 'NONE', *, *, #399, .T. ) ;
#454 = CIRCLE ( 'NONE', #520, 0.03999999999999999400 ) ;
#455 = CARTESIAN_POINT ( 'NONE',  ( -0.8000000000000000400, 0.9499999999999999600, -0.3999999999999998000 ) ) ;
#456 = CARTESIAN_POINT ( 'NONE',  ( 500000.0000000000600, 0.9100000000000000300, 0.3866666666232985200 ) ) ;
#457 = VERTEX_POINT ( 'NONE', #610 ) ;
#458 = DIRECTION ( 'NONE',  ( -0.0000000000000000000, -1.000000000000000000, -0.0000000000000000000 ) ) ;
#459 = EDGE_CURVE ( 'NONE', #199, #125, #412, .T. ) ;
#460 = ORIENTED_EDGE ( 'NONE', *, *, #36, .T. ) ;
#461 = AXIS2_PLACEMENT_3D ( 'NONE', #170, #58, #951 ) ;
#462 = CARTESIAN_POINT ( 'NONE',  ( -0.7599999999999997900, 0.9100000000000000300, 0.3600000000000001000 ) ) ;
#463 = SURFACE_STYLE_USAGE ( .BOTH. , #1075 ) ;
#464 = DIRECTION ( 'NONE',  ( 0.0000000000000000000, 0.0000000000000000000, -1.000000000000000000 ) ) ;
#465 = CARTESIAN_POINT ( 'NONE',  ( -0.7600000000000000100, 0.9499999999999999600, -0.3599999999999998200 ) ) ;
#466 = CARTESIAN_POINT ( 'NONE',  ( 0.3999999999999998000, 0.04000000000000021600, 0.4000000000000000800 ) ) ;
#467 = FACE_OUTER_BOUND ( 'NONE', #414, .T. ) ;
#468 = DIRECTION ( 'NONE',  ( 1.000000000000000000, 0.0000000000000000000, 2.032879073410321100E-016 ) ) ;
#469 = VERTEX_POINT ( 'NONE', #926 ) ;
#470 = ORIENTED_EDGE ( 'NONE', *, *, #880, .F. ) ;
#471 = DIRECTION ( 'NONE',  ( -1.000000000000000000, 0.0000000000000000000, 0.0000000000000000000 ) ) ;
#472 = VECTOR ( 'NONE', #675, 1000.000000000000000 ) ;
#473 = ORIENTED_EDGE ( 'NONE', *, *, #518, .T. ) ;
#474 = ORIENTED_EDGE ( 'NONE', *, *, #427, .T. ) ;
#475 = CARTESIAN_POINT ( 'NONE',  ( 0.3999999999999999700, 0.9100000000000000300, -0.3999999999999998600 ) ) ;
#476 = VERTEX_POINT ( 'NONE', #640 ) ;
#477 = ADVANCED_FACE ( 'NONE', ( #624 ), #322, .T. ) ;
#478 = EDGE_CURVE ( 'NONE', #800, #803, #1218, .T. ) ;
#479 = CARTESIAN_POINT ( 'NONE',  ( 0.0000000000000000000, 0.0000000000000000000, 0.3600000000000001000 ) ) ;
#480 = AXIS2_PLACEMENT_3D ( 'NONE', #697, #927, #234 ) ;
#481 = DIRECTION ( 'NONE',  ( -1.000000000000000000, 0.0000000000000000000, -2.710505431213761600E-016 ) ) ;
#482 = AXIS2_PLACEMENT_3D ( 'NONE', #269, #754, #81 ) ;
#483 = ORIENTED_EDGE ( 'NONE', *, *, #126, .T. ) ;
#484 = EDGE_LOOP ( 'NONE', ( #679, #968, #815, #460 ) ) ;
#485 = EDGE_LOOP ( 'NONE', ( #777, #34, #281, #946 ) ) ;
#486 = SURFACE_STYLE_USAGE ( .BOTH. , #870 ) ;
#487 = AXIS2_PLACEMENT_3D ( 'NONE', #833, #1108, #736 ) ;
#488 = LINE ( 'NONE', #344, #202 ) ;
#489 = SURFACE_STYLE_FILL_AREA ( #141 ) ;
#490 = EDGE_LOOP ( 'NONE', ( #1197, #596, #739 ) ) ;
#491 = ORIENTED_EDGE ( 'NONE', *, *, #647, .F. ) ;
#492 = DIRECTION ( 'NONE',  ( 0.0000000000000000000, 0.0000000000000000000, 1.000000000000000000 ) ) ;
#493 = EDGE_LOOP ( 'NONE', ( #117, #1123, #164, #823 ) ) ;
#494 = EDGE_CURVE ( 'NONE', #1164, #1237, #917, .T. ) ;
#495 = AXIS2_PLACEMENT_3D ( 'NONE', #51, #352, #162 ) ;
#496 = CARTESIAN_POINT ( 'NONE',  ( -0.7600000000000000100, 0.9100000000000000300, -0.3599999999999998200 ) ) ;
#497 = DIRECTION ( 'NONE',  ( 1.000000000000000000, -0.0000000000000000000, -2.032879073410321100E-016 ) ) ;
#498 = ORIENTED_EDGE ( 'NONE', *, *, #387, .F. ) ;
#499 = EDGE_CURVE ( 'NONE', #854, #123, #812, .T. ) ;
#500 = VECTOR ( 'NONE', #1088, 1000.000000000000000 ) ;
#501 = VECTOR ( 'NONE', #643, 1000.000000000000000 ) ;
#502 = DIRECTION ( 'NONE',  ( -0.0000000000000000000, 1.000000000000000000, -0.0000000000000000000 ) ) ;
#503 = EDGE_CURVE ( 'NONE', #201, #875, #122, .T. ) ;
#504 = CARTESIAN_POINT ( 'NONE',  ( -0.3999999999999999700, 0.03999999999999999400, -0.3866666666666665500 ) ) ;
#505 = LINE ( 'NONE', #1202, #1258 ) ;
#506 = DIRECTION ( 'NONE',  ( 0.0000000000000000000, -0.0000000000000000000, 1.000000000000000000 ) ) ;
#507 = CARTESIAN_POINT ( 'NONE',  ( 500000.0000000000600, 0.03999999999999999400, 0.3599999999566319000 ) ) ;
#508 = ORIENTED_EDGE ( 'NONE', *, *, #342, .F. ) ;
#509 = DIRECTION ( 'NONE',  ( -1.000000000000000000, 0.0000000000000000000, -0.0000000000000000000 ) ) ;
#510 = ORIENTED_EDGE ( 'NONE', *, *, #373, .F. ) ;
#511 = ADVANCED_FACE ( 'NONE', ( #859 ), #686, .T. ) ;
#512 = DIRECTION ( 'NONE',  ( 1.000000000000000000, 0.0000000000000000000, -8.673617379884036700E-017 ) ) ;
#513 = CARTESIAN_POINT ( 'NONE',  ( 0.0000000000000000000, 0.0000000000000000000, 0.0000000000000000000 ) ) ;
#514 = DIRECTION ( 'NONE',  ( -1.000000000000000000, 0.0000000000000000000, 0.0000000000000000000 ) ) ;
#515 = ADVANCED_FACE ( 'NONE', ( #425 ), #836, .F. ) ;
#516 = VECTOR ( 'NONE', #575, 1000.000000000000000 ) ;
#517 = VERTEX_POINT ( 'NONE', #1118 ) ;
#518 = EDGE_CURVE ( 'NONE', #528, #372, #488, .T. ) ;
#519 = VECTOR ( 'NONE', #1008, 1000.000000000000000 ) ;
#520 = AXIS2_PLACEMENT_3D ( 'NONE', #1211, #129, #231 ) ;
#521 = CYLINDRICAL_SURFACE ( 'NONE', #495, 0.03999999999999999400 ) ;
#522 = ADVANCED_FACE ( 'NONE', ( #106 ), #151, .T. ) ;
#523 = ORIENTED_EDGE ( 'NONE', *, *, #1201, .F. ) ;
#524 = CARTESIAN_POINT ( 'NONE',  ( -0.7600000000000000100, 0.9100000000000000300, -0.3599999999999998200 ) ) ;
#525 = ADVANCED_FACE ( 'NONE', ( #1130 ), #1177, .T. ) ;
#526 = EDGE_CURVE ( 'NONE', #457, #57, #963, .T. ) ;
#527 = DIRECTION ( 'NONE',  ( 0.0000000000000000000, -1.000000000000000000, -0.0000000000000000000 ) ) ;
#528 = VERTEX_POINT ( 'NONE', #960 ) ;
#529 = AXIS2_PLACEMENT_3D ( 'NONE', #989, #413, #1116 ) ;
#530 = FILL_AREA_STYLE ('',( #1020 ) ) ;
#531 = CYLINDRICAL_SURFACE ( 'NONE', #1236, 0.03999999999999999400 ) ;
#532 = ORIENTED_EDGE ( 'NONE', *, *, #526, .T. ) ;
#533 = CIRCLE ( 'NONE', #128, 0.03999999999999999400 ) ;
#534 = ORIENTED_EDGE ( 'NONE', *, *, #632, .T. ) ;
#535 = VECTOR ( 'NONE', #273, 1000.000000000000000 ) ;
#536 = LINE ( 'NONE', #95, #44 ) ;
#537 = DIRECTION ( 'NONE',  ( 0.0000000000000000000, 0.0000000000000000000, -1.000000000000000000 ) ) ;
#538 = ORIENTED_EDGE ( 'NONE', *, *, #205, .F. ) ;
#539 = DIRECTION ( 'NONE',  ( 0.0000000000000000000, -1.000000000000000000, 0.0000000000000000000 ) ) ;
#540 = DIRECTION ( 'NONE',  ( 1.000000000000000000, 0.0000000000000000000, 0.0000000000000000000 ) ) ;
#541 = EDGE_CURVE ( 'NONE', #140, #1260, #730, .T. ) ;
#542 = EDGE_CURVE ( 'NONE', #1221, #201, #986, .T. ) ;
#543 = CARTESIAN_POINT ( 'NONE',  ( 0.7600000000000000100, 0.03999999999999999400, -0.3599999999999998200 ) ) ;
#544 = AXIS2_PLACEMENT_3D ( 'NONE', #851, #552, #554 ) ;
#545 = CIRCLE ( 'NONE', #1274, 0.03999999999999999400 ) ;
#546 = VERTEX_POINT ( 'NONE', #852 ) ;
#547 = SPHERICAL_SURFACE ( 'NONE', #1041, 0.04000000000000000100 ) ;
#548 = DIRECTION ( 'NONE',  ( -1.000000000000000000, 0.0000000000000000000, -0.0000000000000000000 ) ) ;
#549 = VECTOR ( 'NONE', #1182, 1000.000000000000000 ) ;
#550 = CARTESIAN_POINT ( 'NONE',  ( 0.3999999999999998000, 0.0000000000000000000, 0.3599999999999998800 ) ) ;
#551 = AXIS2_PLACEMENT_3D ( 'NONE', #733, #913, #410 ) ;
#552 = DIRECTION ( 'NONE',  ( 0.0000000000000000000, 0.0000000000000000000, 1.000000000000000000 ) ) ;
#553 = EDGE_CURVE ( 'NONE', #546, #74, #167, .T. ) ;
#554 = DIRECTION ( 'NONE',  ( 1.000000000000000000, 0.0000000000000000000, 0.0000000000000000000 ) ) ;
#555 = DIRECTION ( 'NONE',  ( 1.000000000000000000, 0.0000000000000000000, 0.0000000000000000000 ) ) ;
#556 = AXIS2_PLACEMENT_3D ( 'NONE', #1084, #674, #191 ) ;
#557 = CARTESIAN_POINT ( 'NONE',  ( 500000.0000000000600, 0.9366666666666666500, 0.3599999999566314600 ) ) ;
#558 = FACE_OUTER_BOUND ( 'NONE', #135, .T. ) ;
#559 = LINE ( 'NONE', #753, #237 ) ;
#560 = ORIENTED_EDGE ( 'NONE', *, *, #695, .F. ) ;
#561 = FACE_OUTER_BOUND ( 'NONE', #111, .T. ) ;
#562 =( LENGTH_UNIT ( ) NAMED_UNIT ( * ) SI_UNIT ( .MILLI., .METRE. ) );
#563 = CARTESIAN_POINT ( 'NONE',  ( 0.0000000000000000000, 0.9499999999999999600, 0.0000000000000000000 ) ) ;
#564 = LINE ( 'NONE', #557, #265 ) ;
#565 = ORIENTED_EDGE ( 'NONE', *, *, #647, .T. ) ;
#566 = CARTESIAN_POINT ( 'NONE',  ( 0.3999999999999998000, 0.9100000000000000300, 0.4000000000000000800 ) ) ;
#567 = ORIENTED_EDGE ( 'NONE', *, *, #829, .F. ) ;
#568 = PRODUCT_DEFINITION_FORMATION_WITH_SPECIFIED_SOURCE ( 'ANY', '', #1055, .NOT_KNOWN. ) ;
#569 = DIRECTION ( 'NONE',  ( -1.000000000000000000, 0.0000000000000000000, 1.355252715606880300E-016 ) ) ;
#570 = DIRECTION ( 'NONE',  ( 2.710505431213761600E-016, 0.0000000000000000000, -1.000000000000000000 ) ) ;
#571 = VECTOR ( 'NONE', #581, 1000.000000000000000 ) ;
#572 = ORIENTED_EDGE ( 'NONE', *, *, #723, .T. ) ;
#573 = ADVANCED_FACE ( 'NONE', ( #931 ), #742, .T. ) ;
#574 = FACE_OUTER_BOUND ( 'NONE', #785, .T. ) ;
#575 = DIRECTION ( 'NONE',  ( 0.0000000000000000000, -1.000000000000000000, 0.0000000000000000000 ) ) ;
#576 = LINE ( 'NONE', #1, #438 ) ;
#577 = CARTESIAN_POINT ( 'NONE',  ( 500000.0000000000600, 0.03999999999999999400, -0.3866666667100346900 ) ) ;
#578 = VERTEX_POINT ( 'NONE', #550 ) ;
#579 = EDGE_CURVE ( 'NONE', #328, #74, #72, .T. ) ;
#580 = ORIENTED_EDGE ( 'NONE', *, *, #36, .F. ) ;
#581 = DIRECTION ( 'NONE',  ( -1.000000000000000000, 0.0000000000000000000, 1.355252715606880300E-016 ) ) ;
#582 = MECHANICAL_DESIGN_GEOMETRIC_PRESENTATION_REPRESENTATION (  '', ( #991 ), #1248 ) ;
#583 = DIRECTION ( 'NONE',  ( 0.0000000000000000000, 0.0000000000000000000, -1.000000000000000000 ) ) ;
#584 = DIRECTION ( 'NONE',  ( -2.710505431213761600E-016, 0.0000000000000000000, 1.000000000000000000 ) ) ;
#585 = ADVANCED_FACE ( 'NONE', ( #382 ), #1057, .F. ) ;
#586 = EDGE_CURVE ( 'NONE', #1144, #476, #246, .T. ) ;
#587 = DIRECTION ( 'NONE',  ( 0.0000000000000000000, 0.0000000000000000000, 1.000000000000000000 ) ) ;
#588 = LINE ( 'NONE', #440, #501 ) ;
#589 = MECHANICAL_DESIGN_GEOMETRIC_PRESENTATION_REPRESENTATION (  '', ( #377 ), #245 ) ;
#590 = FACE_OUTER_BOUND ( 'NONE', #1103, .T. ) ;
#591 = VERTEX_POINT ( 'NONE', #156 ) ;
#592 = ORIENTED_EDGE ( 'NONE', *, *, #53, .T. ) ;
#593 = VERTEX_POINT ( 'NONE', #266 ) ;
#594 = ADVANCED_FACE ( 'NONE', ( #561 ), #259, .T. ) ;
#595 = DIRECTION ( 'NONE',  ( 1.000000000000000000, 0.0000000000000000000, -1.355252715606880300E-016 ) ) ;
#596 = ORIENTED_EDGE ( 'NONE', *, *, #409, .T. ) ;
#597 = DIRECTION ( 'NONE',  ( -1.000000000000000000, 0.0000000000000000000, 1.355252715606880300E-016 ) ) ;
#598 = CARTESIAN_POINT ( 'NONE',  ( 0.7600000000000000100, 0.03999999999999999400, -0.3999999999999998000 ) ) ;
#599 = CARTESIAN_POINT ( 'NONE',  ( -0.3999999999999998600, 0.9100000000000000300, 0.3600000000000000400 ) ) ;
#600 = CARTESIAN_POINT ( 'NONE',  ( 0.3999999999999999700, 0.9499999999999999600, -0.3599999999999998800 ) ) ;
#601 = CARTESIAN_POINT ( 'NONE',  ( 0.7999999999999998200, 0.9499999999999999600, 0.3600000000000000400 ) ) ;
#602 = EDGE_CURVE ( 'NONE', #800, #1239, #533, .T. ) ;
#603 = ORIENTED_EDGE ( 'NONE', *, *, #286, .F. ) ;
#604 = AXIS2_PLACEMENT_3D ( 'NONE', #616, #406, #1204 ) ;
#605 = FACE_OUTER_BOUND ( 'NONE', #1154, .T. ) ;
#606 = ORIENTED_EDGE ( 'NONE', *, *, #698, .F. ) ;
#607 = ADVANCED_FACE ( 'NONE', ( #30 ), #822, .T. ) ;
#608 = FACE_OUTER_BOUND ( 'NONE', #660, .T. ) ;
#609 = ORIENTED_EDGE ( 'NONE', *, *, #1133, .T. ) ;
#610 = CARTESIAN_POINT ( 'NONE',  ( -0.3999999999999999700, 0.9099999999999998100, -0.3866666666666665500 ) ) ;
#611 = CIRCLE ( 'NONE', #604, 0.03999999999999999400 ) ;
#612 = DIRECTION ( 'NONE',  ( 2.710505431213761600E-016, -0.0000000000000000000, -1.000000000000000000 ) ) ;
#613 = ORIENTED_EDGE ( 'NONE', *, *, #541, .F. ) ;
#614 = ORIENTED_EDGE ( 'NONE', *, *, #1252, .T. ) ;
#615 = CARTESIAN_POINT ( 'NONE',  ( -0.7999999999999998200, 0.03999999999999999400, 0.3600000000000001000 ) ) ;
#616 = CARTESIAN_POINT ( 'NONE',  ( 0.7599999999999997900, 0.9100000000000000300, 0.3600000000000001000 ) ) ;
#617 = CARTESIAN_POINT ( 'NONE',  ( 0.4000000000132786200, 0.01333333333333333200, 0.3599999998549877600 ) ) ;
#618 = VERTEX_POINT ( 'NONE', #1241 ) ;
#619 = ORIENTED_EDGE ( 'NONE', *, *, #126, .F. ) ;
#620 = DIRECTION ( 'NONE',  ( 0.0000000000000000000, 0.0000000000000000000, 1.000000000000000000 ) ) ;
#621 = VERTEX_POINT ( 'NONE', #272 ) ;
#622 = VECTOR ( 'NONE', #213, 1000.000000000000000 ) ;
#623 = VECTOR ( 'NONE', #1265, 1000.000000000000000 ) ;
#624 = FACE_OUTER_BOUND ( 'NONE', #368, .T. ) ;
#625 = PRODUCT_DEFINITION_SHAPE ( 'NONE', 'NONE',  #676 ) ;
#626 = DIRECTION ( 'NONE',  ( -1.505836350674312700E-016, 0.0000000000000000000, -1.000000000000000000 ) ) ;
#627 = AXIS2_PLACEMENT_3D ( 'NONE', #261, #957, #548 ) ;
#628 = DIRECTION ( 'NONE',  ( 0.0000000000000000000, 0.0000000000000000000, -1.000000000000000000 ) ) ;
#629 = ORIENTED_EDGE ( 'NONE', *, *, #147, .F. ) ;
#630 = ADVANCED_FACE ( 'NONE', ( #574 ), #1066, .T. ) ;
#631 = EDGE_LOOP ( 'NONE', ( #510, #102, #207, #1273 ) ) ;
#632 = EDGE_CURVE ( 'NONE', #140, #621, #761, .T. ) ;
#633 = CARTESIAN_POINT ( 'NONE',  ( 0.7599999999999997900, 0.9100000000000000300, 0.3600000000000001000 ) ) ;
#634 = CYLINDRICAL_SURFACE ( 'NONE', #1213, 0.03999999999999999400 ) ;
#635 = DIRECTION ( 'NONE',  ( -1.000000000000000000, -0.0000000000000000000, 8.673617379884036700E-017 ) ) ;
#636 = VERTEX_POINT ( 'NONE', #1261 ) ;
#637 = CIRCLE ( 'NONE', #290, 0.02666666666666664800 ) ;
#638 = ORIENTED_EDGE ( 'NONE', *, *, #952, .T. ) ;
#639 = VECTOR ( 'NONE', #956, 1000.000000000000000 ) ;
#640 = CARTESIAN_POINT ( 'NONE',  ( -0.3999999999999998000, 0.0000000000000000000, 0.3599999999999998800 ) ) ;
#641 = ORIENTED_EDGE ( 'NONE', *, *, #478, .F. ) ;
#642 = DIRECTION ( 'NONE',  ( 2.710505431213761600E-016, -0.0000000000000000000, 1.000000000000000000 ) ) ;
#643 = DIRECTION ( 'NONE',  ( -0.0000000000000000000, 1.000000000000000000, -0.0000000000000000000 ) ) ;
#644 = MANIFOLD_SOLID_BREP ( 'Mirror2', #1235 ) ;
#645 = DIRECTION ( 'NONE',  ( -1.000000000000000000, 0.0000000000000000000, 0.0000000000000000000 ) ) ;
#646 = DIRECTION ( 'NONE',  ( 1.000000000000000000, -0.0000000000000000000, -1.355252715606880300E-016 ) ) ;
#647 = EDGE_CURVE ( 'NONE', #142, #546, #15, .T. ) ;
#648 = AXIS2_PLACEMENT_3D ( 'NONE', #1053, #953, #351 ) ;
#649 = CARTESIAN_POINT ( 'NONE',  ( 0.7600000000000000100, 0.9499999999999999600, -0.3599999999999998200 ) ) ;
#650 = ORIENTED_EDGE ( 'NONE', *, *, #518, .F. ) ;
#651 = AXIS2_PLACEMENT_3D ( 'NONE', #73, #64, #587 ) ;
#652 = ORIENTED_EDGE ( 'NONE', *, *, #181, .T. ) ;
#653 = APPLICATION_CONTEXT ( 'automotive_design' ) ;
#654 = CYLINDRICAL_SURFACE ( 'NONE', #866, 0.02666666666666664800 ) ;
#655 = CIRCLE ( 'NONE', #755, 0.03999999999999999400 ) ;
#656 = ORIENTED_EDGE ( 'NONE', *, *, #40, .F. ) ;
#657 = EDGE_CURVE ( 'NONE', #469, #340, #292, .T. ) ;
#658 = EDGE_LOOP ( 'NONE', ( #86, #1031, #532, #1233 ) ) ;
#659 =( LENGTH_UNIT ( ) NAMED_UNIT ( * ) SI_UNIT ( .MILLI., .METRE. ) );
#660 = EDGE_LOOP ( 'NONE', ( #1264, #1199, #1056, #1222 ) ) ;
#661 = AXIS2_PLACEMENT_3D ( 'NONE', #314, #700, #924 ) ;
#662 = DIRECTION ( 'NONE',  ( 0.0000000000000000000, 0.0000000000000000000, 1.000000000000000000 ) ) ;
#663 = ADVANCED_FACE ( 'NONE', ( #276 ), #1112, .T. ) ;
#664 = LINE ( 'NONE', #479, #1156 ) ;
#665 = DIRECTION ( 'NONE',  ( 2.032879073410321300E-016, -0.0000000000000000000, -1.000000000000000000 ) ) ;
#666 = CIRCLE ( 'NONE', #794, 0.03999999999999999400 ) ;
#667 = VECTOR ( 'NONE', #318, 1000.000000000000000 ) ;
#668 = ORIENTED_EDGE ( 'NONE', *, *, #433, .T. ) ;
#669 = EDGE_CURVE ( 'NONE', #123, #591, #837, .T. ) ;
#670 = VERTEX_POINT ( 'NONE', #1077 ) ;
#671 = CARTESIAN_POINT ( 'NONE',  ( 0.4000000000132786200, 0.9100000000000000300, 0.3866666666666665500 ) ) ;
#672 = PRESENTATION_LAYER_ASSIGNMENT (  '', '', ( #1232 ) ) ;
#673 = ADVANCED_FACE ( 'NONE', ( #321 ), #680, .F. ) ;
#674 = DIRECTION ( 'NONE',  ( 0.0000000000000000000, 1.000000000000000000, 0.0000000000000000000 ) ) ;
#675 = DIRECTION ( 'NONE',  ( 0.0000000000000000000, -1.000000000000000000, 0.0000000000000000000 ) ) ;
#676 = PRODUCT_DEFINITION ( 'UNKNOWN', '', #568, #850 ) ;
#677 = FILL_AREA_STYLE ('',( #1181 ) ) ;
#678 = DIRECTION ( 'NONE',  ( 0.0000000000000000000, -1.000000000000000000, 0.0000000000000000000 ) ) ;
#679 = ORIENTED_EDGE ( 'NONE', *, *, #806, .T. ) ;
#680 = PLANE ( 'NONE',  #1220 ) ;
#681 = AXIS2_PLACEMENT_3D ( 'NONE', #615, #32, #919 ) ;
#682 = VERTEX_POINT ( 'NONE', #779 ) ;
#683 = CARTESIAN_POINT ( 'NONE',  ( 0.8000000000000000400, 0.03999999999999999400, -0.3599999999999998200 ) ) ;
#684 = LINE ( 'NONE', #80, #623 ) ;
#685 = ORIENTED_EDGE ( 'NONE', *, *, #1018, .F. ) ;
#686 = CYLINDRICAL_SURFACE ( 'NONE', #487, 0.03999999999999999400 ) ;
#687 = CLOSED_SHELL ( 'NONE', ( #115, #708, #889, #998, #1267, #381, #325, #914, #334, #289 ) ) ;
#688 = EDGE_LOOP ( 'NONE', ( #1162, #225, #297, #16 ) ) ;
#689 = FACE_OUTER_BOUND ( 'NONE', #985, .T. ) ;
#690 = ORIENTED_EDGE ( 'NONE', *, *, #499, .T. ) ;
#691 = CARTESIAN_POINT ( 'NONE',  ( -0.7999999999999998200, 0.9499999999999999600, 0.3600000000000000400 ) ) ;
#692 = AXIS2_PLACEMENT_3D ( 'NONE', #811, #1042, #227 ) ;
#693 = CARTESIAN_POINT ( 'NONE',  ( 0.0000000000000000000, 0.0000000000000000000, 0.0000000000000000000 ) ) ;
#694 = PLANE ( 'NONE',  #346 ) ;
#695 = EDGE_CURVE ( 'NONE', #74, #5, #715, .T. ) ;
#696 = DIRECTION ( 'NONE',  ( -1.000000000000000000, -0.0000000000000000000, 8.673617379884036700E-017 ) ) ;
#697 = CARTESIAN_POINT ( 'NONE',  ( 0.8000000000000000400, 0.9499999999999999600, -0.3999999999999998000 ) ) ;
#698 = EDGE_CURVE ( 'NONE', #528, #591, #1049, .T. ) ;
#699 = FACE_OUTER_BOUND ( 'NONE', #1187, .T. ) ;
#700 = DIRECTION ( 'NONE',  ( 0.0000000000000000000, -1.000000000000000000, 0.0000000000000000000 ) ) ;
#701 = CIRCLE ( 'NONE', #809, 0.03999999999999999400 ) ;
#702 = CIRCLE ( 'NONE', #100, 0.03999999999999999400 ) ;
#703 = CARTESIAN_POINT ( 'NONE',  ( 0.7600000000000000100, 0.9100000000000000300, -0.3999999999999998000 ) ) ;
#704 = FACE_OUTER_BOUND ( 'NONE', #424, .T. ) ;
#705 = ORIENTED_EDGE ( 'NONE', *, *, #1107, .T. ) ;
#706 = PLANE ( 'NONE',  #113 ) ;
#707 = CARTESIAN_POINT ( 'NONE',  ( 0.7599999999999997900, 0.03999999999999999400, 0.3600000000000001000 ) ) ;
#708 = ADVANCED_FACE ( 'NONE', ( #1242 ), #1090, .F. ) ;
#709 = DIRECTION ( 'NONE',  ( -2.710505431213761600E-016, 0.0000000000000000000, 1.000000000000000000 ) ) ;
#710 = DIRECTION ( 'NONE',  ( -1.000000000000000000, -0.0000000000000000000, 8.673617379884036700E-017 ) ) ;
#711 = DIRECTION ( 'NONE',  ( -2.032879073410321100E-016, 0.0000000000000000000, 1.000000000000000000 ) ) ;
#712 = EDGE_CURVE ( 'NONE', #517, #996, #637, .T. ) ;
#713 = ORIENTED_EDGE ( 'NONE', *, *, #286, .T. ) ;
#714 = DIRECTION ( 'NONE',  ( 0.0000000000000000000, 1.000000000000000000, 0.0000000000000000000 ) ) ;
#715 = LINE ( 'NONE', #475, #309 ) ;
#716 = VERTEX_POINT ( 'NONE', #1198 ) ;
#717 = FACE_OUTER_BOUND ( 'NONE', #658, .T. ) ;
#718 = AXIS2_PLACEMENT_3D ( 'NONE', #1033, #1022, #244 ) ;
#719 = ORIENTED_EDGE ( 'NONE', *, *, #1009, .F. ) ;
#720 = CARTESIAN_POINT ( 'NONE',  ( 0.3999999999999999700, 0.9499999999999999600, -0.3999999999999998600 ) ) ;
#721 = CARTESIAN_POINT ( 'NONE',  ( 0.7600000000000000100, 0.03999999999999999400, -0.3599999999999998200 ) ) ;
#722 = ORIENTED_EDGE ( 'NONE', *, *, #1054, .F. ) ;
#723 = EDGE_CURVE ( 'NONE', #328, #315, #505, .T. ) ;
#724 = CARTESIAN_POINT ( 'NONE',  ( 0.4000000000132786200, 0.04000000000000043100, 0.3866666666666665500 ) ) ;
#725 = AXIS2_PLACEMENT_3D ( 'NONE', #327, #341, #38 ) ;
#726 = CARTESIAN_POINT ( 'NONE',  ( 500000.0000000000600, 0.9099999999999998100, -0.3866666667100346900 ) ) ;
#727 = CARTESIAN_POINT ( 'NONE',  ( 0.7600000000000000100, 0.9100000000000000300, -0.3599999999999998200 ) ) ;
#728 = FACE_OUTER_BOUND ( 'NONE', #688, .T. ) ;
#729 = ORIENTED_EDGE ( 'NONE', *, *, #300, .T. ) ;
#730 = LINE ( 'NONE', #354, #639 ) ;
#731 = DIRECTION ( 'NONE',  ( 1.000000000000000000, 0.0000000000000000000, -8.673617379884036700E-017 ) ) ;
#732 = ORIENTED_EDGE ( 'NONE', *, *, #503, .T. ) ;
#733 = CARTESIAN_POINT ( 'NONE',  ( 0.4000000000132786200, 0.03999999999999999400, -0.3600000000000000400 ) ) ;
#734 = DIRECTION ( 'NONE',  ( 1.000000000000000000, 0.0000000000000000000, 2.032879073410321100E-016 ) ) ;
#735 = EDGE_CURVE ( 'NONE', #1164, #1129, #1275, .T. ) ;
#736 = DIRECTION ( 'NONE',  ( 1.000000000000000000, 0.0000000000000000000, 0.0000000000000000000 ) ) ;
#737 = DIRECTION ( 'NONE',  ( -1.000000000000000000, 0.0000000000000000000, 0.0000000000000000000 ) ) ;
#738 = CARTESIAN_POINT ( 'NONE',  ( 0.7600000000000000100, 0.9499999999999999600, -0.3599999999999998200 ) ) ;
#739 = ORIENTED_EDGE ( 'NONE', *, *, #1186, .F. ) ;
#740 = PLANE ( 'NONE',  #627 ) ;
#741 = ORIENTED_EDGE ( 'NONE', *, *, #358, .T. ) ;
#742 = SPHERICAL_SURFACE ( 'NONE', #747, 0.04000000000000000100 ) ;
#743 = DIRECTION ( 'NONE',  ( -0.0000000000000000000, -1.000000000000000000, -0.0000000000000000000 ) ) ;
#744 = CYLINDRICAL_SURFACE ( 'NONE', #1189, 0.03999999999999999400 ) ;
#745 = DIRECTION ( 'NONE',  ( 1.000000000000000000, 0.0000000000000000000, -8.673617379884036700E-017 ) ) ;
#746 = VECTOR ( 'NONE', #173, 1000.000000000000000 ) ;
#747 = AXIS2_PLACEMENT_3D ( 'NONE', #1150, #443, #645 ) ;
#748 = VERTEX_POINT ( 'NONE', #6 ) ;
#749 = ORIENTED_EDGE ( 'NONE', *, *, #602, .F. ) ;
#750 = CARTESIAN_POINT ( 'NONE',  ( 0.0000000000000000000, 0.9100000000000000300, 0.3600000000000001000 ) ) ;
#751 = ORIENTED_EDGE ( 'NONE', *, *, #952, .F. ) ;
#752 =( NAMED_UNIT ( * ) PLANE_ANGLE_UNIT ( ) SI_UNIT ( $, .RADIAN. ) );
#753 = CARTESIAN_POINT ( 'NONE',  ( -0.3999999999999999700, 0.9499999999999999600, -0.3999999999999998600 ) ) ;
#754 = DIRECTION ( 'NONE',  ( 0.0000000000000000000, 1.000000000000000000, 0.0000000000000000000 ) ) ;
#755 = AXIS2_PLACEMENT_3D ( 'NONE', #795, #209, #901 ) ;
#756 =( NAMED_UNIT ( * ) SI_UNIT ( $, .STERADIAN. ) SOLID_ANGLE_UNIT ( ) );
#757 = LINE ( 'NONE', #997, #516 ) ;
#758 = DIRECTION ( 'NONE',  ( 0.0000000000000000000, 1.000000000000000000, 0.0000000000000000000 ) ) ;
#759 = LINE ( 'NONE', #348, #961 ) ;
#760 = ORIENTED_EDGE ( 'NONE', *, *, #806, .F. ) ;
#761 = CIRCLE ( 'NONE', #846, 0.02666666666666664800 ) ;
#762 = EDGE_CURVE ( 'NONE', #189, #682, #1002, .T. ) ;
#763 = CARTESIAN_POINT ( 'NONE',  ( 0.3999999999999999700, 0.9499999999999999600, -0.3999999999999998600 ) ) ;
#764 = ORIENTED_EDGE ( 'NONE', *, *, #1186, .T. ) ;
#765 = EDGE_CURVE ( 'NONE', #469, #879, #1175, .T. ) ;
#766 = CYLINDRICAL_SURFACE ( 'NONE', #224, 0.03999999999999999400 ) ;
#767 = APPLICATION_PROTOCOL_DEFINITION ( 'draft international standard', 'automotive_design', 1998, #653 ) ;
#768 = CARTESIAN_POINT ( 'NONE',  ( 0.8000000000000000400, 0.9100000000000000300, -0.3999999999999998000 ) ) ;
#769 = ORIENTED_EDGE ( 'NONE', *, *, #579, .F. ) ;
#770 = AXIS2_PLACEMENT_3D ( 'NONE', #143, #243, #434 ) ;
#771 = CARTESIAN_POINT ( 'NONE',  ( -0.3999999999999998600, 0.9100000000000000300, 0.3866666666666666600 ) ) ;
#772 = ADVANCED_FACE ( 'NONE', ( #590 ), #1192, .F. ) ;
#773 = DIRECTION ( 'NONE',  ( 0.0000000000000000000, 1.000000000000000000, -0.0000000000000000000 ) ) ;
#774 =( LENGTH_UNIT ( ) NAMED_UNIT ( * ) SI_UNIT ( .MILLI., .METRE. ) );
#775 = CARTESIAN_POINT ( 'NONE',  ( -0.7599999999999997900, 0.04000000000000000100, 0.3600000000000001000 ) ) ;
#776 = DIRECTION ( 'NONE',  ( -1.000000000000000000, 0.0000000000000000000, 0.0000000000000000000 ) ) ;
#777 = ORIENTED_EDGE ( 'NONE', *, *, #205, .T. ) ;
#778 = ADVANCED_FACE ( 'NONE', ( #728 ), #706, .F. ) ;
#779 = CARTESIAN_POINT ( 'NONE',  ( 0.8000000000000000400, 0.03999999999999999400, -0.3599999999999998200 ) ) ;
#780 = CIRCLE ( 'NONE', #692, 0.02666666666666664800 ) ;
#781 = EDGE_CURVE ( 'NONE', #1005, #938, #976, .T. ) ;
#782 = CIRCLE ( 'NONE', #7, 0.03999999999999999400 ) ;
#783 = DIRECTION ( 'NONE',  ( 1.000000000000000000, -0.0000000000000000000, 0.0000000000000000000 ) ) ;
#784 = AXIS2_PLACEMENT_3D ( 'NONE', #430, #540, #620 ) ;
#785 = EDGE_LOOP ( 'NONE', ( #719, #751, #230, #92 ) ) ;
#786 = ORIENTED_EDGE ( 'NONE', *, *, #399, .F. ) ;
#787 = AXIS2_PLACEMENT_3D ( 'NONE', #401, #506, #394 ) ;
#788 = CARTESIAN_POINT ( 'NONE',  ( 0.3999999999999999700, 0.9100000000000000300, -0.3999999999999998600 ) ) ;
#789 = CARTESIAN_POINT ( 'NONE',  ( 0.8000000000000000400, 0.9499999999999999600, -0.3599999999999998200 ) ) ;
#790 = ORIENTED_EDGE ( 'NONE', *, *, #84, .T. ) ;
#791 = EDGE_CURVE ( 'NONE', #469, #748, #701, .T. ) ;
#792 = VERTEX_POINT ( 'NONE', #802 ) ;
#793 = CARTESIAN_POINT ( 'NONE',  ( -0.8000000000000000400, 0.9499999999999999600, -0.3999999999999998000 ) ) ;
#794 = AXIS2_PLACEMENT_3D ( 'NONE', #408, #226, #415 ) ;
#795 = CARTESIAN_POINT ( 'NONE',  ( 0.7600000000000000100, 0.9100000000000000300, -0.3599999999999998200 ) ) ;
#796 = CYLINDRICAL_SURFACE ( 'NONE', #725, 0.03999999999999999400 ) ;
#797 = VECTOR ( 'NONE', #366, 1000.000000000000000 ) ;
#798 = ORIENTED_EDGE ( 'NONE', *, *, #257, .F. ) ;
#799 = CIRCLE ( 'NONE', #651, 0.03999999999999999400 ) ;
#800 = VERTEX_POINT ( 'NONE', #308 ) ;
#801 = FACE_OUTER_BOUND ( 'NONE', #357, .T. ) ;
#802 = CARTESIAN_POINT ( 'NONE',  ( -0.3999999999999998000, 0.9100000000000000300, 0.4000000000000000800 ) ) ;
#803 = VERTEX_POINT ( 'NONE', #909 ) ;
#804 = ADVANCED_FACE ( 'NONE', ( #335 ), #694, .F. ) ;
#805 = ORIENTED_EDGE ( 'NONE', *, *, #83, .F. ) ;
#806 = EDGE_CURVE ( 'NONE', #1129, #1237, #666, .T. ) ;
#807 = SURFACE_STYLE_FILL_AREA ( #860 ) ;
#808 = ORIENTED_EDGE ( 'NONE', *, *, #4, .T. ) ;
#809 = AXIS2_PLACEMENT_3D ( 'NONE', #496, #1102, #14 ) ;
#810 = LINE ( 'NONE', #446, #821 ) ;
#811 = CARTESIAN_POINT ( 'NONE',  ( 0.4000000000132786200, 0.9100000000000000300, -0.3600000000000000400 ) ) ;
#812 = LINE ( 'NONE', #127, #262 ) ;
#813 = LINE ( 'NONE', #827, #1004 ) ;
#814 = CARTESIAN_POINT ( 'NONE',  ( -0.7599999999999997900, 0.9100000000000000300, 0.3600000000000001000 ) ) ;
#815 = ORIENTED_EDGE ( 'NONE', *, *, #1271, .T. ) ;
#816 = CARTESIAN_POINT ( 'NONE',  ( 0.4000000000132786200, 0.9366666666666666500, -0.3600000001450119300 ) ) ;
#817 = ADVANCED_FACE ( 'NONE', ( #187 ), #119, .T. ) ;
#818 = AXIS2_PLACEMENT_3D ( 'NONE', #563, #1253, #984 ) ;
#819 = CARTESIAN_POINT ( 'NONE',  ( 4.878909776184767500E-017, 0.0000000000000000000, -0.3599999999999999300 ) ) ;
#820 = AXIS2_PLACEMENT_3D ( 'NONE', #840, #845, #862 ) ;
#821 = VECTOR ( 'NONE', #1149, 1000.000000000000000 ) ;
#822 = SPHERICAL_SURFACE ( 'NONE', #906, 0.04000000000000000100 ) ;
#823 = ORIENTED_EDGE ( 'NONE', *, *, #1078, .F. ) ;
#824 = VECTOR ( 'NONE', #1163, 1000.000000000000000 ) ;
#825 = ORIENTED_EDGE ( 'NONE', *, *, #375, .T. ) ;
#826 = ORIENTED_EDGE ( 'NONE', *, *, #602, .T. ) ;
#827 = CARTESIAN_POINT ( 'NONE',  ( -0.3999999999999998600, 0.01333333333333333200, 0.3599999999999998200 ) ) ;
#828 = ORIENTED_EDGE ( 'NONE', *, *, #242, .F. ) ;
#829 = EDGE_CURVE ( 'NONE', #621, #854, #1140, .T. ) ;
#830 = AXIS2_PLACEMENT_3D ( 'NONE', #598, #709, #124 ) ;
#831 = CARTESIAN_POINT ( 'NONE',  ( -0.7599999999999997900, 0.9499999999999999600, 0.3600000000000001000 ) ) ;
#832 = ADVANCED_BREP_SHAPE_REPRESENTATION ( 'NCU18WB473D60RB', ( #180, #644, #94, #544 ), #42 ) ;
#833 = CARTESIAN_POINT ( 'NONE',  ( -0.7600000000000000100, 0.03999999999999999400, -0.3999999999999998000 ) ) ;
#834 = CARTESIAN_POINT ( 'NONE',  ( 0.7599999999999997900, 0.9100000000000000300, 0.4000000000000000800 ) ) ;
#835 = ORIENTED_EDGE ( 'NONE', *, *, #1271, .F. ) ;
#836 = PLANE ( 'NONE',  #302 ) ;
#837 = CIRCLE ( 'NONE', #1224, 0.02666666666666664800 ) ;
#838 = CARTESIAN_POINT ( 'NONE',  ( 0.7599999999999997900, 0.9100000000000000300, 0.3600000000000001000 ) ) ;
#839 = CYLINDRICAL_SURFACE ( 'NONE', #258, 0.03999999999999999400 ) ;
#840 = CARTESIAN_POINT ( 'NONE',  ( -0.3999999999999998000, 0.03999999999999999400, 0.3600000000000001000 ) ) ;
#841 = DIRECTION ( 'NONE',  ( 0.0000000000000000000, 0.0000000000000000000, 1.000000000000000000 ) ) ;
#842 = ORIENTED_EDGE ( 'NONE', *, *, #975, .F. ) ;
#843 = EDGE_CURVE ( 'NONE', #5, #201, #347, .T. ) ;
#844 = DIRECTION ( 'NONE',  ( 0.0000000000000000000, 0.0000000000000000000, 1.000000000000000000 ) ) ;
#845 = DIRECTION ( 'NONE',  ( 1.000000000000000000, -0.0000000000000000000, -2.032879073410321100E-016 ) ) ;
#846 = AXIS2_PLACEMENT_3D ( 'NONE', #1272, #468, #981 ) ;
#847 = DIRECTION ( 'NONE',  ( -1.000000000000000000, -0.0000000000000000000, -0.0000000000000000000 ) ) ;
#848 = AXIS2_PLACEMENT_3D ( 'NONE', #877, #888, #1076 ) ;
#849 = DIRECTION ( 'NONE',  ( 0.0000000000000000000, 0.0000000000000000000, 1.000000000000000000 ) ) ;
#850 = PRODUCT_DEFINITION_CONTEXT ( 'detailed design', #370, 'design' ) ;
#851 = CARTESIAN_POINT ( 'NONE',  ( 0.0000000000000000000, 0.0000000000000000000, 0.0000000000000000000 ) ) ;
#852 = CARTESIAN_POINT ( 'NONE',  ( 0.8000000000000000400, 0.9100000000000000300, -0.3599999999999998200 ) ) ;
#853 = DIRECTION ( 'NONE',  ( -1.000000000000000000, -0.0000000000000000000, 8.673617379884036700E-017 ) ) ;
#854 = VERTEX_POINT ( 'NONE', #60 ) ;
#855 = PRESENTATION_STYLE_ASSIGNMENT (( #463 ) ) ;
#856 = FACE_OUTER_BOUND ( 'NONE', #177, .T. ) ;
#857 = DIRECTION ( 'NONE',  ( 1.000000000000000000, -0.0000000000000000000, -2.032879073410321100E-016 ) ) ;
#858 = AXIS2_PLACEMENT_3D ( 'NONE', #775, #885, #983 ) ;
#859 = FACE_OUTER_BOUND ( 'NONE', #1048, .T. ) ;
#860 = FILL_AREA_STYLE ('',( #1259 ) ) ;
#861 = ORIENTED_EDGE ( 'NONE', *, *, #791, .T. ) ;
#862 = DIRECTION ( 'NONE',  ( 0.0000000000000000000, 0.0000000000000000000, 1.000000000000000000 ) ) ;
#863 = PRESENTATION_STYLE_ASSIGNMENT (( #437 ) ) ;
#864 = DIRECTION ( 'NONE',  ( 0.0000000000000000000, -1.000000000000000000, 0.0000000000000000000 ) ) ;
#865 = ORIENTED_EDGE ( 'NONE', *, *, #300, .F. ) ;
#866 = AXIS2_PLACEMENT_3D ( 'NONE', #1244, #184, #849 ) ;
#867 = ORIENTED_EDGE ( 'NONE', *, *, #735, .F. ) ;
#868 = DIRECTION ( 'NONE',  ( -1.000000000000000000, 0.0000000000000000000, 0.0000000000000000000 ) ) ;
#869 = ORIENTED_EDGE ( 'NONE', *, *, #65, .T. ) ;
#870 = SURFACE_SIDE_STYLE ('',( #876 ) ) ;
#871 = PLANE ( 'NONE',  #329 ) ;
#872 = APPLICATION_PROTOCOL_DEFINITION ( 'draft international standard', 'automotive_design', 1998, #370 ) ;
#873 = DIRECTION ( 'NONE',  ( 0.0000000000000000000, 0.0000000000000000000, 1.000000000000000000 ) ) ;
#874 = ADVANCED_FACE ( 'NONE', ( #605 ), #547, .T. ) ;
#875 = VERTEX_POINT ( 'NONE', #1006 ) ;
#876 = SURFACE_STYLE_FILL_AREA ( #677 ) ;
#877 = CARTESIAN_POINT ( 'NONE',  ( 0.3999999999999999700, 0.9499999999999999600, -0.3999999999999998600 ) ) ;
#878 = LINE ( 'NONE', #442, #945 ) ;
#879 = VERTEX_POINT ( 'NONE', #1028 ) ;
#880 = EDGE_CURVE ( 'NONE', #792, #199, #810, .T. ) ;
#881 = LINE ( 'NONE', #449, #1101 ) ;
#882 = UNCERTAINTY_MEASURE_WITH_UNIT (LENGTH_MEASURE( 1.000000000000000100E-005 ), #48, 'distance_accuracy_value', 'NONE');
#883 = ADVANCED_FACE ( 'NONE', ( #856 ), #955, .T. ) ;
#884 = AXIS2_PLACEMENT_3D ( 'NONE', #462, #452, #959 ) ;
#885 = DIRECTION ( 'NONE',  ( 0.0000000000000000000, 1.000000000000000000, 0.0000000000000000000 ) ) ;
#886 = CARTESIAN_POINT ( 'NONE',  ( -0.3999999999999999700, 0.9366666666666666500, -0.3599999999999999300 ) ) ;
#887 = DIRECTION ( 'NONE',  ( 0.0000000000000000000, 0.0000000000000000000, -1.000000000000000000 ) ) ;
#888 = DIRECTION ( 'NONE',  ( 1.000000000000000000, 0.0000000000000000000, 2.032879073410321100E-016 ) ) ;
#889 = ADVANCED_FACE ( 'NONE', ( #1216 ), #247, .F. ) ;
#890 = DIRECTION ( 'NONE',  ( 1.000000000000000000, 0.0000000000000000000, -8.673617379884036700E-017 ) ) ;
#891 = EDGE_LOOP ( 'NONE', ( #861, #345, #764, #1188 ) ) ;
#892 =( GEOMETRIC_REPRESENTATION_CONTEXT ( 3 ) GLOBAL_UNCERTAINTY_ASSIGNED_CONTEXT ( ( #149 ) ) GLOBAL_UNIT_ASSIGNED_CONTEXT ( ( #774, #384, #1167 ) ) REPRESENTATION_CONTEXT ( 'NONE', 'WORKASPACE' ) );
#893 = DIRECTION ( 'NONE',  ( 1.000000000000000000, 0.0000000000000000000, 1.355252715606880300E-016 ) ) ;
#894 = ORIENTED_EDGE ( 'NONE', *, *, #445, .F. ) ;
#895 = CARTESIAN_POINT ( 'NONE',  ( 0.7599999999999999000, 0.0000000000000000000, 2.059984127722458700E-016 ) ) ;
#896 = DIRECTION ( 'NONE',  ( 1.505836350674312700E-016, 0.0000000000000000000, 1.000000000000000000 ) ) ;
#897 = ORIENTED_EDGE ( 'NONE', *, *, #791, .F. ) ;
#898 = VECTOR ( 'NONE', #114, 1000.000000000000000 ) ;
#899 = CIRCLE ( 'NONE', #1012, 0.03999999999999999400 ) ;
#900 = VECTOR ( 'NONE', #864, 1000.000000000000000 ) ;
#901 = DIRECTION ( 'NONE',  ( 1.000000000000000000, 0.0000000000000000000, 0.0000000000000000000 ) ) ;
#902 = VERTEX_POINT ( 'NONE', #944 ) ;
#903 = ADVANCED_FACE ( 'NONE', ( #39 ), #531, .T. ) ;
#904 = COLOUR_RGB ( '',0.7921568627450980000, 0.8196078431372548800, 0.9333333333333333500 ) ;
#905 = EDGE_LOOP ( 'NONE', ( #668, #592, #130, #439, #534, #1105, #474, #473 ) ) ;
#906 = AXIS2_PLACEMENT_3D ( 'NONE', #966, #362, #555 ) ;
#907 = EDGE_LOOP ( 'NONE', ( #1030, #629, #918, #842 ) ) ;
#908 = ORIENTED_EDGE ( 'NONE', *, *, #1169, .T. ) ;
#909 = CARTESIAN_POINT ( 'NONE',  ( -0.7600000000000000100, 0.0000000000000000000, -0.3599999999999998200 ) ) ;
#910 = EDGE_CURVE ( 'NONE', #578, #1221, #759, .T. ) ;
#911 = EDGE_CURVE ( 'NONE', #875, #74, #588, .T. ) ;
#912 = CARTESIAN_POINT ( 'NONE',  ( 0.3999999999999998000, 0.9499999999999999600, 0.4000000000000000800 ) ) ;
#913 = DIRECTION ( 'NONE',  ( 1.000000000000000000, 0.0000000000000000000, 2.032879073410321100E-016 ) ) ;
#914 = ADVANCED_FACE ( 'NONE', ( #12 ), #69, .T. ) ;
#915 = VECTOR ( 'NONE', #1280, 1000.000000000000000 ) ;
#916 = ORIENTED_EDGE ( 'NONE', *, *, #98, .F. ) ;
#917 = CIRCLE ( 'NONE', #326, 0.03999999999999999400 ) ;
#918 = ORIENTED_EDGE ( 'NONE', *, *, #657, .F. ) ;
#919 = DIRECTION ( 'NONE',  ( 0.0000000000000000000, 0.0000000000000000000, -1.000000000000000000 ) ) ;
#920 = ORIENTED_EDGE ( 'NONE', *, *, #781, .T. ) ;
#921 = ADVANCED_FACE ( 'NONE', ( #1157 ), #134, .T. ) ;
#922 = DIRECTION ( 'NONE',  ( 0.0000000000000000000, -1.000000000000000000, 0.0000000000000000000 ) ) ;
#923 = ORIENTED_EDGE ( 'NONE', *, *, #220, .F. ) ;
#924 = DIRECTION ( 'NONE',  ( -1.000000000000000000, 0.0000000000000000000, 0.0000000000000000000 ) ) ;
#925 = EDGE_CURVE ( 'NONE', #792, #1144, #451, .T. ) ;
#926 = CARTESIAN_POINT ( 'NONE',  ( -0.8000000000000000400, 0.9100000000000000300, -0.3599999999999998200 ) ) ;
#927 = DIRECTION ( 'NONE',  ( -1.355252715606880300E-016, 0.0000000000000000000, 1.000000000000000000 ) ) ;
#928 = AXIS2_PLACEMENT_3D ( 'NONE', #1043, #853, #267 ) ;
#929 = DIRECTION ( 'NONE',  ( 0.0000000000000000000, -1.000000000000000000, -0.0000000000000000000 ) ) ;
#930 = FACE_OUTER_BOUND ( 'NONE', #1068, .T. ) ;
#931 = FACE_OUTER_BOUND ( 'NONE', #1039, .T. ) ;
#932 = CARTESIAN_POINT ( 'NONE',  ( 0.7600000000000000100, 0.0000000000000000000, -0.3599999999999998200 ) ) ;
#933 = VECTOR ( 'NONE', #253, 1000.000000000000000 ) ;
#934 = ADVANCED_FACE ( 'NONE', ( #1029 ), #871, .F. ) ;
#935 = ORIENTED_EDGE ( 'NONE', *, *, #358, .F. ) ;
#936 = ORIENTED_EDGE ( 'NONE', *, *, #541, .T. ) ;
#937 = AXIS2_PLACEMENT_3D ( 'NONE', #432, #146, #537 ) ;
#938 = VERTEX_POINT ( 'NONE', #466 ) ;
#939 =( NAMED_UNIT ( * ) SI_UNIT ( $, .STERADIAN. ) SOLID_ANGLE_UNIT ( ) );
#940 = AXIS2_PLACEMENT_3D ( 'NONE', #176, #857, #1256 ) ;
#941 = COLOUR_RGB ( '',0.7921568627450980000, 0.8196078431372548800, 0.9333333333333333500 ) ;
#942 = CARTESIAN_POINT ( 'NONE',  ( -0.3999999999999999700, 0.9100000000000000300, -0.3599999999999998800 ) ) ;
#943 = VECTOR ( 'NONE', #190, 1000.000000000000000 ) ;
#944 = CARTESIAN_POINT ( 'NONE',  ( -0.3999999999999999700, 0.04000000000000021600, -0.3999999999999998600 ) ) ;
#945 = VECTOR ( 'NONE', #47, 1000.000000000000000 ) ;
#946 = ORIENTED_EDGE ( 'NONE', *, *, #695, .T. ) ;
#947 = DIRECTION ( 'NONE',  ( 1.000000000000000000, 0.0000000000000000000, 1.355252715606880300E-016 ) ) ;
#948 = ORIENTED_EDGE ( 'NONE', *, *, #1252, .F. ) ;
#949 = EDGE_CURVE ( 'NONE', #1263, #803, #899, .T. ) ;
#950 = CARTESIAN_POINT ( 'NONE',  ( 500000.0000000000600, 0.9100000000000000300, 0.3599999999566319000 ) ) ;
#951 = DIRECTION ( 'NONE',  ( 0.0000000000000000000, 0.0000000000000000000, 1.000000000000000000 ) ) ;
#952 = EDGE_CURVE ( 'NONE', #315, #380, #274, .T. ) ;
#953 = DIRECTION ( 'NONE',  ( 1.000000000000000000, 0.0000000000000000000, 2.032879073410321100E-016 ) ) ;
#954 = AXIS2_PLACEMENT_3D ( 'NONE', #195, #890, #19 ) ;
#955 = PLANE ( 'NONE',  #770 ) ;
#956 = DIRECTION ( 'NONE',  ( -1.000000000000000000, -0.0000000000000000000, 8.673617379884036700E-017 ) ) ;
#957 = DIRECTION ( 'NONE',  ( 0.0000000000000000000, 0.0000000000000000000, -1.000000000000000000 ) ) ;
#958 = ORIENTED_EDGE ( 'NONE', *, *, #975, .T. ) ;
#959 = DIRECTION ( 'NONE',  ( 1.000000000000000000, 0.0000000000000000000, 0.0000000000000000000 ) ) ;
#960 = CARTESIAN_POINT ( 'NONE',  ( 0.4000000000132786200, 0.03999999999999999400, -0.3866666666666666600 ) ) ;
#961 = VECTOR ( 'NONE', #1044, 1000.000000000000000 ) ;
#962 = AXIS2_PLACEMENT_3D ( 'NONE', #1061, #745, #183 ) ;
#963 = CIRCLE ( 'NONE', #962, 0.02666666666666664800 ) ;
#964 = DIRECTION ( 'NONE',  ( -1.000000000000000000, -0.0000000000000000000, -0.0000000000000000000 ) ) ;
#965 = ORIENTED_EDGE ( 'NONE', *, *, #21, .T. ) ;
#966 = CARTESIAN_POINT ( 'NONE',  ( -0.7600000000000000100, 0.04000000000000000100, -0.3599999999999998200 ) ) ;
#967 = SURFACE_STYLE_USAGE ( .BOTH. , #1032 ) ;
#968 = ORIENTED_EDGE ( 'NONE', *, *, #83, .T. ) ;
#969 = CARTESIAN_POINT ( 'NONE',  ( 0.7999999999999998200, 0.03999999999999999400, 0.4000000000000000800 ) ) ;
#970 = DIRECTION ( 'NONE',  ( 0.0000000000000000000, 0.0000000000000000000, 1.000000000000000000 ) ) ;
#971 = MECHANICAL_DESIGN_GEOMETRIC_PRESENTATION_REPRESENTATION (  '', ( #1024 ), #892 ) ;
#972 = CARTESIAN_POINT ( 'NONE',  ( 0.7999999999999998200, 0.9499999999999999600, 0.4000000000000000800 ) ) ;
#973 = EDGE_CURVE ( 'NONE', #1129, #938, #200, .T. ) ;
#974 = DIRECTION ( 'NONE',  ( 0.0000000000000000000, 0.0000000000000000000, -1.000000000000000000 ) ) ;
#975 = EDGE_CURVE ( 'NONE', #670, #469, #684, .T. ) ;
#976 = LINE ( 'NONE', #912, #1227 ) ;
#977 = DIRECTION ( 'NONE',  ( 0.0000000000000000000, 0.0000000000000000000, -1.000000000000000000 ) ) ;
#978 = LINE ( 'NONE', #1142, #1277 ) ;
#979 = EDGE_LOOP ( 'NONE', ( #958, #2, #713, #431 ) ) ;
#980 = LINE ( 'NONE', #1093, #1246 ) ;
#981 = DIRECTION ( 'NONE',  ( 0.0000000000000000000, 0.0000000000000000000, -1.000000000000000000 ) ) ;
#982 = DIRECTION ( 'NONE',  ( 1.000000000000000000, 0.0000000000000000000, -8.673617379884036700E-017 ) ) ;
#983 = DIRECTION ( 'NONE',  ( 1.000000000000000000, 0.0000000000000000000, 0.0000000000000000000 ) ) ;
#984 = DIRECTION ( 'NONE',  ( 0.0000000000000000000, 0.0000000000000000000, 1.000000000000000000 ) ) ;
#985 = EDGE_LOOP ( 'NONE', ( #197, #175, #1062, #523 ) ) ;
#986 = CIRCLE ( 'NONE', #171, 0.03999999999999999400 ) ;
#987 = EDGE_CURVE ( 'NONE', #902, #1263, #1067, .T. ) ;
#988 = ORIENTED_EDGE ( 'NONE', *, *, #1064, .F. ) ;
#989 = CARTESIAN_POINT ( 'NONE',  ( -0.7600000000000000100, 0.03999999999999999400, -0.3599999999999998200 ) ) ;
#990 = VECTOR ( 'NONE', #947, 1000.000000000000000 ) ;
#991 = STYLED_ITEM ( 'NONE', ( #1160 ), #180 ) ;
#992 = VECTOR ( 'NONE', #711, 1000.000000000000000 ) ;
#993 = DIRECTION ( 'NONE',  ( 0.0000000000000000000, 0.0000000000000000000, 1.000000000000000000 ) ) ;
#994 = DIRECTION ( 'NONE',  ( 0.0000000000000000000, 0.0000000000000000000, 1.000000000000000000 ) ) ;
#995 = LINE ( 'NONE', #264, #824 ) ;
#996 = VERTEX_POINT ( 'NONE', #159 ) ;
#997 = CARTESIAN_POINT ( 'NONE',  ( 0.8000000000000000400, 0.9499999999999999600, -0.3599999999999998200 ) ) ;
#998 = ADVANCED_FACE ( 'NONE', ( #165 ), #654, .T. ) ;
#999 = ADVANCED_FACE ( 'NONE', ( #930 ), #1190, .T. ) ;
#1000 = LINE ( 'NONE', #504, #898 ) ;
#1001 = DIRECTION ( 'NONE',  ( 0.0000000000000000000, -1.000000000000000000, -0.0000000000000000000 ) ) ;
#1002 = CIRCLE ( 'NONE', #787, 0.03999999999999999400 ) ;
#1003 = DIRECTION ( 'NONE',  ( -1.000000000000000000, 0.0000000000000000000, 2.710505431213758100E-016 ) ) ;
#1004 = VECTOR ( 'NONE', #626, 1000.000000000000000 ) ;
#1005 = VERTEX_POINT ( 'NONE', #566 ) ;
#1006 = CARTESIAN_POINT ( 'NONE',  ( 0.7600000000000000100, 0.03999999999999999400, -0.3999999999999998000 ) ) ;
#1007 = ORIENTED_EDGE ( 'NONE', *, *, #131, .T. ) ;
#1008 = DIRECTION ( 'NONE',  ( -2.710505431213761600E-016, 0.0000000000000000000, -1.000000000000000000 ) ) ;
#1009 = EDGE_CURVE ( 'NONE', #380, #393, #397, .T. ) ;
#1010 = CARTESIAN_POINT ( 'NONE',  ( 0.7599999999999997900, 0.9499999999999999600, 0.3600000000000001000 ) ) ;
#1011 = EDGE_CURVE ( 'NONE', #593, #902, #105, .T. ) ;
#1012 = AXIS2_PLACEMENT_3D ( 'NONE', #374, #964, #1059 ) ;
#1013 = EDGE_LOOP ( 'NONE', ( #287, #229, #174, #741 ) ) ;
#1014 = CARTESIAN_POINT ( 'NONE',  ( -0.3999999999999999700, 0.0000000000000000000, -0.3999999999999998600 ) ) ;
#1015 = ORIENTED_EDGE ( 'NONE', *, *, #65, .F. ) ;
#1016 = VECTOR ( 'NONE', #646, 1000.000000000000000 ) ;
#1017 = CYLINDRICAL_SURFACE ( 'NONE', #830, 0.03999999999999999400 ) ;
#1018 = EDGE_CURVE ( 'NONE', #1180, #902, #559, .T. ) ;
#1019 = ORIENTED_EDGE ( 'NONE', *, *, #375, .F. ) ;
#1020 = FILL_AREA_STYLE_COLOUR ( '', #367 ) ;
#1021 = ORIENTED_EDGE ( 'NONE', *, *, #1107, .F. ) ;
#1022 = DIRECTION ( 'NONE',  ( 1.000000000000000000, 0.0000000000000000000, -8.673617379884036700E-017 ) ) ;
#1023 = ORIENTED_EDGE ( 'NONE', *, *, #669, .T. ) ;
#1024 = STYLED_ITEM ( 'NONE', ( #1099 ), #644 ) ;
#1025 = FILL_AREA_STYLE_COLOUR ( '', #904 ) ;
#1026 = PLANE ( 'NONE',  #418 ) ;
#1027 = AXIS2_PLACEMENT_3D ( 'NONE', #71, #1249, #1161 ) ;
#1028 = CARTESIAN_POINT ( 'NONE',  ( -0.8000000000000000400, 0.03999999999999999400, -0.3599999999999998200 ) ) ;
#1029 = FACE_OUTER_BOUND ( 'NONE', #99, .T. ) ;
#1030 = ORIENTED_EDGE ( 'NONE', *, *, #98, .T. ) ;
#1031 = ORIENTED_EDGE ( 'NONE', *, *, #110, .T. ) ;
#1032 = SURFACE_SIDE_STYLE ('',( #489 ) ) ;
#1033 = CARTESIAN_POINT ( 'NONE',  ( -0.3999999999999998600, 0.03999999999999999400, 0.3600000000000000400 ) ) ;
#1034 = EDGE_LOOP ( 'NONE', ( #1119, #153, #685, #1007, #988, #1155, #1153, #1117 ) ) ;
#1035 = EDGE_CURVE ( 'NONE', #199, #118, #279, .T. ) ;
#1036 = CARTESIAN_POINT ( 'NONE',  ( 500000.0000000000600, 0.03999999999999999400, -0.3866666667100346900 ) ) ;
#1037 = LINE ( 'NONE', #895, #441 ) ;
#1038 = DIRECTION ( 'NONE',  ( 0.0000000000000000000, -1.000000000000000000, 0.0000000000000000000 ) ) ;
#1039 = EDGE_LOOP ( 'NONE', ( #923, #614, #238 ) ) ;
#1040 = DIRECTION ( 'NONE',  ( 1.000000000000000000, -0.0000000000000000000, -2.032879073410321100E-016 ) ) ;
#1041 = AXIS2_PLACEMENT_3D ( 'NONE', #727, #539, #737 ) ;
#1042 = DIRECTION ( 'NONE',  ( 1.000000000000000000, 0.0000000000000000000, 2.032879073410321100E-016 ) ) ;
#1043 = CARTESIAN_POINT ( 'NONE',  ( 500000.0000000000600, 0.9100000000000000300, -0.3600000000433680700 ) ) ;
#1044 = DIRECTION ( 'NONE',  ( 2.032879073410321300E-016, -0.0000000000000000000, -1.000000000000000000 ) ) ;
#1045 = DIRECTION ( 'NONE',  ( -2.710505431213761600E-016, 0.0000000000000000000, -1.000000000000000000 ) ) ;
#1046 = VECTOR ( 'NONE', #896, 1000.000000000000000 ) ;
#1047 =( NAMED_UNIT ( * ) SI_UNIT ( $, .STERADIAN. ) SOLID_ANGLE_UNIT ( ) );
#1048 = EDGE_LOOP ( 'NONE', ( #826, #603, #20, #641 ) ) ;
#1049 = LINE ( 'NONE', #577, #915 ) ;
#1050 = FACE_OUTER_BOUND ( 'NONE', #404, .T. ) ;
#1051 = DIRECTION ( 'NONE',  ( 1.000000000000000000, 0.0000000000000000000, 2.032879073410321100E-016 ) ) ;
#1052 = LINE ( 'NONE', #816, #992 ) ;
#1053 = CARTESIAN_POINT ( 'NONE',  ( 0.3999999999999998000, 0.9100000000000000300, 0.3600000000000001000 ) ) ;
#1054 = EDGE_CURVE ( 'NONE', #800, #118, #799, .T. ) ;
#1055 = PRODUCT ( 'NCU18WB473D60RB', 'NCU18WB473D60RB', '', ( #62 ) ) ;
#1056 = ORIENTED_EDGE ( 'NONE', *, *, #925, .F. ) ;
#1057 = PLANE ( 'NONE',  #389 ) ;
#1058 = PLANE ( 'NONE',  #158 ) ;
#1059 = DIRECTION ( 'NONE',  ( 0.0000000000000000000, 0.0000000000000000000, 1.000000000000000000 ) ) ;
#1060 = DIRECTION ( 'NONE',  ( 0.0000000000000000000, 0.0000000000000000000, 1.000000000000000000 ) ) ;
#1061 = CARTESIAN_POINT ( 'NONE',  ( -0.3999999999999999700, 0.9100000000000000300, -0.3599999999999999300 ) ) ;
#1062 = ORIENTED_EDGE ( 'NONE', *, *, #1171, .F. ) ;
#1063 = CARTESIAN_POINT ( 'NONE',  ( -0.7599999999999997900, 0.9499999999999999600, 0.4000000000000000800 ) ) ;
#1064 = EDGE_CURVE ( 'NONE', #636, #716, #995, .T. ) ;
#1065 = CIRCLE ( 'NONE', #718, 0.02666666666666664800 ) ;
#1066 = PLANE ( 'NONE',  #818 ) ;
#1067 = LINE ( 'NONE', #1170, #423 ) ;
#1068 = EDGE_LOOP ( 'NONE', ( #1184, #1146, #916 ) ) ;
#1069 = ORIENTED_EDGE ( 'NONE', *, *, #1228, .T. ) ;
#1070 = CARTESIAN_POINT ( 'NONE',  ( -0.3999999999999998000, 0.9499999999999999600, 0.4000000000000000800 ) ) ;
#1071 = LINE ( 'NONE', #46, #933 ) ;
#1072 = ORIENTED_EDGE ( 'NONE', *, *, #781, .F. ) ;
#1073 = CARTESIAN_POINT ( 'NONE',  ( 0.3999999999999998000, 0.03999999999999999400, 0.3600000000000001000 ) ) ;
#1074 = ORIENTED_EDGE ( 'NONE', *, *, #330, .T. ) ;
#1075 = SURFACE_SIDE_STYLE ('',( #807 ) ) ;
#1076 = DIRECTION ( 'NONE',  ( -2.032879073410321100E-016, 0.0000000000000000000, 1.000000000000000000 ) ) ;
#1077 = CARTESIAN_POINT ( 'NONE',  ( -0.7999999999999998200, 0.9100000000000000300, 0.3600000000000001000 ) ) ;
#1078 = EDGE_CURVE ( 'NONE', #716, #340, #1128, .T. ) ;
#1079 = CARTESIAN_POINT ( 'NONE',  ( -0.7599999999999997900, 0.9499999999999999600, 0.3600000000000001000 ) ) ;
#1080 = CARTESIAN_POINT ( 'NONE',  ( 500000.0000000000600, 0.9366666666666666500, -0.3600000000433680700 ) ) ;
#1081 = EDGE_LOOP ( 'NONE', ( #491, #805, #935, #1021 ) ) ;
#1082 = MECHANICAL_DESIGN_GEOMETRIC_PRESENTATION_REPRESENTATION (  '', ( #1232 ), #1147 ) ;
#1083 = VECTOR ( 'NONE', #1251, 1000.000000000000000 ) ;
#1084 = CARTESIAN_POINT ( 'NONE',  ( -0.7600000000000000100, 0.9100000000000000300, -0.3599999999999998200 ) ) ;
#1085 = FACE_OUTER_BOUND ( 'NONE', #420, .T. ) ;
#1086 = CARTESIAN_POINT ( 'NONE',  ( 500000.0000000000600, 0.9366666666666666500, -0.3600000000433680700 ) ) ;
#1087 = FACE_OUTER_BOUND ( 'NONE', #905, .T. ) ;
#1088 = DIRECTION ( 'NONE',  ( 1.000000000000000000, 0.0000000000000000000, 1.355252715606880300E-016 ) ) ;
#1089 = VERTEX_POINT ( 'NONE', #301 ) ;
#1090 = PLANE ( 'NONE',  #954 ) ;
#1091 = EDGE_LOOP ( 'NONE', ( #867, #278, #760 ) ) ;
#1092 = CARTESIAN_POINT ( 'NONE',  ( 0.4000000000132786200, 0.9099999999999998100, -0.3866666666666666600 ) ) ;
#1093 = CARTESIAN_POINT ( 'NONE',  ( 500000.0000000000600, 0.9100000000000000300, 0.3866666666232985200 ) ) ;
#1094 = DIRECTION ( 'NONE',  ( -1.000000000000000000, -0.0000000000000000000, -0.0000000000000000000 ) ) ;
#1095 = AXIS2_PLACEMENT_3D ( 'NONE', #211, #1200, #22 ) ;
#1096 = DIRECTION ( 'NONE',  ( -2.710505431213761600E-016, 0.0000000000000000000, 1.000000000000000000 ) ) ;
#1097 = VECTOR ( 'NONE', #743, 1000.000000000000000 ) ;
#1098 = ORIENTED_EDGE ( 'NONE', *, *, #987, .F. ) ;
#1099 = PRESENTATION_STYLE_ASSIGNMENT (( #486 ) ) ;
#1100 = AXIS2_PLACEMENT_3D ( 'NONE', #1183, #583, #378 ) ;
#1101 = VECTOR ( 'NONE', #444, 1000.000000000000000 ) ;
#1102 = DIRECTION ( 'NONE',  ( -0.0000000000000000000, -1.000000000000000000, -0.0000000000000000000 ) ) ;
#1103 = EDGE_LOOP ( 'NONE', ( #1124, #280, #1074, #1215 ) ) ;
#1104 = ORIENTED_EDGE ( 'NONE', *, *, #435, .F. ) ;
#1105 = ORIENTED_EDGE ( 'NONE', *, *, #829, .T. ) ;
#1106 = DIRECTION ( 'NONE',  ( -1.000000000000000000, 0.0000000000000000000, 2.032879073410321100E-016 ) ) ;
#1107 = EDGE_CURVE ( 'NONE', #546, #682, #757, .T. ) ;
#1108 = DIRECTION ( 'NONE',  ( 2.710505431213761600E-016, -0.0000000000000000000, 1.000000000000000000 ) ) ;
#1109 = CIRCLE ( 'NONE', #529, 0.03999999999999999400 ) ;
#1110 = ADVANCED_FACE ( 'NONE', ( #467 ), #634, .T. ) ;
#1111 = ORIENTED_EDGE ( 'NONE', *, *, #323, .F. ) ;
#1112 = SPHERICAL_SURFACE ( 'NONE', #556, 0.04000000000000000100 ) ;
#1113 = DIRECTION ( 'NONE',  ( 0.0000000000000000000, 0.0000000000000000000, -1.000000000000000000 ) ) ;
#1114 = UNCERTAINTY_MEASURE_WITH_UNIT (LENGTH_MEASURE( 1.000000000000000100E-005 ), #562, 'distance_accuracy_value', 'NONE');
#1115 = CIRCLE ( 'NONE', #1095, 0.02666666666666664800 ) ;
#1116 = DIRECTION ( 'NONE',  ( 0.0000000000000000000, 0.0000000000000000000, -1.000000000000000000 ) ) ;
#1117 = ORIENTED_EDGE ( 'NONE', *, *, #586, .T. ) ;
#1118 = CARTESIAN_POINT ( 'NONE',  ( -0.3999999999999998600, 0.9366666666666666500, 0.3599999999999996000 ) ) ;
#1119 = ORIENTED_EDGE ( 'NONE', *, *, #445, .T. ) ;
#1120 = EDGE_CURVE ( 'NONE', #393, #328, #1172, .T. ) ;
#1121 = AXIS2_PLACEMENT_3D ( 'NONE', #1086, #1268, #82 ) ;
#1122 = CARTESIAN_POINT ( 'NONE',  ( -0.7999999999999998200, 0.03999999999999999400, 0.3600000000000001000 ) ) ;
#1123 = ORIENTED_EDGE ( 'NONE', *, *, #192, .F. ) ;
#1124 = ORIENTED_EDGE ( 'NONE', *, *, #1018, .T. ) ;
#1125 = ORIENTED_EDGE ( 'NONE', *, *, #1210, .T. ) ;
#1126 = CIRCLE ( 'NONE', #152, 0.03999999999999999400 ) ;
#1127 = CARTESIAN_POINT ( 'NONE',  ( -0.3999999999999999700, 0.01333333333333333200, -0.3599999999999997100 ) ) ;
#1128 = LINE ( 'NONE', #1270, #571 ) ;
#1129 = VERTEX_POINT ( 'NONE', #206 ) ;
#1130 = FACE_OUTER_BOUND ( 'NONE', #1141, .T. ) ;
#1131 = LINE ( 'NONE', #819, #535 ) ;
#1132 = ORIENTED_EDGE ( 'NONE', *, *, #911, .F. ) ;
#1133 = EDGE_CURVE ( 'NONE', #57, #517, #104, .T. ) ;
#1134 = ORIENTED_EDGE ( 'NONE', *, *, #147, .T. ) ;
#1135 = ORIENTED_EDGE ( 'NONE', *, *, #1054, .T. ) ;
#1136 = DIRECTION ( 'NONE',  ( 0.0000000000000000000, 0.0000000000000000000, 1.000000000000000000 ) ) ;
#1137 = DIRECTION ( 'NONE',  ( 8.673617379884036700E-017, -0.0000000000000000000, 1.000000000000000000 ) ) ;
#1138 = ORIENTED_EDGE ( 'NONE', *, *, #542, .T. ) ;
#1139 = DIRECTION ( 'NONE',  ( -1.000000000000000000, 0.0000000000000000000, 0.0000000000000000000 ) ) ;
#1140 = LINE ( 'NONE', #617, #148 ) ;
#1141 = EDGE_LOOP ( 'NONE', ( #45, #1266, #722, #1015 ) ) ;
#1142 = CARTESIAN_POINT ( 'NONE',  ( -0.8000000000000000400, 0.03999999999999999400, -0.3999999999999998000 ) ) ;
#1143 = LINE ( 'NONE', #771, #472 ) ;
#1144 = VERTEX_POINT ( 'NONE', #1276 ) ;
#1145 = EDGE_CURVE ( 'NONE', #1230, #57, #361, .T. ) ;
#1146 = ORIENTED_EDGE ( 'NONE', *, *, #459, .T. ) ;
#1147 =( GEOMETRIC_REPRESENTATION_CONTEXT ( 3 ) GLOBAL_UNCERTAINTY_ASSIGNED_CONTEXT ( ( #882 ) ) GLOBAL_UNIT_ASSIGNED_CONTEXT ( ( #48, #251, #939 ) ) REPRESENTATION_CONTEXT ( 'NONE', 'WORKASPACE' ) );
#1148 = AXIS2_PLACEMENT_3D ( 'NONE', #1073, #160, #282 ) ;
#1149 = DIRECTION ( 'NONE',  ( -1.000000000000000000, -0.0000000000000000000, -0.0000000000000000000 ) ) ;
#1150 = CARTESIAN_POINT ( 'NONE',  ( 0.7600000000000000100, 0.04000000000000000100, -0.3599999999999998200 ) ) ;
#1151 = UNCERTAINTY_MEASURE_WITH_UNIT (LENGTH_MEASURE( 1.000000000000000100E-005 ), #168, 'distance_accuracy_value', 'NONE');
#1152 =( NAMED_UNIT ( * ) PLANE_ANGLE_UNIT ( ) SI_UNIT ( $, .RADIAN. ) );
#1153 = ORIENTED_EDGE ( 'NONE', *, *, #925, .T. ) ;
#1154 = EDGE_LOOP ( 'NONE', ( #1019, #268, #769 ) ) ;
#1155 = ORIENTED_EDGE ( 'NONE', *, *, #387, .T. ) ;
#1156 = VECTOR ( 'NONE', #1176, 1000.000000000000000 ) ;
#1157 = FACE_OUTER_BOUND ( 'NONE', #426, .T. ) ;
#1158 = FACE_OUTER_BOUND ( 'NONE', #485, .T. ) ;
#1159 = DIRECTION ( 'NONE',  ( 1.000000000000000000, 0.0000000000000000000, -2.710505431213761600E-016 ) ) ;
#1160 = PRESENTATION_STYLE_ASSIGNMENT (( #967 ) ) ;
#1161 = DIRECTION ( 'NONE',  ( 0.0000000000000000000, 0.0000000000000000000, 1.000000000000000000 ) ) ;
#1162 = ORIENTED_EDGE ( 'NONE', *, *, #24, .F. ) ;
#1163 = DIRECTION ( 'NONE',  ( -2.032879073410321300E-016, -0.0000000000000000000, -1.000000000000000000 ) ) ;
#1164 = VERTEX_POINT ( 'NONE', #1196 ) ;
#1165 =( NAMED_UNIT ( * ) SI_UNIT ( $, .STERADIAN. ) SOLID_ANGLE_UNIT ( ) );
#1166 = AXIS2_PLACEMENT_3D ( 'NONE', #507, #696, #103 ) ;
#1167 =( NAMED_UNIT ( * ) SI_UNIT ( $, .STERADIAN. ) SOLID_ANGLE_UNIT ( ) );
#1168 = DIRECTION ( 'NONE',  ( -8.673617379884037900E-017, 0.0000000000000000000, -1.000000000000000000 ) ) ;
#1169 = EDGE_CURVE ( 'NONE', #578, #1164, #664, .T. ) ;
#1170 = CARTESIAN_POINT ( 'NONE',  ( -0.8000000000000000400, 0.03999999999999999400, -0.3999999999999998000 ) ) ;
#1171 = EDGE_CURVE ( 'NONE', #670, #199, #1126, .T. ) ;
#1172 = LINE ( 'NONE', #789, #500 ) ;
#1173 = DIRECTION ( 'NONE',  ( -1.000000000000000000, -0.0000000000000000000, -1.355252715606880300E-016 ) ) ;
#1174 = AXIS2_PLACEMENT_3D ( 'NONE', #1036, #1137, #731 ) ;
#1175 = LINE ( 'NONE', #210, #217 ) ;
#1176 = DIRECTION ( 'NONE',  ( 1.000000000000000000, -0.0000000000000000000, -0.0000000000000000000 ) ) ;
#1177 = CYLINDRICAL_SURFACE ( 'NONE', #681, 0.03999999999999999400 ) ;
#1178 = ORIENTED_EDGE ( 'NONE', *, *, #973, .T. ) ;
#1179 = ADVANCED_FACE ( 'NONE', ( #558 ), #285, .F. ) ;
#1180 = VERTEX_POINT ( 'NONE', #96 ) ;
#1181 = FILL_AREA_STYLE_COLOUR ( '', #41 ) ;
#1182 = DIRECTION ( 'NONE',  ( -0.0000000000000000000, 1.000000000000000000, -0.0000000000000000000 ) ) ;
#1183 = CARTESIAN_POINT ( 'NONE',  ( -0.7600000000000000100, 0.9100000000000000300, -0.3599999999999998200 ) ) ;
#1184 = ORIENTED_EDGE ( 'NONE', *, *, #1171, .T. ) ;
#1185 = ORIENTED_EDGE ( 'NONE', *, *, #323, .T. ) ;
#1186 = EDGE_CURVE ( 'NONE', #1263, #879, #1109, .T. ) ;
#1187 = EDGE_LOOP ( 'NONE', ( #656, #565, #825, #572 ) ) ;
#1188 = ORIENTED_EDGE ( 'NONE', *, *, #765, .F. ) ;
#1189 = AXIS2_PLACEMENT_3D ( 'NONE', #304, #403, #8 ) ;
#1190 = SPHERICAL_SURFACE ( 'NONE', #884, 0.04000000000000000100 ) ;
#1191 = VERTEX_POINT ( 'NONE', #671 ) ;
#1192 = PLANE ( 'NONE',  #1254 ) ;
#1193 = FACE_OUTER_BOUND ( 'NONE', #1209, .T. ) ;
#1194 = CARTESIAN_POINT ( 'NONE',  ( -0.3999999999999998000, 0.9100000000000000300, 0.3600000000000001000 ) ) ;
#1195 = CYLINDRICAL_SURFACE ( 'NONE', #784, 0.03999999999999999400 ) ;
#1196 = CARTESIAN_POINT ( 'NONE',  ( 0.7599999999999997900, 0.0000000000000000000, 0.3600000000000001000 ) ) ;
#1197 = ORIENTED_EDGE ( 'NONE', *, *, #949, .T. ) ;
#1198 = CARTESIAN_POINT ( 'NONE',  ( -0.3999999999999999700, 0.9499999999999999600, -0.3599999999999998800 ) ) ;
#1199 = ORIENTED_EDGE ( 'NONE', *, *, #284, .T. ) ;
#1200 = DIRECTION ( 'NONE',  ( 1.000000000000000000, 0.0000000000000000000, 2.032879073410321100E-016 ) ) ;
#1201 = EDGE_CURVE ( 'NONE', #1239, #670, #1255, .T. ) ;
#1202 = CARTESIAN_POINT ( 'NONE',  ( 0.7599999999999997900, 0.9499999999999999600, 0.4000000000000000800 ) ) ;
#1203 = DIRECTION ( 'NONE',  ( 1.000000000000000000, -0.0000000000000000000, -0.0000000000000000000 ) ) ;
#1204 = DIRECTION ( 'NONE',  ( -1.000000000000000000, 0.0000000000000000000, 0.0000000000000000000 ) ) ;
#1205 = CARTESIAN_POINT ( 'NONE',  ( -0.8000000000000000400, 0.03999999999999999400, -0.3599999999999998200 ) ) ;
#1206 = CIRCLE ( 'NONE', #551, 0.02666666666666664800 ) ;
#1207 = DIRECTION ( 'NONE',  ( 1.355252715606880300E-016, -0.0000000000000000000, 1.000000000000000000 ) ) ;
#1208 = DIRECTION ( 'NONE',  ( -1.000000000000000000, 0.0000000000000000000, 0.0000000000000000000 ) ) ;
#1209 = EDGE_LOOP ( 'NONE', ( #75, #320, #609, #828 ) ) ;
#1210 = EDGE_CURVE ( 'NONE', #591, #457, #1000, .T. ) ;
#1211 = CARTESIAN_POINT ( 'NONE',  ( -0.7600000000000000100, 0.04000000000000000100, -0.3599999999999998200 ) ) ;
#1212 = EDGE_CURVE ( 'NONE', #1260, #1089, #1065, .T. ) ;
#1213 = AXIS2_PLACEMENT_3D ( 'NONE', #91, #776, #193 ) ;
#1214 = ORIENTED_EDGE ( 'NONE', *, *, #1009, .T. ) ;
#1215 = ORIENTED_EDGE ( 'NONE', *, *, #192, .T. ) ;
#1216 = FACE_OUTER_BOUND ( 'NONE', #169, .T. ) ;
#1217 = ORIENTED_EDGE ( 'NONE', *, *, #526, .F. ) ;
#1218 = LINE ( 'NONE', #49, #519 ) ;
#1219 = CIRCLE ( 'NONE', #937, 0.03999999999999999400 ) ;
#1220 = AXIS2_PLACEMENT_3D ( 'NONE', #296, #481, #570 ) ;
#1221 = VERTEX_POINT ( 'NONE', #298 ) ;
#1222 = ORIENTED_EDGE ( 'NONE', *, *, #880, .T. ) ;
#1223 = SURFACE_SIDE_STYLE ('',( #248 ) ) ;
#1224 = AXIS2_PLACEMENT_3D ( 'NONE', #283, #982, #977 ) ;
#1225 = UNCERTAINTY_MEASURE_WITH_UNIT (LENGTH_MEASURE( 1.000000000000000100E-005 ), #659, 'distance_accuracy_value', 'NONE');
#1226 = DIRECTION ( 'NONE',  ( -2.032879073410321100E-016, 0.0000000000000000000, 1.000000000000000000 ) ) ;
#1227 = VECTOR ( 'NONE', #1001, 1000.000000000000000 ) ;
#1228 = EDGE_CURVE ( 'NONE', #340, #748, #379, .T. ) ;
#1229 = LINE ( 'NONE', #311, #188 ) ;
#1230 = VERTEX_POINT ( 'NONE', #85 ) ;
#1231 = CARTESIAN_POINT ( 'NONE',  ( 0.8000000000000000400, 0.03999999999999999400, -0.3999999999999998000 ) ) ;
#1232 = STYLED_ITEM ( 'NONE', ( #863 ), #94 ) ;
#1233 = ORIENTED_EDGE ( 'NONE', *, *, #1145, .F. ) ;
#1234 = CARTESIAN_POINT ( 'NONE',  ( 0.3999999999999999700, 0.04000000000000021600, -0.3999999999999998600 ) ) ;
#1235 = CLOSED_SHELL ( 'NONE', ( #673, #934, #1179, #27, #630, #778, #97, #522, #1110, #477, #817, #376, #1257, #89, #407, #874, #573, #594 ) ) ;
#1236 = AXIS2_PLACEMENT_3D ( 'NONE', #254, #43, #343 ) ;
#1237 = VERTEX_POINT ( 'NONE', #241 ) ;
#1238 = CARTESIAN_POINT ( 'NONE',  ( -0.7599999999999997900, 0.9100000000000000300, 0.4000000000000000800 ) ) ;
#1239 = VERTEX_POINT ( 'NONE', #1122 ) ;
#1240 = ORIENTED_EDGE ( 'NONE', *, *, #459, .F. ) ;
#1241 = CARTESIAN_POINT ( 'NONE',  ( 0.4000000000132786200, 0.9366666666666666500, 0.3599999999999994900 ) ) ;
#1242 = FACE_OUTER_BOUND ( 'NONE', #331, .T. ) ;
#1243 = CIRCLE ( 'NONE', #648, 0.03999999999999999400 ) ;
#1244 = CARTESIAN_POINT ( 'NONE',  ( 500000.0000000000600, 0.03999999999999999400, -0.3600000000433680700 ) ) ;
#1245 = VECTOR ( 'NONE', #509, 1000.000000000000000 ) ;
#1246 = VECTOR ( 'NONE', #204, 1000.000000000000000 ) ;
#1247 = DIRECTION ( 'NONE',  ( -0.0000000000000000000, -0.0000000000000000000, -1.000000000000000000 ) ) ;
#1248 =( GEOMETRIC_REPRESENTATION_CONTEXT ( 3 ) GLOBAL_UNCERTAINTY_ASSIGNED_CONTEXT ( ( #1225 ) ) GLOBAL_UNIT_ASSIGNED_CONTEXT ( ( #659, #1152, #1047 ) ) REPRESENTATION_CONTEXT ( 'NONE', 'WORKASPACE' ) );
#1249 = DIRECTION ( 'NONE',  ( 1.000000000000000000, 0.0000000000000000000, 2.032879073410321100E-016 ) ) ;
#1250 = ORIENTED_EDGE ( 'NONE', *, *, #712, .F. ) ;
#1251 = DIRECTION ( 'NONE',  ( 0.0000000000000000000, -1.000000000000000000, 0.0000000000000000000 ) ) ;
#1252 = EDGE_CURVE ( 'NONE', #875, #682, #305, .T. ) ;
#1253 = DIRECTION ( 'NONE',  ( 0.0000000000000000000, 1.000000000000000000, 0.0000000000000000000 ) ) ;
#1254 = AXIS2_PLACEMENT_3D ( 'NONE', #793, #1207, #595 ) ;
#1255 = LINE ( 'NONE', #691, #622 ) ;
#1256 = DIRECTION ( 'NONE',  ( 0.0000000000000000000, 0.0000000000000000000, 1.000000000000000000 ) ) ;
#1257 = ADVANCED_FACE ( 'NONE', ( #699 ), #796, .T. ) ;
#1258 = VECTOR ( 'NONE', #1096, 1000.000000000000000 ) ;
#1259 = FILL_AREA_STYLE_COLOUR ( '', #941 ) ;
#1260 = VERTEX_POINT ( 'NONE', #360 ) ;
#1261 = CARTESIAN_POINT ( 'NONE',  ( -0.3999999999999998000, 0.9499999999999999600, 0.3599999999999998800 ) ) ;
#1262 = DIRECTION ( 'NONE',  ( -1.000000000000000000, 0.0000000000000000000, 8.673617379884037900E-017 ) ) ;
#1263 = VERTEX_POINT ( 'NONE', #277 ) ;
#1264 = ORIENTED_EDGE ( 'NONE', *, *, #1035, .T. ) ;
#1265 = DIRECTION ( 'NONE',  ( -2.710505431213761600E-016, -0.0000000000000000000, -1.000000000000000000 ) ) ;
#1266 = ORIENTED_EDGE ( 'NONE', *, *, #284, .F. ) ;
#1267 = ADVANCED_FACE ( 'NONE', ( #396 ), #235, .F. ) ;
#1268 = DIRECTION ( 'NONE',  ( 0.0000000000000000000, -1.000000000000000000, 0.0000000000000000000 ) ) ;
#1269 = EDGE_CURVE ( 'NONE', #938, #578, #116, .T. ) ;
#1270 = CARTESIAN_POINT ( 'NONE',  ( -0.8000000000000000400, 0.9499999999999999600, -0.3599999999999998200 ) ) ;
#1271 = EDGE_CURVE ( 'NONE', #142, #109, #545, .T. ) ;
#1272 = CARTESIAN_POINT ( 'NONE',  ( 0.4000000000132786200, 0.03999999999999999400, 0.3599999999999999300 ) ) ;
#1273 = ORIENTED_EDGE ( 'NONE', *, *, #21, .F. ) ;
#1274 = AXIS2_PLACEMENT_3D ( 'NONE', #182, #185, #1060 ) ;
#1275 = CIRCLE ( 'NONE', #416, 0.03999999999999999400 ) ;
#1276 = CARTESIAN_POINT ( 'NONE',  ( -0.3999999999999998000, 0.04000000000000021600, 0.4000000000000000800 ) ) ;
#1277 = VECTOR ( 'NONE', #642, 1000.000000000000000 ) ;
#1278 = EDGE_LOOP ( 'NONE', ( #121, #1185, #894, #869 ) ) ;
#1279 = LINE ( 'NONE', #179, #746 ) ;
#1280 = DIRECTION ( 'NONE',  ( -1.000000000000000000, -0.0000000000000000000, 8.673617379884036700E-017 ) ) ;
ENDSEC;
END-ISO-10303-21;
